<?xml version="1.0" encoding="UTF-8" standalone="no"?><svg xmlns="http://www.w3.org/2000/svg" xmlns:xlink="http://www.w3.org/1999/xlink" contentStyleType="text/css" height="201px" preserveAspectRatio="none" style="width:491px;height:201px;background:#FFFFFF;" version="1.1" viewBox="0 0 491 201" width="491px" zoomAndPan="magnify"><defs/><g><!--MD5=[1a72a22161a11616124667101ae308cd]
entity Advogado--><g id="elem_Advogado"><ellipse cx="46.5" cy="14" fill="#F1F1F1" rx="8" ry="8" style="stroke:#181818;stroke-width:0.5;"/><path d="M46.5,22 L46.5,49 M33.5,30 L59.5,30 M46.5,49 L33.5,64 M46.5,49 L59.5,64 " fill="none" style="stroke:#181818;stroke-width:0.5;"/><text fill="#000000" font-family="sans-serif" font-size="14" lengthAdjust="spacing" textLength="64" x="14.5" y="80.0332">Advogado</text></g><!--MD5=[2eae17a2a41bed15cb34e9642d7f0f85]
entity Funcionario--><g id="elem_Funcionario"><ellipse cx="46.5" cy="127" fill="#F1F1F1" rx="8" ry="8" style="stroke:#181818;stroke-width:0.5;"/><path d="M46.5,135 L46.5,162 M33.5,143 L59.5,143 M46.5,162 L33.5,177 M46.5,162 L59.5,177 " fill="none" style="stroke:#181818;stroke-width:0.5;"/><text fill="#000000" font-family="sans-serif" font-size="14" lengthAdjust="spacing" textLength="81" x="6" y="193.0332">Funcionário</text></g><g id="elem_UC7"><ellipse cx="316.4281" cy="101.2856" fill="#F1F1F1" rx="169.4281" ry="36.2856" style="stroke:#181818;stroke-width:0.5;"/><text fill="#000000" font-family="sans-serif" font-size="14" lengthAdjust="spacing" textLength="309" x="161.9281" y="105.0141">Visualizar histórico de atuação em processos</text></g><!--MD5=[6d68a32999c23a9c81e36466ee8f8105]
link Advogado to UC7--><g id="link_Advogado_UC7"><path d="M78.5,51.09 C107.37,57.23 152.29,66.79 195.3,75.94 " fill="none" id="Advogado-UC7" style="stroke:#181818;stroke-width:1.0;"/></g><!--MD5=[21c791e43c3a47ae786249a5dac9ebb9]
link Funcionario to UC7--><g id="link_Funcionario_UC7"><path d="M87.04,149.24 C115.51,143.29 155.55,134.92 194.17,126.85 " fill="none" id="Funcionario-UC7" style="stroke:#181818;stroke-width:1.0;"/></g><!--MD5=[0efce53042526648199f3aa89c70585f]
@startuml
left to right direction

actor "Advogado" as Advogado
actor "Funcionário" as Funcionario

usecase "Visualizar histórico de atuação em processos" as UC7

Advogado - - UC7
Funcionario - - UC7

@enduml

PlantUML version 1.2022.12(Sun Oct 23 15:12:26 BRT 2022)
(GPL source distribution)
Java Runtime: Java(TM) SE Runtime Environment
JVM: Java HotSpot(TM) 64-Bit Server VM
Default Encoding: Cp1252
Language: pt
Country: BR
--></g></svg>