<?xml version="1.0" encoding="UTF-8" standalone="no"?><svg xmlns="http://www.w3.org/2000/svg" xmlns:xlink="http://www.w3.org/1999/xlink" contentStyleType="text/css" height="201px" preserveAspectRatio="none" style="width:448px;height:201px;background:#FFFFFF;" version="1.1" viewBox="0 0 448 201" width="448px" zoomAndPan="magnify"><defs/><g><!--MD5=[1a72a22161a11616124667101ae308cd]
entity Advogado--><g id="elem_Advogado"><ellipse cx="46.5" cy="14" fill="#F1F1F1" rx="8" ry="8" style="stroke:#181818;stroke-width:0.5;"/><path d="M46.5,22 L46.5,49 M33.5,30 L59.5,30 M46.5,49 L33.5,64 M46.5,49 L59.5,64 " fill="none" style="stroke:#181818;stroke-width:0.5;"/><text fill="#000000" font-family="sans-serif" font-size="14" lengthAdjust="spacing" textLength="64" x="14.5" y="80.0332">Advogado</text></g><!--MD5=[2eae17a2a41bed15cb34e9642d7f0f85]
entity Funcionario--><g id="elem_Funcionario"><ellipse cx="46.5" cy="127" fill="#F1F1F1" rx="8" ry="8" style="stroke:#181818;stroke-width:0.5;"/><path d="M46.5,135 L46.5,162 M33.5,143 L59.5,143 M46.5,162 L33.5,177 M46.5,162 L59.5,177 " fill="none" style="stroke:#181818;stroke-width:0.5;"/><text fill="#000000" font-family="sans-serif" font-size="14" lengthAdjust="spacing" textLength="81" x="6" y="193.0332">Funcionário</text></g><g id="elem_UC11"><ellipse cx="294.8519" cy="101.4704" fill="#F1F1F1" rx="147.8519" ry="31.9704" style="stroke:#181818;stroke-width:0.5;"/><text fill="#000000" font-family="sans-serif" font-size="14" lengthAdjust="spacing" textLength="264" x="162.8519" y="105.1989">Excluir notificações das publicações</text></g><!--MD5=[e32a4cfdf9cc4f4c40c539a356e995f1]
link Advogado to UC11--><g id="link_Advogado_UC11"><path d="M78.72,51.72 C107.61,58.4 152.17,68.7 193.28,78.21 " fill="none" id="Advogado-UC11" style="stroke:#181818;stroke-width:1.0;"/></g><!--MD5=[578e666f3182b9f0b578355115d232ea]
link Funcionario to UC11--><g id="link_Funcionario_UC11"><path d="M87.1,148.5 C115.55,142.04 155.25,133.02 192.27,124.61 " fill="none" id="Funcionario-UC11" style="stroke:#181818;stroke-width:1.0;"/></g><!--MD5=[0d48e77660d9587a91d2a4905e0e15c5]
@startuml
left to right direction

actor "Advogado" as Advogado
actor "Funcionário" as Funcionario

usecase "Excluir notificações das publicações" as UC11

Advogado - - UC11
Funcionario - - UC11

@enduml

PlantUML version 1.2022.12(Sun Oct 23 15:12:26 BRT 2022)
(GPL source distribution)
Java Runtime: Java(TM) SE Runtime Environment
JVM: Java HotSpot(TM) 64-Bit Server VM
Default Encoding: Cp1252
Language: pt
Country: BR
--></g></svg>