<?xml version="1.0" encoding="UTF-8" standalone="no"?><svg xmlns="http://www.w3.org/2000/svg" xmlns:xlink="http://www.w3.org/1999/xlink" contentStyleType="text/css" height="201px" preserveAspectRatio="none" style="width:488px;height:201px;background:#FFFFFF;" version="1.1" viewBox="0 0 488 201" width="488px" zoomAndPan="magnify"><defs/><g><!--MD5=[1a72a22161a11616124667101ae308cd]
entity Advogado--><g id="elem_Advogado"><ellipse cx="46.5" cy="14" fill="#F1F1F1" rx="8" ry="8" style="stroke:#181818;stroke-width:0.5;"/><path d="M46.5,22 L46.5,49 M33.5,30 L59.5,30 M46.5,49 L33.5,64 M46.5,49 L59.5,64 " fill="none" style="stroke:#181818;stroke-width:0.5;"/><text fill="#000000" font-family="sans-serif" font-size="14" lengthAdjust="spacing" textLength="64" x="14.5" y="80.0332">Advogado</text></g><!--MD5=[2eae17a2a41bed15cb34e9642d7f0f85]
entity Funcionario--><g id="elem_Funcionario"><ellipse cx="46.5" cy="127" fill="#F1F1F1" rx="8" ry="8" style="stroke:#181818;stroke-width:0.5;"/><path d="M46.5,135 L46.5,162 M33.5,143 L59.5,143 M46.5,162 L33.5,177 M46.5,162 L59.5,177 " fill="none" style="stroke:#181818;stroke-width:0.5;"/><text fill="#000000" font-family="sans-serif" font-size="14" lengthAdjust="spacing" textLength="81" x="6" y="193.0332">Funcionário</text></g><g id="elem_UC10"><ellipse cx="314.5002" cy="101.4" fill="#F1F1F1" rx="167.5002" ry="35.9" style="stroke:#181818;stroke-width:0.5;"/><text fill="#000000" font-family="sans-serif" font-size="14" lengthAdjust="spacing" textLength="305" x="162.0002" y="105.1286">Interagir com notificações das publicações</text></g><!--MD5=[46db26bcd0ac6ca8d0d7c50cfc3206e7]
link Advogado to UC10--><g id="link_Advogado_UC10"><path d="M78.53,51.15 C107.45,57.35 152.44,66.99 195.34,76.18 " fill="none" id="Advogado-UC10" style="stroke:#181818;stroke-width:1.0;"/></g><!--MD5=[92373e1074aff2c8f9381fd8e5086fa4]
link Funcionario to UC10--><g id="link_Funcionario_UC10"><path d="M87.04,149.18 C115.55,143.17 155.64,134.73 194.19,126.62 " fill="none" id="Funcionario-UC10" style="stroke:#181818;stroke-width:1.0;"/></g><!--MD5=[6b55beb5078bd47a7e572274d5938499]
@startuml
left to right direction

actor "Advogado" as Advogado
actor "Funcionário" as Funcionario

usecase "Interagir com notificações das publicações" as UC10

Advogado - - UC10
Funcionario - - UC10

@enduml

PlantUML version 1.2022.12(Sun Oct 23 15:12:26 BRT 2022)
(GPL source distribution)
Java Runtime: Java(TM) SE Runtime Environment
JVM: Java HotSpot(TM) 64-Bit Server VM
Default Encoding: Cp1252
Language: pt
Country: BR
--></g></svg>