<?xml version="1.0" encoding="UTF-8" standalone="no"?><svg xmlns="http://www.w3.org/2000/svg" xmlns:xlink="http://www.w3.org/1999/xlink" contentStyleType="text/css" height="201px" preserveAspectRatio="none" style="width:441px;height:201px;background:#FFFFFF;" version="1.1" viewBox="0 0 441 201" width="441px" zoomAndPan="magnify"><defs/><g><!--MD5=[1a72a22161a11616124667101ae308cd]
entity Advogado--><g id="elem_Advogado"><ellipse cx="46.5" cy="14" fill="#F1F1F1" rx="8" ry="8" style="stroke:#181818;stroke-width:0.5;"/><path d="M46.5,22 L46.5,49 M33.5,30 L59.5,30 M46.5,49 L33.5,64 M46.5,49 L59.5,64 " fill="none" style="stroke:#181818;stroke-width:0.5;"/><text fill="#000000" font-family="sans-serif" font-size="14" lengthAdjust="spacing" textLength="64" x="14.5" y="80.0332">Advogado</text></g><!--MD5=[2eae17a2a41bed15cb34e9642d7f0f85]
entity Funcionario--><g id="elem_Funcionario"><ellipse cx="46.5" cy="127" fill="#F1F1F1" rx="8" ry="8" style="stroke:#181818;stroke-width:0.5;"/><path d="M46.5,135 L46.5,162 M33.5,143 L59.5,143 M46.5,162 L33.5,177 M46.5,162 L59.5,177 " fill="none" style="stroke:#181818;stroke-width:0.5;"/><text fill="#000000" font-family="sans-serif" font-size="14" lengthAdjust="spacing" textLength="81" x="6" y="193.0332">Funcionário</text></g><g id="elem_UC8"><ellipse cx="291.0463" cy="101.7093" fill="#F1F1F1" rx="144.0463" ry="31.2093" style="stroke:#181818;stroke-width:0.5;"/><text fill="#000000" font-family="sans-serif" font-size="14" lengthAdjust="spacing" textLength="256" x="163.0463" y="105.4378">Gerenciar audiências cronologicamente</text></g><!--MD5=[b75b9ae04c230cf745d91805d1fb456d]
link Advogado to UC8--><g id="link_Advogado_UC8"><path d="M78.71,51.84 C107.62,58.63 152.17,69.1 192.93,78.68 " fill="none" id="Advogado-UC8" style="stroke:#181818;stroke-width:1.0;"/></g><!--MD5=[9a81dcccbef0953ea101f21c794497e8]
link Funcionario to UC8--><g id="link_Funcionario_UC8"><path d="M87,148.38 C115.52,141.79 155.34,132.6 192.16,124.09 " fill="none" id="Funcionario-UC8" style="stroke:#181818;stroke-width:1.0;"/></g><!--MD5=[cc3fd54c518b4fdd4d55703cdce3d288]
@startuml
left to right direction

actor "Advogado" as Advogado
actor "Funcionário" as Funcionario

usecase "Gerenciar audiências cronologicamente" as UC8

Advogado - - UC8
Funcionario - - UC8

@enduml

PlantUML version 1.2022.12(Sun Oct 23 15:12:26 BRT 2022)
(GPL source distribution)
Java Runtime: Java(TM) SE Runtime Environment
JVM: Java HotSpot(TM) 64-Bit Server VM
Default Encoding: Cp1252
Language: pt
Country: BR
--></g></svg>