<?xml version="1.0" encoding="UTF-8" standalone="no"?><svg xmlns="http://www.w3.org/2000/svg" xmlns:xlink="http://www.w3.org/1999/xlink" contentStyleType="text/css" height="201px" preserveAspectRatio="none" style="width:380px;height:201px;background:#FFFFFF;" version="1.1" viewBox="0 0 380 201" width="380px" zoomAndPan="magnify"><defs/><g><!--MD5=[1a72a22161a11616124667101ae308cd]
entity Advogado--><g id="elem_Advogado"><ellipse cx="46.5" cy="14" fill="#F1F1F1" rx="8" ry="8" style="stroke:#181818;stroke-width:0.5;"/><path d="M46.5,22 L46.5,49 M33.5,30 L59.5,30 M46.5,49 L33.5,64 M46.5,49 L59.5,64 " fill="none" style="stroke:#181818;stroke-width:0.5;"/><text fill="#000000" font-family="sans-serif" font-size="14" lengthAdjust="spacing" textLength="64" x="14.5" y="80.0332">Advogado</text></g><!--MD5=[2eae17a2a41bed15cb34e9642d7f0f85]
entity Funcionario--><g id="elem_Funcionario"><ellipse cx="46.5" cy="127" fill="#F1F1F1" rx="8" ry="8" style="stroke:#181818;stroke-width:0.5;"/><path d="M46.5,135 L46.5,162 M33.5,143 L59.5,143 M46.5,162 L33.5,177 M46.5,162 L59.5,177 " fill="none" style="stroke:#181818;stroke-width:0.5;"/><text fill="#000000" font-family="sans-serif" font-size="14" lengthAdjust="spacing" textLength="81" x="6" y="193.0332">Funcionário</text></g><g id="elem_UC6"><ellipse cx="260.6359" cy="101.6272" fill="#F1F1F1" rx="113.6359" ry="25.1272" style="stroke:#181818;stroke-width:0.5;"/><text fill="#000000" font-family="sans-serif" font-size="14" lengthAdjust="spacing" textLength="191" x="165.1359" y="105.3557">Registrar clientes e processos</text></g><!--MD5=[747cc1d8b5eb36bddbee7b46b9a65e6f]
link Advogado to UC6--><g id="link_Advogado_UC6"><path d="M78.78,52.91 C107.35,60.59 150.64,72.23 187.69,82.19 " fill="none" id="Advogado-UC6" style="stroke:#181818;stroke-width:1.0;"/></g><!--MD5=[d7dfe07552bd9b1a1a6951a6bcdfffe3]
link Funcionario to UC6--><g id="link_Funcionario_UC6"><path d="M87.38,146.97 C115.44,139.55 153.81,129.42 187.19,120.6 " fill="none" id="Funcionario-UC6" style="stroke:#181818;stroke-width:1.0;"/></g><!--MD5=[30de25f6c350ce25e07f113fbeb5abde]
@startuml
left to right direction

actor "Advogado" as Advogado
actor "Funcionário" as Funcionario

usecase "Registrar clientes e processos" as UC6

Advogado - - UC6
Funcionario - - UC6

@enduml

PlantUML version 1.2022.12(Sun Oct 23 15:12:26 BRT 2022)
(GPL source distribution)
Java Runtime: Java(TM) SE Runtime Environment
JVM: Java HotSpot(TM) 64-Bit Server VM
Default Encoding: Cp1252
Language: pt
Country: BR
--></g></svg>