<?xml version="1.0" encoding="UTF-8" standalone="no"?><svg xmlns="http://www.w3.org/2000/svg" xmlns:xlink="http://www.w3.org/1999/xlink" contentStyleType="text/css" height="201px" preserveAspectRatio="none" style="width:474px;height:201px;background:#FFFFFF;" version="1.1" viewBox="0 0 474 201" width="474px" zoomAndPan="magnify"><defs/><g><!--MD5=[1a72a22161a11616124667101ae308cd]
entity Advogado--><g id="elem_Advogado"><ellipse cx="46.5" cy="14" fill="#F1F1F1" rx="8" ry="8" style="stroke:#181818;stroke-width:0.5;"/><path d="M46.5,22 L46.5,49 M33.5,30 L59.5,30 M46.5,49 L33.5,64 M46.5,49 L59.5,64 " fill="none" style="stroke:#181818;stroke-width:0.5;"/><text fill="#000000" font-family="sans-serif" font-size="14" lengthAdjust="spacing" textLength="64" x="14.5" y="80.0332">Advogado</text></g><!--MD5=[2eae17a2a41bed15cb34e9642d7f0f85]
entity Funcionario--><g id="elem_Funcionario"><ellipse cx="46.5" cy="127" fill="#F1F1F1" rx="8" ry="8" style="stroke:#181818;stroke-width:0.5;"/><path d="M46.5,135 L46.5,162 M33.5,143 L59.5,143 M46.5,162 L33.5,177 M46.5,162 L59.5,177 " fill="none" style="stroke:#181818;stroke-width:0.5;"/><text fill="#000000" font-family="sans-serif" font-size="14" lengthAdjust="spacing" textLength="81" x="6" y="193.0332">Funcionário</text></g><g id="elem_UC5"><ellipse cx="307.7666" cy="101.5533" fill="#F1F1F1" rx="160.7666" ry="34.5533" style="stroke:#181818;stroke-width:0.5;"/><text fill="#000000" font-family="sans-serif" font-size="14" lengthAdjust="spacing" textLength="291" x="162.2666" y="105.2818">Selecionar UFs para monitorar publicações</text></g><!--MD5=[cc4c030dff17921d268f51ffe6479377]
link Advogado to UC5--><g id="link_Advogado_UC5"><path d="M78.54,51.32 C107.54,57.69 152.59,67.58 195.06,76.91 " fill="none" id="Advogado-UC5" style="stroke:#181818;stroke-width:1.0;"/></g><!--MD5=[d54198e56672bc3f05ec11e6139cb06b]
link Funcionario to UC5--><g id="link_Funcionario_UC5"><path d="M87.19,148.93 C115.73,142.78 155.74,134.14 193.81,125.93 " fill="none" id="Funcionario-UC5" style="stroke:#181818;stroke-width:1.0;"/></g><!--MD5=[bf00cc508f232773de4d0943cbe3df68]
@startuml
left to right direction

actor "Advogado" as Advogado
actor "Funcionário" as Funcionario

usecase "Selecionar UFs para monitorar publicações" as UC5

Advogado - - UC5
Funcionario - - UC5

@enduml

PlantUML version 1.2022.12(Sun Oct 23 15:12:26 BRT 2022)
(GPL source distribution)
Java Runtime: Java(TM) SE Runtime Environment
JVM: Java HotSpot(TM) 64-Bit Server VM
Default Encoding: Cp1252
Language: pt
Country: BR
--></g></svg>