<?xml version="1.0" encoding="UTF-8" standalone="no"?><svg xmlns="http://www.w3.org/2000/svg" xmlns:xlink="http://www.w3.org/1999/xlink" contentStyleType="text/css" height="201px" preserveAspectRatio="none" style="width:336px;height:201px;background:#FFFFFF;" version="1.1" viewBox="0 0 336 201" width="336px" zoomAndPan="magnify"><defs/><g><!--MD5=[1a72a22161a11616124667101ae308cd]
entity Advogado--><g id="elem_Advogado"><ellipse cx="46.5" cy="14" fill="#F1F1F1" rx="8" ry="8" style="stroke:#181818;stroke-width:0.5;"/><path d="M46.5,22 L46.5,49 M33.5,30 L59.5,30 M46.5,49 L33.5,64 M46.5,49 L59.5,64 " fill="none" style="stroke:#181818;stroke-width:0.5;"/><text fill="#000000" font-family="sans-serif" font-size="14" lengthAdjust="spacing" textLength="64" x="14.5" y="80.0332">Advogado</text></g><!--MD5=[2eae17a2a41bed15cb34e9642d7f0f85]
entity Funcionario--><g id="elem_Funcionario"><ellipse cx="46.5" cy="127" fill="#F1F1F1" rx="8" ry="8" style="stroke:#181818;stroke-width:0.5;"/><path d="M46.5,135 L46.5,162 M33.5,143 L59.5,143 M46.5,162 L33.5,177 M46.5,162 L59.5,177 " fill="none" style="stroke:#181818;stroke-width:0.5;"/><text fill="#000000" font-family="sans-serif" font-size="14" lengthAdjust="spacing" textLength="81" x="6" y="193.0332">Funcionário</text></g><g id="elem_UC12"><ellipse cx="238.6965" cy="101.7393" fill="#F1F1F1" rx="91.6965" ry="20.7393" style="stroke:#181818;stroke-width:0.5;"/><text fill="#000000" font-family="sans-serif" font-size="14" lengthAdjust="spacing" textLength="142" x="167.6965" y="105.4678">Categorizar processos</text></g><!--MD5=[119459e6cf8946b380e637dbec859c8b]
link Advogado to UC12--><g id="link_Advogado_UC12"><path d="M78.87,53.91 C107.12,62.39 149.26,75.03 183.01,85.15 " fill="none" id="Advogado-UC12" style="stroke:#181818;stroke-width:1.0;"/></g><!--MD5=[4f36096357983a53cbb07c3c973f69e9]
link Funcionario to UC12--><g id="link_Funcionario_UC12"><path d="M87.33,145.76 C114.86,137.65 151.85,126.74 182.23,117.79 " fill="none" id="Funcionario-UC12" style="stroke:#181818;stroke-width:1.0;"/></g><!--MD5=[c433dcf55d590fc7362f72bf90d08a34]
@startuml
left to right direction

actor "Advogado" as Advogado
actor "Funcionário" as Funcionario

usecase "Categorizar processos" as UC12

Advogado - - UC12
Funcionario - - UC12

@enduml

PlantUML version 1.2022.12(Sun Oct 23 15:12:26 BRT 2022)
(GPL source distribution)
Java Runtime: Java(TM) SE Runtime Environment
JVM: Java HotSpot(TM) 64-Bit Server VM
Default Encoding: Cp1252
Language: pt
Country: BR
--></g></svg>