<?xml version="1.0" encoding="UTF-8" standalone="no"?><svg xmlns="http://www.w3.org/2000/svg" xmlns:xlink="http://www.w3.org/1999/xlink" contentStyleType="text/css" height="960px" preserveAspectRatio="none" style="width:382px;height:960px;background:#FFFFFF;" version="1.1" viewBox="0 0 382 960" width="382px" zoomAndPan="magnify"><defs/><g><ellipse cx="178.5" cy="20" fill="#222222" rx="10" ry="10" style="stroke:#222222;stroke-width:1.0;"/><rect fill="#F1F1F1" height="35.0938" rx="12.5" ry="12.5" style="stroke:#181818;stroke-width:0.5;" width="267" x="45" y="50"/><text fill="#000000" font-family="sans-serif" font-size="12" lengthAdjust="spacing" textLength="247" x="55" y="72.457">Usuário acessa a seção "Notificações"</text><rect fill="#F1F1F1" height="50.1875" rx="12.5" ry="12.5" style="stroke:#181818;stroke-width:0.5;" width="302" x="27.5" y="105.0938"/><text fill="#000000" font-family="sans-serif" font-size="12" lengthAdjust="spacing" textLength="282" x="37.5" y="127.5508">Sistema exibe a lista de notificações com status:</text><text fill="#000000" font-family="sans-serif" font-size="12" lengthAdjust="spacing" textLength="86" x="37.5" y="142.6445">- A serem feitas</text><rect fill="#F1F1F1" height="35.0938" rx="12.5" ry="12.5" style="stroke:#181818;stroke-width:0.5;" width="111" x="123" y="175.2813"/><text fill="#000000" font-family="sans-serif" font-size="12" lengthAdjust="spacing" textLength="88" x="136" y="197.7383">Em andamento;</text><rect fill="#F1F1F1" height="35.0938" rx="12.5" ry="12.5" style="stroke:#181818;stroke-width:0.5;" width="97" x="130" y="230.375"/><text fill="#000000" font-family="sans-serif" font-size="12" lengthAdjust="spacing" textLength="74" x="143" y="252.832">Concluídas;</text><rect fill="#F1F1F1" height="35.0938" rx="12.5" ry="12.5" style="stroke:#181818;stroke-width:0.5;" width="332" x="12.5" y="334.3867"/><text fill="#000000" font-family="sans-serif" font-size="12" lengthAdjust="spacing" textLength="312" x="22.5" y="356.8438">Usuário aplica filtros (status, data, tipo de publicação)</text><polygon fill="#F1F1F1" points="84.5,285.4688,272.5,285.4688,284.5,297.4688,272.5,309.4688,84.5,309.4688,72.5,297.4688,84.5,285.4688" style="stroke:#181818;stroke-width:0.5;"/><text fill="#000000" font-family="sans-serif" font-size="11" lengthAdjust="spacing" textLength="17" x="182.5" y="320.8877">Sim</text><text fill="#000000" font-family="sans-serif" font-size="11" lengthAdjust="spacing" textLength="188" x="84.5" y="301.9697">Usuário deseja filtrar notificações?</text><polygon fill="#F1F1F1" points="178.5,389.4805,190.5,401.4805,178.5,413.4805,166.5,401.4805,178.5,389.4805" style="stroke:#181818;stroke-width:0.5;"/><rect fill="#F1F1F1" height="35.0938" rx="12.5" ry="12.5" style="stroke:#181818;stroke-width:0.5;" width="229" x="64" y="433.4805"/><text fill="#000000" font-family="sans-serif" font-size="12" lengthAdjust="spacing" textLength="209" x="74" y="455.9375">Usuário seleciona uma notificação</text><rect fill="#F1F1F1" height="35.0938" rx="12.5" ry="12.5" style="stroke:#181818;stroke-width:0.5;" width="279" x="39" y="488.5742"/><text fill="#000000" font-family="sans-serif" font-size="12" lengthAdjust="spacing" textLength="259" x="49" y="511.0313">Usuário visualiza os detalhes da notificação</text><rect fill="#F1F1F1" height="50.1875" rx="12.5" ry="12.5" style="stroke:#181818;stroke-width:0.5;" width="179" x="89" y="592.5859"/><text fill="#000000" font-family="sans-serif" font-size="12" lengthAdjust="spacing" textLength="159" x="99" y="615.043">Usuário altera o status para:</text><text fill="#000000" font-family="sans-serif" font-size="12" lengthAdjust="spacing" textLength="71" x="99" y="630.1367">- Concluída</text><rect fill="#F1F1F1" height="35.0938" rx="12.5" ry="12.5" style="stroke:#181818;stroke-width:0.5;" width="111" x="123" y="662.7734"/><text fill="#000000" font-family="sans-serif" font-size="12" lengthAdjust="spacing" textLength="88" x="136" y="685.2305">Em andamento;</text><rect fill="#F1F1F1" height="35.0938" rx="12.5" ry="12.5" style="stroke:#181818;stroke-width:0.5;" width="105" x="126" y="717.8672"/><text fill="#000000" font-family="sans-serif" font-size="12" lengthAdjust="spacing" textLength="82" x="139" y="740.3242">A serem feitas;</text><rect fill="#F1F1F1" height="35.0938" rx="12.5" ry="12.5" style="stroke:#181818;stroke-width:0.5;" width="278" x="39.5" y="772.9609"/><text fill="#000000" font-family="sans-serif" font-size="12" lengthAdjust="spacing" textLength="258" x="49.5" y="795.418">Sistema atualiza o status e registra a data/hora</text><rect fill="#F1F1F1" height="35.0938" rx="12.5" ry="12.5" style="stroke:#181818;stroke-width:0.5;" width="335" x="11" y="828.0547"/><text fill="#000000" font-family="sans-serif" font-size="12" lengthAdjust="spacing" textLength="315" x="21" y="850.5117">Sistema exibe MSG13 ("Status atualizado com sucesso.")</text><polygon fill="#F1F1F1" points="99.5,543.668,257.5,543.668,269.5,555.668,257.5,567.668,99.5,567.668,87.5,555.668,99.5,543.668" style="stroke:#181818;stroke-width:0.5;"/><text fill="#000000" font-family="sans-serif" font-size="11" lengthAdjust="spacing" textLength="17" x="182.5" y="579.0869">Sim</text><text fill="#000000" font-family="sans-serif" font-size="11" lengthAdjust="spacing" textLength="158" x="99.5" y="560.1689">Usuário deseja alterar o status?</text><polygon fill="#F1F1F1" points="178.5,883.1484,190.5,895.1484,178.5,907.1484,166.5,895.1484,178.5,883.1484" style="stroke:#181818;stroke-width:0.5;"/><ellipse cx="178.5" cy="938.1484" fill="none" rx="11" ry="11" style="stroke:#222222;stroke-width:1.0;"/><ellipse cx="178.5" cy="938.1484" fill="#222222" rx="6" ry="6" style="stroke:#111111;stroke-width:1.0;"/><line style="stroke:#181818;stroke-width:1.0;" x1="178.5" x2="178.5" y1="30" y2="50"/><polygon fill="#181818" points="174.5,40,178.5,50,182.5,40,178.5,44" style="stroke:#181818;stroke-width:1.0;"/><line style="stroke:#181818;stroke-width:1.0;" x1="178.5" x2="178.5" y1="85.0938" y2="105.0938"/><polygon fill="#181818" points="174.5,95.0938,178.5,105.0938,182.5,95.0938,178.5,99.0938" style="stroke:#181818;stroke-width:1.0;"/><line style="stroke:#181818;stroke-width:1.0;" x1="178.5" x2="178.5" y1="155.2813" y2="175.2813"/><polygon fill="#181818" points="174.5,165.2813,178.5,175.2813,182.5,165.2813,178.5,169.2813" style="stroke:#181818;stroke-width:1.0;"/><line style="stroke:#181818;stroke-width:1.0;" x1="178.5" x2="178.5" y1="210.375" y2="230.375"/><polygon fill="#181818" points="174.5,220.375,178.5,230.375,182.5,220.375,178.5,224.375" style="stroke:#181818;stroke-width:1.0;"/><line style="stroke:#181818;stroke-width:1.0;" x1="178.5" x2="178.5" y1="309.4688" y2="334.3867"/><polygon fill="#181818" points="174.5,324.3867,178.5,334.3867,182.5,324.3867,178.5,328.3867" style="stroke:#181818;stroke-width:1.0;"/><line style="stroke:#181818;stroke-width:1.0;" x1="284.5" x2="354.5" y1="297.4688" y2="297.4688"/><polygon fill="#181818" points="350.5,341.9336,354.5,351.9336,358.5,341.9336,354.5,345.9336" style="stroke:#181818;stroke-width:1.0;"/><line style="stroke:#181818;stroke-width:1.0;" x1="354.5" x2="354.5" y1="297.4688" y2="401.4805"/><line style="stroke:#181818;stroke-width:1.0;" x1="354.5" x2="190.5" y1="401.4805" y2="401.4805"/><polygon fill="#181818" points="200.5,397.4805,190.5,401.4805,200.5,405.4805,196.5,401.4805" style="stroke:#181818;stroke-width:1.0;"/><line style="stroke:#181818;stroke-width:1.0;" x1="178.5" x2="178.5" y1="369.4805" y2="389.4805"/><polygon fill="#181818" points="174.5,379.4805,178.5,389.4805,182.5,379.4805,178.5,383.4805" style="stroke:#181818;stroke-width:1.0;"/><line style="stroke:#181818;stroke-width:1.0;" x1="178.5" x2="178.5" y1="265.4688" y2="285.4688"/><polygon fill="#181818" points="174.5,275.4688,178.5,285.4688,182.5,275.4688,178.5,279.4688" style="stroke:#181818;stroke-width:1.0;"/><line style="stroke:#181818;stroke-width:1.0;" x1="178.5" x2="178.5" y1="413.4805" y2="433.4805"/><polygon fill="#181818" points="174.5,423.4805,178.5,433.4805,182.5,423.4805,178.5,427.4805" style="stroke:#181818;stroke-width:1.0;"/><line style="stroke:#181818;stroke-width:1.0;" x1="178.5" x2="178.5" y1="468.5742" y2="488.5742"/><polygon fill="#181818" points="174.5,478.5742,178.5,488.5742,182.5,478.5742,178.5,482.5742" style="stroke:#181818;stroke-width:1.0;"/><line style="stroke:#181818;stroke-width:1.0;" x1="178.5" x2="178.5" y1="642.7734" y2="662.7734"/><polygon fill="#181818" points="174.5,652.7734,178.5,662.7734,182.5,652.7734,178.5,656.7734" style="stroke:#181818;stroke-width:1.0;"/><line style="stroke:#181818;stroke-width:1.0;" x1="178.5" x2="178.5" y1="697.8672" y2="717.8672"/><polygon fill="#181818" points="174.5,707.8672,178.5,717.8672,182.5,707.8672,178.5,711.8672" style="stroke:#181818;stroke-width:1.0;"/><line style="stroke:#181818;stroke-width:1.0;" x1="178.5" x2="178.5" y1="752.9609" y2="772.9609"/><polygon fill="#181818" points="174.5,762.9609,178.5,772.9609,182.5,762.9609,178.5,766.9609" style="stroke:#181818;stroke-width:1.0;"/><line style="stroke:#181818;stroke-width:1.0;" x1="178.5" x2="178.5" y1="808.0547" y2="828.0547"/><polygon fill="#181818" points="174.5,818.0547,178.5,828.0547,182.5,818.0547,178.5,822.0547" style="stroke:#181818;stroke-width:1.0;"/><line style="stroke:#181818;stroke-width:1.0;" x1="178.5" x2="178.5" y1="567.668" y2="592.5859"/><polygon fill="#181818" points="174.5,582.5859,178.5,592.5859,182.5,582.5859,178.5,586.5859" style="stroke:#181818;stroke-width:1.0;"/><line style="stroke:#181818;stroke-width:1.0;" x1="269.5" x2="356" y1="555.668" y2="555.668"/><polygon fill="#181818" points="352,717.8672,356,727.8672,360,717.8672,356,721.8672" style="stroke:#181818;stroke-width:1.0;"/><line style="stroke:#181818;stroke-width:1.0;" x1="356" x2="356" y1="555.668" y2="895.1484"/><line style="stroke:#181818;stroke-width:1.0;" x1="356" x2="190.5" y1="895.1484" y2="895.1484"/><polygon fill="#181818" points="200.5,891.1484,190.5,895.1484,200.5,899.1484,196.5,895.1484" style="stroke:#181818;stroke-width:1.0;"/><line style="stroke:#181818;stroke-width:1.0;" x1="178.5" x2="178.5" y1="863.1484" y2="883.1484"/><polygon fill="#181818" points="174.5,873.1484,178.5,883.1484,182.5,873.1484,178.5,877.1484" style="stroke:#181818;stroke-width:1.0;"/><line style="stroke:#181818;stroke-width:1.0;" x1="178.5" x2="178.5" y1="523.668" y2="543.668"/><polygon fill="#181818" points="174.5,533.668,178.5,543.668,182.5,533.668,178.5,537.668" style="stroke:#181818;stroke-width:1.0;"/><line style="stroke:#181818;stroke-width:1.0;" x1="178.5" x2="178.5" y1="907.1484" y2="927.1484"/><polygon fill="#181818" points="174.5,917.1484,178.5,927.1484,182.5,917.1484,178.5,921.1484" style="stroke:#181818;stroke-width:1.0;"/><!--MD5=[49802ae63b7c64623a44613739753b3c]
@startuml
start

:Usuário acessa a seção "Notificações";
:Sistema exibe a lista de notificações com status:
- A serem feitas;
- Em andamento;
- Concluídas;
if (Usuário deseja filtrar notificações?) then (Sim)
    :Usuário aplica filtros (status, data, tipo de publicação);
endif
:Usuário seleciona uma notificação;
:Usuário visualiza os detalhes da notificação;
if (Usuário deseja alterar o status?) then (Sim)
    :Usuário altera o status para:
    - Concluída;
    - Em andamento;
    - A serem feitas;
    :Sistema atualiza o status e registra a data/hora;
    :Sistema exibe MSG13 ("Status atualizado com sucesso.");
endif

stop
@enduml

PlantUML version 1.2022.12(Sun Oct 23 15:12:26 BRT 2022)
(GPL source distribution)
Java Runtime: Java(TM) SE Runtime Environment
JVM: Java HotSpot(TM) 64-Bit Server VM
Default Encoding: Cp1252
Language: pt
Country: BR
--></g></svg>