<?xml version="1.0" encoding="UTF-8" standalone="no"?><svg xmlns="http://www.w3.org/2000/svg" xmlns:xlink="http://www.w3.org/1999/xlink" contentStyleType="text/css" height="757px" preserveAspectRatio="none" style="width:366px;height:757px;background:#FFFFFF;" version="1.1" viewBox="0 0 366 757" width="366px" zoomAndPan="magnify"><defs/><g><ellipse cx="183" cy="20" fill="#222222" rx="10" ry="10" style="stroke:#222222;stroke-width:1.0;"/><rect fill="#F1F1F1" height="35.0938" rx="12.5" ry="12.5" style="stroke:#181818;stroke-width:0.5;" width="344" x="11" y="50"/><text fill="#000000" font-family="sans-serif" font-size="12" lengthAdjust="spacing" textLength="324" x="21" y="72.457">Administrador acessa a opção "Painel de Produtividade"</text><rect fill="#F1F1F1" height="50.1875" rx="12.5" ry="12.5" style="stroke:#181818;stroke-width:0.5;" width="315" x="25.5" y="105.0938"/><text fill="#000000" font-family="sans-serif" font-size="12" lengthAdjust="spacing" textLength="295" x="35.5" y="127.5508">Sistema exibe gráficos e relatórios com indicadores:</text><text fill="#000000" font-family="sans-serif" font-size="12" lengthAdjust="spacing" textLength="138" x="35.5" y="142.6445">- Processos concluídos</text><rect fill="#F1F1F1" height="35.0938" rx="12.5" ry="12.5" style="stroke:#181818;stroke-width:0.5;" width="151" x="107.5" y="175.2813"/><text fill="#000000" font-family="sans-serif" font-size="12" lengthAdjust="spacing" textLength="128" x="120.5" y="197.7383">Audiências realizadas;</text><rect fill="#F1F1F1" height="35.0938" rx="12.5" ry="12.5" style="stroke:#181818;stroke-width:0.5;" width="130" x="118" y="230.375"/><text fill="#000000" font-family="sans-serif" font-size="12" lengthAdjust="spacing" textLength="107" x="131" y="252.832">Tarefas pendentes;</text><rect fill="#F1F1F1" height="50.1875" rx="12.5" ry="12.5" style="stroke:#181818;stroke-width:0.5;" width="204" x="81" y="285.4688"/><text fill="#000000" font-family="sans-serif" font-size="12" lengthAdjust="spacing" textLength="184" x="91" y="307.9258">Administrador pode aplicar filtros:</text><text fill="#000000" font-family="sans-serif" font-size="12" lengthAdjust="spacing" textLength="58" x="91" y="323.0195">- Período</text><rect fill="#F1F1F1" height="35.0938" rx="12.5" ry="12.5" style="stroke:#181818;stroke-width:0.5;" width="65" x="150.5" y="355.6563"/><text fill="#000000" font-family="sans-serif" font-size="12" lengthAdjust="spacing" textLength="42" x="163.5" y="378.1133">Equipe;</text><rect fill="#F1F1F1" height="35.0938" rx="12.5" ry="12.5" style="stroke:#181818;stroke-width:0.5;" width="140" x="113" y="410.75"/><text fill="#000000" font-family="sans-serif" font-size="12" lengthAdjust="spacing" textLength="117" x="126" y="433.207">Usuário específico;</text><rect fill="#F1F1F1" height="35.0938" rx="12.5" ry="12.5" style="stroke:#181818;stroke-width:0.5;" width="202" x="82" y="514.7617"/><text fill="#000000" font-family="sans-serif" font-size="12" lengthAdjust="spacing" textLength="182" x="92" y="537.2188">Administrador clica em "Exportar"</text><rect fill="#F1F1F1" height="35.0938" rx="12.5" ry="12.5" style="stroke:#181818;stroke-width:0.5;" width="200" x="83" y="569.8555"/><text fill="#000000" font-family="sans-serif" font-size="12" lengthAdjust="spacing" textLength="180" x="93" y="592.3125">Seleciona o formato (PDF, Excel)</text><rect fill="#F1F1F1" height="35.0938" rx="12.5" ry="12.5" style="stroke:#181818;stroke-width:0.5;" width="232" x="67" y="624.9492"/><text fill="#000000" font-family="sans-serif" font-size="12" lengthAdjust="spacing" textLength="212" x="77" y="647.4063">Sistema gera o arquivo para download</text><polygon fill="#F1F1F1" points="83,465.8438,283,465.8438,295,477.8438,283,489.8438,83,489.8438,71,477.8438,83,465.8438" style="stroke:#181818;stroke-width:0.5;"/><text fill="#000000" font-family="sans-serif" font-size="11" lengthAdjust="spacing" textLength="17" x="187" y="501.2627">Sim</text><text fill="#000000" font-family="sans-serif" font-size="11" lengthAdjust="spacing" textLength="200" x="83" y="482.3447">Administrador deseja exportar os dados?</text><polygon fill="#F1F1F1" points="183,680.043,195,692.043,183,704.043,171,692.043,183,680.043" style="stroke:#181818;stroke-width:0.5;"/><ellipse cx="183" cy="735.043" fill="none" rx="11" ry="11" style="stroke:#222222;stroke-width:1.0;"/><ellipse cx="183" cy="735.043" fill="#222222" rx="6" ry="6" style="stroke:#111111;stroke-width:1.0;"/><line style="stroke:#181818;stroke-width:1.0;" x1="183" x2="183" y1="30" y2="50"/><polygon fill="#181818" points="179,40,183,50,187,40,183,44" style="stroke:#181818;stroke-width:1.0;"/><line style="stroke:#181818;stroke-width:1.0;" x1="183" x2="183" y1="85.0938" y2="105.0938"/><polygon fill="#181818" points="179,95.0938,183,105.0938,187,95.0938,183,99.0938" style="stroke:#181818;stroke-width:1.0;"/><line style="stroke:#181818;stroke-width:1.0;" x1="183" x2="183" y1="155.2813" y2="175.2813"/><polygon fill="#181818" points="179,165.2813,183,175.2813,187,165.2813,183,169.2813" style="stroke:#181818;stroke-width:1.0;"/><line style="stroke:#181818;stroke-width:1.0;" x1="183" x2="183" y1="210.375" y2="230.375"/><polygon fill="#181818" points="179,220.375,183,230.375,187,220.375,183,224.375" style="stroke:#181818;stroke-width:1.0;"/><line style="stroke:#181818;stroke-width:1.0;" x1="183" x2="183" y1="265.4688" y2="285.4688"/><polygon fill="#181818" points="179,275.4688,183,285.4688,187,275.4688,183,279.4688" style="stroke:#181818;stroke-width:1.0;"/><line style="stroke:#181818;stroke-width:1.0;" x1="183" x2="183" y1="335.6563" y2="355.6563"/><polygon fill="#181818" points="179,345.6563,183,355.6563,187,345.6563,183,349.6563" style="stroke:#181818;stroke-width:1.0;"/><line style="stroke:#181818;stroke-width:1.0;" x1="183" x2="183" y1="390.75" y2="410.75"/><polygon fill="#181818" points="179,400.75,183,410.75,187,400.75,183,404.75" style="stroke:#181818;stroke-width:1.0;"/><line style="stroke:#181818;stroke-width:1.0;" x1="183" x2="183" y1="549.8555" y2="569.8555"/><polygon fill="#181818" points="179,559.8555,183,569.8555,187,559.8555,183,563.8555" style="stroke:#181818;stroke-width:1.0;"/><line style="stroke:#181818;stroke-width:1.0;" x1="183" x2="183" y1="604.9492" y2="624.9492"/><polygon fill="#181818" points="179,614.9492,183,624.9492,187,614.9492,183,618.9492" style="stroke:#181818;stroke-width:1.0;"/><line style="stroke:#181818;stroke-width:1.0;" x1="183" x2="183" y1="489.8438" y2="514.7617"/><polygon fill="#181818" points="179,504.7617,183,514.7617,187,504.7617,183,508.7617" style="stroke:#181818;stroke-width:1.0;"/><line style="stroke:#181818;stroke-width:1.0;" x1="295" x2="309" y1="477.8438" y2="477.8438"/><polygon fill="#181818" points="305,577.4023,309,587.4023,313,577.4023,309,581.4023" style="stroke:#181818;stroke-width:1.0;"/><line style="stroke:#181818;stroke-width:1.0;" x1="309" x2="309" y1="477.8438" y2="692.043"/><line style="stroke:#181818;stroke-width:1.0;" x1="309" x2="195" y1="692.043" y2="692.043"/><polygon fill="#181818" points="205,688.043,195,692.043,205,696.043,201,692.043" style="stroke:#181818;stroke-width:1.0;"/><line style="stroke:#181818;stroke-width:1.0;" x1="183" x2="183" y1="660.043" y2="680.043"/><polygon fill="#181818" points="179,670.043,183,680.043,187,670.043,183,674.043" style="stroke:#181818;stroke-width:1.0;"/><line style="stroke:#181818;stroke-width:1.0;" x1="183" x2="183" y1="445.8438" y2="465.8438"/><polygon fill="#181818" points="179,455.8438,183,465.8438,187,455.8438,183,459.8438" style="stroke:#181818;stroke-width:1.0;"/><line style="stroke:#181818;stroke-width:1.0;" x1="183" x2="183" y1="704.043" y2="724.043"/><polygon fill="#181818" points="179,714.043,183,724.043,187,714.043,183,718.043" style="stroke:#181818;stroke-width:1.0;"/><!--MD5=[c902b12e9912cda3b404d96812785f52]
@startuml
start

:Administrador acessa a opção "Painel de Produtividade";
:Sistema exibe gráficos e relatórios com indicadores:
- Processos concluídos;
- Audiências realizadas;
- Tarefas pendentes;
:Administrador pode aplicar filtros:
- Período;
- Equipe;
- Usuário específico;
if (Administrador deseja exportar os dados?) then (Sim)
    :Administrador clica em "Exportar";
    :Seleciona o formato (PDF, Excel);
    :Sistema gera o arquivo para download;
endif

stop
@enduml

PlantUML version 1.2022.12(Sun Oct 23 15:12:26 BRT 2022)
(GPL source distribution)
Java Runtime: Java(TM) SE Runtime Environment
JVM: Java HotSpot(TM) 64-Bit Server VM
Default Encoding: Cp1252
Language: pt
Country: BR
--></g></svg>