<?xml version="1.0" encoding="UTF-8" standalone="no"?><svg xmlns="http://www.w3.org/2000/svg" xmlns:xlink="http://www.w3.org/1999/xlink" contentStyleType="text/css" height="649px" preserveAspectRatio="none" style="width:349px;height:649px;background:#FFFFFF;" version="1.1" viewBox="0 0 349 649" width="349px" zoomAndPan="magnify"><defs/><g><ellipse cx="174.5" cy="20" fill="#222222" rx="10" ry="10" style="stroke:#222222;stroke-width:1.0;"/><rect fill="#F1F1F1" height="35.0938" rx="12.5" ry="12.5" style="stroke:#181818;stroke-width:0.5;" width="246" x="51.5" y="50"/><text fill="#000000" font-family="sans-serif" font-size="12" lengthAdjust="spacing" textLength="226" x="61.5" y="72.457">Administrador acessa o perfil do usuário</text><rect fill="#F1F1F1" height="35.0938" rx="12.5" ry="12.5" style="stroke:#181818;stroke-width:0.5;" width="212" x="68.5" y="105.0938"/><text fill="#000000" font-family="sans-serif" font-size="12" lengthAdjust="spacing" textLength="192" x="78.5" y="127.5508">Sistema exibe o histórico de faltas</text><rect fill="#F1F1F1" height="35.0938" rx="12.5" ry="12.5" style="stroke:#181818;stroke-width:0.5;" width="238" x="55.5" y="160.1875"/><text fill="#000000" font-family="sans-serif" font-size="12" lengthAdjust="spacing" textLength="218" x="65.5" y="182.6445">Administrador clica em "Registrar Falta"</text><rect fill="#F1F1F1" height="50.1875" rx="12.5" ry="12.5" style="stroke:#181818;stroke-width:0.5;" width="155" x="97" y="215.2813"/><text fill="#000000" font-family="sans-serif" font-size="12" lengthAdjust="spacing" textLength="135" x="107" y="237.7383">Administrador preenche:</text><text fill="#000000" font-family="sans-serif" font-size="12" lengthAdjust="spacing" textLength="33" x="107" y="252.832">- Data</text><rect fill="#F1F1F1" height="35.0938" rx="12.5" ry="12.5" style="stroke:#181818;stroke-width:0.5;" width="60" x="144.5" y="285.4688"/><text fill="#000000" font-family="sans-serif" font-size="12" lengthAdjust="spacing" textLength="37" x="157.5" y="307.9258">Motivo;</text><rect fill="#F1F1F1" height="35.0938" rx="12.5" ry="12.5" style="stroke:#181818;stroke-width:0.5;" width="114" x="117.5" y="340.5625"/><text fill="#000000" font-family="sans-serif" font-size="12" lengthAdjust="spacing" textLength="91" x="130.5" y="363.0195">Observações;</text><rect fill="#F1F1F1" height="35.0938" rx="12.5" ry="12.5" style="stroke:#181818;stroke-width:0.5;" width="191" x="79" y="395.6563"/><text fill="#000000" font-family="sans-serif" font-size="12" lengthAdjust="spacing" textLength="171" x="89" y="418.1133">Administrador clica em "Salvar"</text><rect fill="#F1F1F1" height="35.0938" rx="12.5" ry="12.5" style="stroke:#181818;stroke-width:0.5;" width="147" x="101" y="450.75"/><text fill="#000000" font-family="sans-serif" font-size="12" lengthAdjust="spacing" textLength="127" x="111" y="473.207">Sistema registra a falta</text><rect fill="#F1F1F1" height="35.0938" rx="12.5" ry="12.5" style="stroke:#181818;stroke-width:0.5;" width="207" x="71" y="505.8438"/><text fill="#000000" font-family="sans-serif" font-size="12" lengthAdjust="spacing" textLength="153" x="81" y="528.3008">Sistema notifica o usuário (</text><text fill="#000000" font-family="sans-serif" font-size="12" font-weight="bold" lengthAdjust="spacing" textLength="30" x="234" y="528.3008">RN20</text><text fill="#000000" font-family="sans-serif" font-size="12" lengthAdjust="spacing" textLength="4" x="264" y="528.3008">)</text><rect fill="#F1F1F1" height="35.0938" rx="12.5" ry="12.5" style="stroke:#181818;stroke-width:0.5;" width="327" x="11" y="560.9375"/><text fill="#000000" font-family="sans-serif" font-size="12" lengthAdjust="spacing" textLength="307" x="21" y="583.3945">Sistema exibe MSG18 ("Falta registrada com sucesso.")</text><ellipse cx="174.5" cy="627.0313" fill="none" rx="11" ry="11" style="stroke:#222222;stroke-width:1.0;"/><ellipse cx="174.5" cy="627.0313" fill="#222222" rx="6" ry="6" style="stroke:#111111;stroke-width:1.0;"/><line style="stroke:#181818;stroke-width:1.0;" x1="174.5" x2="174.5" y1="30" y2="50"/><polygon fill="#181818" points="170.5,40,174.5,50,178.5,40,174.5,44" style="stroke:#181818;stroke-width:1.0;"/><line style="stroke:#181818;stroke-width:1.0;" x1="174.5" x2="174.5" y1="85.0938" y2="105.0938"/><polygon fill="#181818" points="170.5,95.0938,174.5,105.0938,178.5,95.0938,174.5,99.0938" style="stroke:#181818;stroke-width:1.0;"/><line style="stroke:#181818;stroke-width:1.0;" x1="174.5" x2="174.5" y1="140.1875" y2="160.1875"/><polygon fill="#181818" points="170.5,150.1875,174.5,160.1875,178.5,150.1875,174.5,154.1875" style="stroke:#181818;stroke-width:1.0;"/><line style="stroke:#181818;stroke-width:1.0;" x1="174.5" x2="174.5" y1="195.2813" y2="215.2813"/><polygon fill="#181818" points="170.5,205.2813,174.5,215.2813,178.5,205.2813,174.5,209.2813" style="stroke:#181818;stroke-width:1.0;"/><line style="stroke:#181818;stroke-width:1.0;" x1="174.5" x2="174.5" y1="265.4688" y2="285.4688"/><polygon fill="#181818" points="170.5,275.4688,174.5,285.4688,178.5,275.4688,174.5,279.4688" style="stroke:#181818;stroke-width:1.0;"/><line style="stroke:#181818;stroke-width:1.0;" x1="174.5" x2="174.5" y1="320.5625" y2="340.5625"/><polygon fill="#181818" points="170.5,330.5625,174.5,340.5625,178.5,330.5625,174.5,334.5625" style="stroke:#181818;stroke-width:1.0;"/><line style="stroke:#181818;stroke-width:1.0;" x1="174.5" x2="174.5" y1="375.6563" y2="395.6563"/><polygon fill="#181818" points="170.5,385.6563,174.5,395.6563,178.5,385.6563,174.5,389.6563" style="stroke:#181818;stroke-width:1.0;"/><line style="stroke:#181818;stroke-width:1.0;" x1="174.5" x2="174.5" y1="430.75" y2="450.75"/><polygon fill="#181818" points="170.5,440.75,174.5,450.75,178.5,440.75,174.5,444.75" style="stroke:#181818;stroke-width:1.0;"/><line style="stroke:#181818;stroke-width:1.0;" x1="174.5" x2="174.5" y1="485.8438" y2="505.8438"/><polygon fill="#181818" points="170.5,495.8438,174.5,505.8438,178.5,495.8438,174.5,499.8438" style="stroke:#181818;stroke-width:1.0;"/><line style="stroke:#181818;stroke-width:1.0;" x1="174.5" x2="174.5" y1="540.9375" y2="560.9375"/><polygon fill="#181818" points="170.5,550.9375,174.5,560.9375,178.5,550.9375,174.5,554.9375" style="stroke:#181818;stroke-width:1.0;"/><line style="stroke:#181818;stroke-width:1.0;" x1="174.5" x2="174.5" y1="596.0313" y2="616.0313"/><polygon fill="#181818" points="170.5,606.0313,174.5,616.0313,178.5,606.0313,174.5,610.0313" style="stroke:#181818;stroke-width:1.0;"/><!--MD5=[be331b972e017ec415fcaa2841cb864d]
@startuml
start

:Administrador acessa o perfil do usuário;
:Sistema exibe o histórico de faltas;
:Administrador clica em "Registrar Falta";
:Administrador preenche:
- Data;
- Motivo;
- Observações;
:Administrador clica em "Salvar";
:Sistema registra a falta;
:Sistema notifica o usuário (**RN20**);
:Sistema exibe MSG18 ("Falta registrada com sucesso.");

stop
@enduml

PlantUML version 1.2022.12(Sun Oct 23 15:12:26 BRT 2022)
(GPL source distribution)
Java Runtime: Java(TM) SE Runtime Environment
JVM: Java HotSpot(TM) 64-Bit Server VM
Default Encoding: Cp1252
Language: pt
Country: BR
--></g></svg>