<?xml version="1.0" encoding="UTF-8" standalone="no"?><svg xmlns="http://www.w3.org/2000/svg" xmlns:xlink="http://www.w3.org/1999/xlink" contentStyleType="text/css" height="916px" preserveAspectRatio="none" style="width:1132px;height:916px;background:#FFFFFF;" version="1.1" viewBox="0 0 1132 916" width="1132px" zoomAndPan="magnify"><defs/><g><ellipse cx="667.875" cy="20" fill="#222222" rx="10" ry="10" style="stroke:#222222;stroke-width:1.0;"/><rect fill="#F1F1F1" height="35.0938" rx="12.5" ry="12.5" style="stroke:#181818;stroke-width:0.5;" width="506" x="414.875" y="50"/><text fill="#000000" font-family="sans-serif" font-size="12" lengthAdjust="spacing" textLength="486" x="424.875" y="72.457">Administrador acessa a opção "Cadastrar Funcionário" no menu de administração</text><rect fill="#F1F1F1" height="35.0938" rx="12.5" ry="12.5" style="stroke:#181818;stroke-width:0.5;" width="329" x="503.375" y="105.0938"/><text fill="#000000" font-family="sans-serif" font-size="12" lengthAdjust="spacing" textLength="309" x="513.375" y="127.5508">Sistema exibe o formulário de cadastro de funcionários</text><rect fill="#F1F1F1" height="50.1875" rx="12.5" ry="12.5" style="stroke:#181818;stroke-width:0.5;" width="293" x="521.375" y="160.1875"/><text fill="#000000" font-family="sans-serif" font-size="12" lengthAdjust="spacing" textLength="273" x="531.375" y="182.6445">Administrador preenche os campos obrigatórios:</text><text fill="#000000" font-family="sans-serif" font-size="12" lengthAdjust="spacing" textLength="41" x="531.375" y="197.7383">- Nome</text><rect fill="#F1F1F1" height="35.0938" rx="12.5" ry="12.5" style="stroke:#181818;stroke-width:0.5;" width="50" x="642.875" y="230.375"/><text fill="#000000" font-family="sans-serif" font-size="12" lengthAdjust="spacing" textLength="27" x="655.875" y="252.832">CPF;</text><rect fill="#F1F1F1" height="35.0938" rx="12.5" ry="12.5" style="stroke:#181818;stroke-width:0.5;" width="87" x="624.375" y="285.4688"/><text fill="#000000" font-family="sans-serif" font-size="12" lengthAdjust="spacing" textLength="64" x="637.375" y="307.9258">Endereço;</text><rect fill="#F1F1F1" height="35.0938" rx="12.5" ry="12.5" style="stroke:#181818;stroke-width:0.5;" width="137" x="599.375" y="340.5625"/><text fill="#000000" font-family="sans-serif" font-size="12" lengthAdjust="spacing" textLength="114" x="612.375" y="363.0195">Data de nascimento;</text><rect fill="#F1F1F1" height="35.0938" rx="12.5" ry="12.5" style="stroke:#181818;stroke-width:0.5;" width="74" x="630.875" y="395.6563"/><text fill="#000000" font-family="sans-serif" font-size="12" lengthAdjust="spacing" textLength="51" x="643.875" y="418.1133">Telefone;</text><rect fill="#F1F1F1" height="35.0938" rx="12.5" ry="12.5" style="stroke:#181818;stroke-width:0.5;" width="62" x="636.875" y="450.75"/><text fill="#000000" font-family="sans-serif" font-size="12" lengthAdjust="spacing" textLength="39" x="649.875" y="473.207">E-mail;</text><rect fill="#F1F1F1" height="35.0938" rx="12.5" ry="12.5" style="stroke:#181818;stroke-width:0.5;" width="191" x="572.375" y="505.8438"/><text fill="#000000" font-family="sans-serif" font-size="12" lengthAdjust="spacing" textLength="171" x="582.375" y="528.3008">Administrador clica em "Salvar"</text><rect fill="#F1F1F1" height="35.0938" rx="12.5" ry="12.5" style="stroke:#181818;stroke-width:0.5;" width="260" x="537.875" y="560.9375"/><text fill="#000000" font-family="sans-serif" font-size="12" lengthAdjust="spacing" textLength="240" x="547.875" y="583.3945">Sistema valida as informações inseridas</text><polygon fill="#F1F1F1" points="628.875,616.0313,706.875,616.0313,718.875,628.0313,706.875,640.0313,628.875,640.0313,616.875,628.0313,628.875,616.0313" style="stroke:#181818;stroke-width:0.5;"/><text fill="#000000" font-family="sans-serif" font-size="11" lengthAdjust="spacing" textLength="78" x="628.875" y="632.5322">Dados válidos?</text><text fill="#000000" font-family="sans-serif" font-size="11" lengthAdjust="spacing" textLength="17" x="599.875" y="625.6143">Sim</text><text fill="#000000" font-family="sans-serif" font-size="11" lengthAdjust="spacing" textLength="27" x="718.875" y="625.6143">Não</text><rect fill="#F1F1F1" height="35.0938" rx="12.5" ry="12.5" style="stroke:#181818;stroke-width:0.5;" width="272" x="250.25" y="650.0313"/><text fill="#000000" font-family="sans-serif" font-size="12" lengthAdjust="spacing" textLength="252" x="260.25" y="672.4883">Sistema verifica se o CPF já está cadastrado</text><polygon fill="#F1F1F1" points="337.25,705.125,435.25,705.125,447.25,717.125,435.25,729.125,337.25,729.125,325.25,717.125,337.25,705.125" style="stroke:#181818;stroke-width:0.5;"/><text fill="#000000" font-family="sans-serif" font-size="11" lengthAdjust="spacing" textLength="98" x="337.25" y="721.626">CPF já cadastrado?</text><text fill="#000000" font-family="sans-serif" font-size="11" lengthAdjust="spacing" textLength="17" x="308.25" y="714.708">Sim</text><text fill="#000000" font-family="sans-serif" font-size="11" lengthAdjust="spacing" textLength="27" x="447.25" y="714.708">Não</text><rect fill="#F1F1F1" height="35.0938" rx="12.5" ry="12.5" style="stroke:#181818;stroke-width:0.5;" width="372" x="11" y="739.125"/><text fill="#000000" font-family="sans-serif" font-size="12" lengthAdjust="spacing" textLength="352" x="21" y="761.582">Sistema exibe MSG07 ("Usuário já cadastrado com este CPF.")</text><ellipse cx="197" cy="805.2188" fill="none" rx="11" ry="11" style="stroke:#222222;stroke-width:1.0;"/><ellipse cx="197" cy="805.2188" fill="#222222" rx="6" ry="6" style="stroke:#111111;stroke-width:1.0;"/><rect fill="#F1F1F1" height="35.0938" rx="12.5" ry="12.5" style="stroke:#181818;stroke-width:0.5;" width="326" x="412.5" y="739.125"/><text fill="#000000" font-family="sans-serif" font-size="12" lengthAdjust="spacing" textLength="306" x="422.5" y="761.582">Sistema registra o novo funcionário no banco de dados</text><rect fill="#F1F1F1" height="35.0938" rx="12.5" ry="12.5" style="stroke:#181818;stroke-width:0.5;" width="345" x="403" y="794.2188"/><text fill="#000000" font-family="sans-serif" font-size="12" lengthAdjust="spacing" textLength="325" x="413" y="816.6758">Sistema exibe MSG06 ("Cadastro realizado com sucesso.")</text><rect fill="#F1F1F1" height="35.0938" rx="12.5" ry="12.5" style="stroke:#181818;stroke-width:0.5;" width="343" x="778" y="650.0313"/><text fill="#000000" font-family="sans-serif" font-size="12" lengthAdjust="spacing" textLength="323" x="788" y="672.4883">Sistema exibe MSG05 ("Dados inválidos ou incompletos.")</text><rect fill="#F1F1F1" height="35.0938" rx="12.5" ry="12.5" style="stroke:#181818;stroke-width:0.5;" width="211" x="844" y="705.125"/><text fill="#000000" font-family="sans-serif" font-size="12" lengthAdjust="spacing" textLength="191" x="854" y="727.582">Retorna ao formulário de cadastro</text><polygon fill="#F1F1F1" points="667.875,839.3125,679.875,851.3125,667.875,863.3125,655.875,851.3125,667.875,839.3125" style="stroke:#181818;stroke-width:0.5;"/><ellipse cx="667.875" cy="894.3125" fill="none" rx="11" ry="11" style="stroke:#222222;stroke-width:1.0;"/><ellipse cx="667.875" cy="894.3125" fill="#222222" rx="6" ry="6" style="stroke:#111111;stroke-width:1.0;"/><line style="stroke:#181818;stroke-width:1.0;" x1="667.875" x2="667.875" y1="30" y2="50"/><polygon fill="#181818" points="663.875,40,667.875,50,671.875,40,667.875,44" style="stroke:#181818;stroke-width:1.0;"/><line style="stroke:#181818;stroke-width:1.0;" x1="667.875" x2="667.875" y1="85.0938" y2="105.0938"/><polygon fill="#181818" points="663.875,95.0938,667.875,105.0938,671.875,95.0938,667.875,99.0938" style="stroke:#181818;stroke-width:1.0;"/><line style="stroke:#181818;stroke-width:1.0;" x1="667.875" x2="667.875" y1="140.1875" y2="160.1875"/><polygon fill="#181818" points="663.875,150.1875,667.875,160.1875,671.875,150.1875,667.875,154.1875" style="stroke:#181818;stroke-width:1.0;"/><line style="stroke:#181818;stroke-width:1.0;" x1="667.875" x2="667.875" y1="210.375" y2="230.375"/><polygon fill="#181818" points="663.875,220.375,667.875,230.375,671.875,220.375,667.875,224.375" style="stroke:#181818;stroke-width:1.0;"/><line style="stroke:#181818;stroke-width:1.0;" x1="667.875" x2="667.875" y1="265.4688" y2="285.4688"/><polygon fill="#181818" points="663.875,275.4688,667.875,285.4688,671.875,275.4688,667.875,279.4688" style="stroke:#181818;stroke-width:1.0;"/><line style="stroke:#181818;stroke-width:1.0;" x1="667.875" x2="667.875" y1="320.5625" y2="340.5625"/><polygon fill="#181818" points="663.875,330.5625,667.875,340.5625,671.875,330.5625,667.875,334.5625" style="stroke:#181818;stroke-width:1.0;"/><line style="stroke:#181818;stroke-width:1.0;" x1="667.875" x2="667.875" y1="375.6563" y2="395.6563"/><polygon fill="#181818" points="663.875,385.6563,667.875,395.6563,671.875,385.6563,667.875,389.6563" style="stroke:#181818;stroke-width:1.0;"/><line style="stroke:#181818;stroke-width:1.0;" x1="667.875" x2="667.875" y1="430.75" y2="450.75"/><polygon fill="#181818" points="663.875,440.75,667.875,450.75,671.875,440.75,667.875,444.75" style="stroke:#181818;stroke-width:1.0;"/><line style="stroke:#181818;stroke-width:1.0;" x1="667.875" x2="667.875" y1="485.8438" y2="505.8438"/><polygon fill="#181818" points="663.875,495.8438,667.875,505.8438,671.875,495.8438,667.875,499.8438" style="stroke:#181818;stroke-width:1.0;"/><line style="stroke:#181818;stroke-width:1.0;" x1="667.875" x2="667.875" y1="540.9375" y2="560.9375"/><polygon fill="#181818" points="663.875,550.9375,667.875,560.9375,671.875,550.9375,667.875,554.9375" style="stroke:#181818;stroke-width:1.0;"/><line style="stroke:#181818;stroke-width:1.0;" x1="197" x2="197" y1="774.2188" y2="794.2188"/><polygon fill="#181818" points="193,784.2188,197,794.2188,201,784.2188,197,788.2188" style="stroke:#181818;stroke-width:1.0;"/><line style="stroke:#181818;stroke-width:1.0;" x1="575.5" x2="575.5" y1="774.2188" y2="794.2188"/><polygon fill="#181818" points="571.5,784.2188,575.5,794.2188,579.5,784.2188,575.5,788.2188" style="stroke:#181818;stroke-width:1.0;"/><line style="stroke:#181818;stroke-width:1.0;" x1="325.25" x2="197" y1="717.125" y2="717.125"/><line style="stroke:#181818;stroke-width:1.0;" x1="197" x2="197" y1="717.125" y2="739.125"/><polygon fill="#181818" points="193,729.125,197,739.125,201,729.125,197,733.125" style="stroke:#181818;stroke-width:1.0;"/><line style="stroke:#181818;stroke-width:1.0;" x1="447.25" x2="575.5" y1="717.125" y2="717.125"/><line style="stroke:#181818;stroke-width:1.0;" x1="575.5" x2="575.5" y1="717.125" y2="739.125"/><polygon fill="#181818" points="571.5,729.125,575.5,739.125,579.5,729.125,575.5,733.125" style="stroke:#181818;stroke-width:1.0;"/><line style="stroke:#181818;stroke-width:1.0;" x1="575.5" x2="575.5" y1="829.3125" y2="851.3125"/><line style="stroke:#181818;stroke-width:1.0;" x1="575.5" x2="655.875" y1="851.3125" y2="851.3125"/><polygon fill="#181818" points="645.875,847.3125,655.875,851.3125,645.875,855.3125,649.875,851.3125" style="stroke:#181818;stroke-width:1.0;"/><line style="stroke:#181818;stroke-width:1.0;" x1="386.25" x2="386.25" y1="685.125" y2="705.125"/><polygon fill="#181818" points="382.25,695.125,386.25,705.125,390.25,695.125,386.25,699.125" style="stroke:#181818;stroke-width:1.0;"/><line style="stroke:#181818;stroke-width:1.0;" x1="949.5" x2="949.5" y1="685.125" y2="705.125"/><polygon fill="#181818" points="945.5,695.125,949.5,705.125,953.5,695.125,949.5,699.125" style="stroke:#181818;stroke-width:1.0;"/><line style="stroke:#181818;stroke-width:1.0;" x1="616.875" x2="386.25" y1="628.0313" y2="628.0313"/><line style="stroke:#181818;stroke-width:1.0;" x1="386.25" x2="386.25" y1="628.0313" y2="650.0313"/><polygon fill="#181818" points="382.25,640.0313,386.25,650.0313,390.25,640.0313,386.25,644.0313" style="stroke:#181818;stroke-width:1.0;"/><line style="stroke:#181818;stroke-width:1.0;" x1="718.875" x2="949.5" y1="628.0313" y2="628.0313"/><line style="stroke:#181818;stroke-width:1.0;" x1="949.5" x2="949.5" y1="628.0313" y2="650.0313"/><polygon fill="#181818" points="945.5,640.0313,949.5,650.0313,953.5,640.0313,949.5,644.0313" style="stroke:#181818;stroke-width:1.0;"/><line style="stroke:#181818;stroke-width:1.0;" x1="949.5" x2="949.5" y1="740.2188" y2="851.3125"/><line style="stroke:#181818;stroke-width:1.0;" x1="949.5" x2="679.875" y1="851.3125" y2="851.3125"/><polygon fill="#181818" points="689.875,847.3125,679.875,851.3125,689.875,855.3125,685.875,851.3125" style="stroke:#181818;stroke-width:1.0;"/><line style="stroke:#181818;stroke-width:1.0;" x1="667.875" x2="667.875" y1="596.0313" y2="616.0313"/><polygon fill="#181818" points="663.875,606.0313,667.875,616.0313,671.875,606.0313,667.875,610.0313" style="stroke:#181818;stroke-width:1.0;"/><line style="stroke:#181818;stroke-width:1.0;" x1="667.875" x2="667.875" y1="863.3125" y2="883.3125"/><polygon fill="#181818" points="663.875,873.3125,667.875,883.3125,671.875,873.3125,667.875,877.3125" style="stroke:#181818;stroke-width:1.0;"/><!--MD5=[593db32fb15d5d41b67b68dc4223cc44]
@startuml
start

:Administrador acessa a opção "Cadastrar Funcionário" no menu de administração;

:Sistema exibe o formulário de cadastro de funcionários;

:Administrador preenche os campos obrigatórios:
- Nome;
- CPF;
- Endereço;
- Data de nascimento;
- Telefone;
- E-mail;

:Administrador clica em "Salvar";

:Sistema valida as informações inseridas;

if (Dados válidos?) then (Sim)
    :Sistema verifica se o CPF já está cadastrado;
    if (CPF já cadastrado?) then (Sim)
        :Sistema exibe MSG07 ("Usuário já cadastrado com este CPF.");
        stop
    else (Não)
        :Sistema registra o novo funcionário no banco de dados;
        :Sistema exibe MSG06 ("Cadastro realizado com sucesso.");
    endif
else (Não)
    :Sistema exibe MSG05 ("Dados inválidos ou incompletos.");
    :Retorna ao formulário de cadastro;
endif

stop
@enduml

PlantUML version 1.2022.12(Sun Oct 23 15:12:26 BRT 2022)
(GPL source distribution)
Java Runtime: Java(TM) SE Runtime Environment
JVM: Java HotSpot(TM) 64-Bit Server VM
Default Encoding: Cp1252
Language: pt
Country: BR
--></g></svg>