<?xml version="1.0" encoding="UTF-8" standalone="no"?><svg xmlns="http://www.w3.org/2000/svg" xmlns:xlink="http://www.w3.org/1999/xlink" contentStyleType="text/css" height="971px" preserveAspectRatio="none" style="width:1159px;height:971px;background:#FFFFFF;" version="1.1" viewBox="0 0 1159 971" width="1159px" zoomAndPan="magnify"><defs/><g><ellipse cx="691.5" cy="20" fill="#222222" rx="10" ry="10" style="stroke:#222222;stroke-width:1.0;"/><rect fill="#F1F1F1" height="35.0938" rx="12.5" ry="12.5" style="stroke:#181818;stroke-width:0.5;" width="492" x="445.5" y="50"/><text fill="#000000" font-family="sans-serif" font-size="12" lengthAdjust="spacing" textLength="472" x="455.5" y="72.457">Administrador acessa a opção "Cadastrar Advogado" no menu de administração</text><rect fill="#F1F1F1" height="35.0938" rx="12.5" ry="12.5" style="stroke:#181818;stroke-width:0.5;" width="319" x="532" y="105.0938"/><text fill="#000000" font-family="sans-serif" font-size="12" lengthAdjust="spacing" textLength="299" x="542" y="127.5508">Sistema exibe o formulário de cadastro de advogados</text><rect fill="#F1F1F1" height="50.1875" rx="12.5" ry="12.5" style="stroke:#181818;stroke-width:0.5;" width="293" x="545" y="160.1875"/><text fill="#000000" font-family="sans-serif" font-size="12" lengthAdjust="spacing" textLength="273" x="555" y="182.6445">Administrador preenche os campos obrigatórios:</text><text fill="#000000" font-family="sans-serif" font-size="12" lengthAdjust="spacing" textLength="41" x="555" y="197.7383">- Nome</text><rect fill="#F1F1F1" height="35.0938" rx="12.5" ry="12.5" style="stroke:#181818;stroke-width:0.5;" width="50" x="666.5" y="230.375"/><text fill="#000000" font-family="sans-serif" font-size="12" lengthAdjust="spacing" textLength="27" x="679.5" y="252.832">CPF;</text><rect fill="#F1F1F1" height="35.0938" rx="12.5" ry="12.5" style="stroke:#181818;stroke-width:0.5;" width="50" x="666.5" y="285.4688"/><text fill="#000000" font-family="sans-serif" font-size="12" lengthAdjust="spacing" textLength="27" x="679.5" y="307.9258">OAB;</text><rect fill="#F1F1F1" height="35.0938" rx="12.5" ry="12.5" style="stroke:#181818;stroke-width:0.5;" width="87" x="648" y="340.5625"/><text fill="#000000" font-family="sans-serif" font-size="12" lengthAdjust="spacing" textLength="64" x="661" y="363.0195">Endereço;</text><rect fill="#F1F1F1" height="35.0938" rx="12.5" ry="12.5" style="stroke:#181818;stroke-width:0.5;" width="137" x="623" y="395.6563"/><text fill="#000000" font-family="sans-serif" font-size="12" lengthAdjust="spacing" textLength="114" x="636" y="418.1133">Data de nascimento;</text><rect fill="#F1F1F1" height="35.0938" rx="12.5" ry="12.5" style="stroke:#181818;stroke-width:0.5;" width="74" x="654.5" y="450.75"/><text fill="#000000" font-family="sans-serif" font-size="12" lengthAdjust="spacing" textLength="51" x="667.5" y="473.207">Telefone;</text><rect fill="#F1F1F1" height="35.0938" rx="12.5" ry="12.5" style="stroke:#181818;stroke-width:0.5;" width="62" x="660.5" y="505.8438"/><text fill="#000000" font-family="sans-serif" font-size="12" lengthAdjust="spacing" textLength="39" x="673.5" y="528.3008">E-mail;</text><rect fill="#F1F1F1" height="35.0938" rx="12.5" ry="12.5" style="stroke:#181818;stroke-width:0.5;" width="191" x="596" y="560.9375"/><text fill="#000000" font-family="sans-serif" font-size="12" lengthAdjust="spacing" textLength="171" x="606" y="583.3945">Administrador clica em "Salvar"</text><rect fill="#F1F1F1" height="35.0938" rx="12.5" ry="12.5" style="stroke:#181818;stroke-width:0.5;" width="260" x="561.5" y="616.0313"/><text fill="#000000" font-family="sans-serif" font-size="12" lengthAdjust="spacing" textLength="240" x="571.5" y="638.4883">Sistema valida as informações inseridas</text><polygon fill="#F1F1F1" points="652.5,671.125,730.5,671.125,742.5,683.125,730.5,695.125,652.5,695.125,640.5,683.125,652.5,671.125" style="stroke:#181818;stroke-width:0.5;"/><text fill="#000000" font-family="sans-serif" font-size="11" lengthAdjust="spacing" textLength="78" x="652.5" y="687.626">Dados válidos?</text><text fill="#000000" font-family="sans-serif" font-size="11" lengthAdjust="spacing" textLength="17" x="623.5" y="680.708">Sim</text><text fill="#000000" font-family="sans-serif" font-size="11" lengthAdjust="spacing" textLength="27" x="742.5" y="680.708">Não</text><rect fill="#F1F1F1" height="35.0938" rx="12.5" ry="12.5" style="stroke:#181818;stroke-width:0.5;" width="324" x="244.5" y="705.125"/><text fill="#000000" font-family="sans-serif" font-size="12" lengthAdjust="spacing" textLength="304" x="254.5" y="727.582">Sistema verifica se CPF ou OAB já estão cadastrados</text><polygon fill="#F1F1F1" points="334,760.2188,479,760.2188,491,772.2188,479,784.2188,334,784.2188,322,772.2188,334,760.2188" style="stroke:#181818;stroke-width:0.5;"/><text fill="#000000" font-family="sans-serif" font-size="11" lengthAdjust="spacing" textLength="145" x="334" y="776.7197">CPF ou OAB já cadastrados?</text><text fill="#000000" font-family="sans-serif" font-size="11" lengthAdjust="spacing" textLength="17" x="305" y="769.8018">Sim</text><text fill="#000000" font-family="sans-serif" font-size="11" lengthAdjust="spacing" textLength="27" x="491" y="769.8018">Não</text><rect fill="#F1F1F1" height="35.0938" rx="12.5" ry="12.5" style="stroke:#181818;stroke-width:0.5;" width="399" x="11" y="794.2188"/><text fill="#000000" font-family="sans-serif" font-size="12" lengthAdjust="spacing" textLength="379" x="21" y="816.6758">Sistema exibe MSG07 ("Usuário já cadastrado com este CPF/OAB.")</text><ellipse cx="210.5" cy="860.3125" fill="none" rx="11" ry="11" style="stroke:#222222;stroke-width:1.0;"/><ellipse cx="210.5" cy="860.3125" fill="#222222" rx="6" ry="6" style="stroke:#111111;stroke-width:1.0;"/><rect fill="#F1F1F1" height="35.0938" rx="12.5" ry="12.5" style="stroke:#181818;stroke-width:0.5;" width="316" x="444.5" y="794.2188"/><text fill="#000000" font-family="sans-serif" font-size="12" lengthAdjust="spacing" textLength="296" x="454.5" y="816.6758">Sistema registra o novo advogado no banco de dados</text><rect fill="#F1F1F1" height="35.0938" rx="12.5" ry="12.5" style="stroke:#181818;stroke-width:0.5;" width="345" x="430" y="849.3125"/><text fill="#000000" font-family="sans-serif" font-size="12" lengthAdjust="spacing" textLength="325" x="440" y="871.7695">Sistema exibe MSG06 ("Cadastro realizado com sucesso.")</text><rect fill="#F1F1F1" height="35.0938" rx="12.5" ry="12.5" style="stroke:#181818;stroke-width:0.5;" width="343" x="805" y="705.125"/><text fill="#000000" font-family="sans-serif" font-size="12" lengthAdjust="spacing" textLength="323" x="815" y="727.582">Sistema exibe MSG05 ("Dados inválidos ou incompletos.")</text><rect fill="#F1F1F1" height="35.0938" rx="12.5" ry="12.5" style="stroke:#181818;stroke-width:0.5;" width="211" x="871" y="760.2188"/><text fill="#000000" font-family="sans-serif" font-size="12" lengthAdjust="spacing" textLength="191" x="881" y="782.6758">Retorna ao formulário de cadastro</text><polygon fill="#F1F1F1" points="691.5,894.4063,703.5,906.4063,691.5,918.4063,679.5,906.4063,691.5,894.4063" style="stroke:#181818;stroke-width:0.5;"/><ellipse cx="691.5" cy="949.4063" fill="none" rx="11" ry="11" style="stroke:#222222;stroke-width:1.0;"/><ellipse cx="691.5" cy="949.4063" fill="#222222" rx="6" ry="6" style="stroke:#111111;stroke-width:1.0;"/><line style="stroke:#181818;stroke-width:1.0;" x1="691.5" x2="691.5" y1="30" y2="50"/><polygon fill="#181818" points="687.5,40,691.5,50,695.5,40,691.5,44" style="stroke:#181818;stroke-width:1.0;"/><line style="stroke:#181818;stroke-width:1.0;" x1="691.5" x2="691.5" y1="85.0938" y2="105.0938"/><polygon fill="#181818" points="687.5,95.0938,691.5,105.0938,695.5,95.0938,691.5,99.0938" style="stroke:#181818;stroke-width:1.0;"/><line style="stroke:#181818;stroke-width:1.0;" x1="691.5" x2="691.5" y1="140.1875" y2="160.1875"/><polygon fill="#181818" points="687.5,150.1875,691.5,160.1875,695.5,150.1875,691.5,154.1875" style="stroke:#181818;stroke-width:1.0;"/><line style="stroke:#181818;stroke-width:1.0;" x1="691.5" x2="691.5" y1="210.375" y2="230.375"/><polygon fill="#181818" points="687.5,220.375,691.5,230.375,695.5,220.375,691.5,224.375" style="stroke:#181818;stroke-width:1.0;"/><line style="stroke:#181818;stroke-width:1.0;" x1="691.5" x2="691.5" y1="265.4688" y2="285.4688"/><polygon fill="#181818" points="687.5,275.4688,691.5,285.4688,695.5,275.4688,691.5,279.4688" style="stroke:#181818;stroke-width:1.0;"/><line style="stroke:#181818;stroke-width:1.0;" x1="691.5" x2="691.5" y1="320.5625" y2="340.5625"/><polygon fill="#181818" points="687.5,330.5625,691.5,340.5625,695.5,330.5625,691.5,334.5625" style="stroke:#181818;stroke-width:1.0;"/><line style="stroke:#181818;stroke-width:1.0;" x1="691.5" x2="691.5" y1="375.6563" y2="395.6563"/><polygon fill="#181818" points="687.5,385.6563,691.5,395.6563,695.5,385.6563,691.5,389.6563" style="stroke:#181818;stroke-width:1.0;"/><line style="stroke:#181818;stroke-width:1.0;" x1="691.5" x2="691.5" y1="430.75" y2="450.75"/><polygon fill="#181818" points="687.5,440.75,691.5,450.75,695.5,440.75,691.5,444.75" style="stroke:#181818;stroke-width:1.0;"/><line style="stroke:#181818;stroke-width:1.0;" x1="691.5" x2="691.5" y1="485.8438" y2="505.8438"/><polygon fill="#181818" points="687.5,495.8438,691.5,505.8438,695.5,495.8438,691.5,499.8438" style="stroke:#181818;stroke-width:1.0;"/><line style="stroke:#181818;stroke-width:1.0;" x1="691.5" x2="691.5" y1="540.9375" y2="560.9375"/><polygon fill="#181818" points="687.5,550.9375,691.5,560.9375,695.5,550.9375,691.5,554.9375" style="stroke:#181818;stroke-width:1.0;"/><line style="stroke:#181818;stroke-width:1.0;" x1="691.5" x2="691.5" y1="596.0313" y2="616.0313"/><polygon fill="#181818" points="687.5,606.0313,691.5,616.0313,695.5,606.0313,691.5,610.0313" style="stroke:#181818;stroke-width:1.0;"/><line style="stroke:#181818;stroke-width:1.0;" x1="210.5" x2="210.5" y1="829.3125" y2="849.3125"/><polygon fill="#181818" points="206.5,839.3125,210.5,849.3125,214.5,839.3125,210.5,843.3125" style="stroke:#181818;stroke-width:1.0;"/><line style="stroke:#181818;stroke-width:1.0;" x1="602.5" x2="602.5" y1="829.3125" y2="849.3125"/><polygon fill="#181818" points="598.5,839.3125,602.5,849.3125,606.5,839.3125,602.5,843.3125" style="stroke:#181818;stroke-width:1.0;"/><line style="stroke:#181818;stroke-width:1.0;" x1="322" x2="210.5" y1="772.2188" y2="772.2188"/><line style="stroke:#181818;stroke-width:1.0;" x1="210.5" x2="210.5" y1="772.2188" y2="794.2188"/><polygon fill="#181818" points="206.5,784.2188,210.5,794.2188,214.5,784.2188,210.5,788.2188" style="stroke:#181818;stroke-width:1.0;"/><line style="stroke:#181818;stroke-width:1.0;" x1="491" x2="602.5" y1="772.2188" y2="772.2188"/><line style="stroke:#181818;stroke-width:1.0;" x1="602.5" x2="602.5" y1="772.2188" y2="794.2188"/><polygon fill="#181818" points="598.5,784.2188,602.5,794.2188,606.5,784.2188,602.5,788.2188" style="stroke:#181818;stroke-width:1.0;"/><line style="stroke:#181818;stroke-width:1.0;" x1="602.5" x2="602.5" y1="884.4063" y2="906.4063"/><line style="stroke:#181818;stroke-width:1.0;" x1="602.5" x2="679.5" y1="906.4063" y2="906.4063"/><polygon fill="#181818" points="669.5,902.4063,679.5,906.4063,669.5,910.4063,673.5,906.4063" style="stroke:#181818;stroke-width:1.0;"/><line style="stroke:#181818;stroke-width:1.0;" x1="406.5" x2="406.5" y1="740.2188" y2="760.2188"/><polygon fill="#181818" points="402.5,750.2188,406.5,760.2188,410.5,750.2188,406.5,754.2188" style="stroke:#181818;stroke-width:1.0;"/><line style="stroke:#181818;stroke-width:1.0;" x1="976.5" x2="976.5" y1="740.2188" y2="760.2188"/><polygon fill="#181818" points="972.5,750.2188,976.5,760.2188,980.5,750.2188,976.5,754.2188" style="stroke:#181818;stroke-width:1.0;"/><line style="stroke:#181818;stroke-width:1.0;" x1="640.5" x2="406.5" y1="683.125" y2="683.125"/><line style="stroke:#181818;stroke-width:1.0;" x1="406.5" x2="406.5" y1="683.125" y2="705.125"/><polygon fill="#181818" points="402.5,695.125,406.5,705.125,410.5,695.125,406.5,699.125" style="stroke:#181818;stroke-width:1.0;"/><line style="stroke:#181818;stroke-width:1.0;" x1="742.5" x2="976.5" y1="683.125" y2="683.125"/><line style="stroke:#181818;stroke-width:1.0;" x1="976.5" x2="976.5" y1="683.125" y2="705.125"/><polygon fill="#181818" points="972.5,695.125,976.5,705.125,980.5,695.125,976.5,699.125" style="stroke:#181818;stroke-width:1.0;"/><line style="stroke:#181818;stroke-width:1.0;" x1="976.5" x2="976.5" y1="795.3125" y2="906.4063"/><line style="stroke:#181818;stroke-width:1.0;" x1="976.5" x2="703.5" y1="906.4063" y2="906.4063"/><polygon fill="#181818" points="713.5,902.4063,703.5,906.4063,713.5,910.4063,709.5,906.4063" style="stroke:#181818;stroke-width:1.0;"/><line style="stroke:#181818;stroke-width:1.0;" x1="691.5" x2="691.5" y1="651.125" y2="671.125"/><polygon fill="#181818" points="687.5,661.125,691.5,671.125,695.5,661.125,691.5,665.125" style="stroke:#181818;stroke-width:1.0;"/><line style="stroke:#181818;stroke-width:1.0;" x1="691.5" x2="691.5" y1="918.4063" y2="938.4063"/><polygon fill="#181818" points="687.5,928.4063,691.5,938.4063,695.5,928.4063,691.5,932.4063" style="stroke:#181818;stroke-width:1.0;"/><!--MD5=[588b0ffd981b68bb6688589c2b38048c]
@startuml
start

:Administrador acessa a opção "Cadastrar Advogado" no menu de administração;

:Sistema exibe o formulário de cadastro de advogados;

:Administrador preenche os campos obrigatórios:
- Nome;
- CPF;
- OAB;
- Endereço;
- Data de nascimento;
- Telefone;
- E-mail;

:Administrador clica em "Salvar";

:Sistema valida as informações inseridas;

if (Dados válidos?) then (Sim)
    :Sistema verifica se CPF ou OAB já estão cadastrados;
    if (CPF ou OAB já cadastrados?) then (Sim)
        :Sistema exibe MSG07 ("Usuário já cadastrado com este CPF/OAB.");
        stop
    else (Não)
        :Sistema registra o novo advogado no banco de dados;
        :Sistema exibe MSG06 ("Cadastro realizado com sucesso.");
    endif
else (Não)
    :Sistema exibe MSG05 ("Dados inválidos ou incompletos.");
    :Retorna ao formulário de cadastro;
endif

stop
@enduml

PlantUML version 1.2022.12(Sun Oct 23 15:12:26 BRT 2022)
(GPL source distribution)
Java Runtime: Java(TM) SE Runtime Environment
JVM: Java HotSpot(TM) 64-Bit Server VM
Default Encoding: Cp1252
Language: pt
Country: BR
--></g></svg>