<?xml version="1.0" encoding="UTF-8" standalone="no"?><svg xmlns="http://www.w3.org/2000/svg" xmlns:xlink="http://www.w3.org/1999/xlink" contentStyleType="text/css" height="538px" preserveAspectRatio="none" style="width:466px;height:538px;background:#FFFFFF;" version="1.1" viewBox="0 0 466 538" width="466px" zoomAndPan="magnify"><defs/><g><ellipse cx="233" cy="20" fill="#222222" rx="10" ry="10" style="stroke:#222222;stroke-width:1.0;"/><rect fill="#F1F1F1" height="35.0938" rx="12.5" ry="12.5" style="stroke:#181818;stroke-width:0.5;" width="257" x="104.5" y="50"/><text fill="#000000" font-family="sans-serif" font-size="12" lengthAdjust="spacing" textLength="237" x="114.5" y="72.457">Administrador acessa a opção "Suporte"</text><rect fill="#F1F1F1" height="35.0938" rx="12.5" ry="12.5" style="stroke:#181818;stroke-width:0.5;" width="315" x="75.5" y="105.0938"/><text fill="#000000" font-family="sans-serif" font-size="12" lengthAdjust="spacing" textLength="295" x="85.5" y="127.5508">Sistema exibe o formulário de abertura de chamados</text><rect fill="#F1F1F1" height="50.1875" rx="12.5" ry="12.5" style="stroke:#181818;stroke-width:0.5;" width="220" x="123" y="160.1875"/><text fill="#000000" font-family="sans-serif" font-size="12" lengthAdjust="spacing" textLength="200" x="133" y="182.6445">Administrador preenche os campos:</text><text fill="#000000" font-family="sans-serif" font-size="12" lengthAdjust="spacing" textLength="151" x="133" y="197.7383">- Descrição do problema</text><rect fill="#F1F1F1" height="35.0938" rx="12.5" ry="12.5" style="stroke:#181818;stroke-width:0.5;" width="83" x="191.5" y="230.375"/><text fill="#000000" font-family="sans-serif" font-size="12" lengthAdjust="spacing" textLength="60" x="204.5" y="252.832">Prioridade;</text><rect fill="#F1F1F1" height="35.0938" rx="12.5" ry="12.5" style="stroke:#181818;stroke-width:0.5;" width="159" x="153.5" y="285.4688"/><text fill="#000000" font-family="sans-serif" font-size="12" lengthAdjust="spacing" textLength="136" x="166.5" y="307.9258">Anexos (se necessário);</text><rect fill="#F1F1F1" height="35.0938" rx="12.5" ry="12.5" style="stroke:#181818;stroke-width:0.5;" width="191" x="137.5" y="340.5625"/><text fill="#000000" font-family="sans-serif" font-size="12" lengthAdjust="spacing" textLength="171" x="147.5" y="363.0195">Administrador clica em "Enviar"</text><rect fill="#F1F1F1" height="35.0938" rx="12.5" ry="12.5" style="stroke:#181818;stroke-width:0.5;" width="356" x="55" y="395.6563"/><text fill="#000000" font-family="sans-serif" font-size="12" lengthAdjust="spacing" textLength="336" x="65" y="418.1133">Sistema registra o chamado e gera um número de protocolo</text><rect fill="#F1F1F1" height="35.0938" rx="12.5" ry="12.5" style="stroke:#181818;stroke-width:0.5;" width="444" x="11" y="450.75"/><text fill="#000000" font-family="sans-serif" font-size="12" lengthAdjust="spacing" textLength="424" x="21" y="473.207">Sistema exibe MSG17 ("Chamado aberto com sucesso. Protocolo nº XXXX.")</text><ellipse cx="233" cy="516.8438" fill="none" rx="11" ry="11" style="stroke:#222222;stroke-width:1.0;"/><ellipse cx="233" cy="516.8438" fill="#222222" rx="6" ry="6" style="stroke:#111111;stroke-width:1.0;"/><line style="stroke:#181818;stroke-width:1.0;" x1="233" x2="233" y1="30" y2="50"/><polygon fill="#181818" points="229,40,233,50,237,40,233,44" style="stroke:#181818;stroke-width:1.0;"/><line style="stroke:#181818;stroke-width:1.0;" x1="233" x2="233" y1="85.0938" y2="105.0938"/><polygon fill="#181818" points="229,95.0938,233,105.0938,237,95.0938,233,99.0938" style="stroke:#181818;stroke-width:1.0;"/><line style="stroke:#181818;stroke-width:1.0;" x1="233" x2="233" y1="140.1875" y2="160.1875"/><polygon fill="#181818" points="229,150.1875,233,160.1875,237,150.1875,233,154.1875" style="stroke:#181818;stroke-width:1.0;"/><line style="stroke:#181818;stroke-width:1.0;" x1="233" x2="233" y1="210.375" y2="230.375"/><polygon fill="#181818" points="229,220.375,233,230.375,237,220.375,233,224.375" style="stroke:#181818;stroke-width:1.0;"/><line style="stroke:#181818;stroke-width:1.0;" x1="233" x2="233" y1="265.4688" y2="285.4688"/><polygon fill="#181818" points="229,275.4688,233,285.4688,237,275.4688,233,279.4688" style="stroke:#181818;stroke-width:1.0;"/><line style="stroke:#181818;stroke-width:1.0;" x1="233" x2="233" y1="320.5625" y2="340.5625"/><polygon fill="#181818" points="229,330.5625,233,340.5625,237,330.5625,233,334.5625" style="stroke:#181818;stroke-width:1.0;"/><line style="stroke:#181818;stroke-width:1.0;" x1="233" x2="233" y1="375.6563" y2="395.6563"/><polygon fill="#181818" points="229,385.6563,233,395.6563,237,385.6563,233,389.6563" style="stroke:#181818;stroke-width:1.0;"/><line style="stroke:#181818;stroke-width:1.0;" x1="233" x2="233" y1="430.75" y2="450.75"/><polygon fill="#181818" points="229,440.75,233,450.75,237,440.75,233,444.75" style="stroke:#181818;stroke-width:1.0;"/><line style="stroke:#181818;stroke-width:1.0;" x1="233" x2="233" y1="485.8438" y2="505.8438"/><polygon fill="#181818" points="229,495.8438,233,505.8438,237,495.8438,233,499.8438" style="stroke:#181818;stroke-width:1.0;"/><!--MD5=[9ef7743380db15667d5cab1d8eb8915f]
@startuml
start

:Administrador acessa a opção "Suporte";
:Sistema exibe o formulário de abertura de chamados;
:Administrador preenche os campos:
- Descrição do problema;
- Prioridade;
- Anexos (se necessário);
:Administrador clica em "Enviar";
:Sistema registra o chamado e gera um número de protocolo;
:Sistema exibe MSG17 ("Chamado aberto com sucesso. Protocolo nº XXXX.");

stop
@enduml

PlantUML version 1.2022.12(Sun Oct 23 15:12:26 BRT 2022)
(GPL source distribution)
Java Runtime: Java(TM) SE Runtime Environment
JVM: Java HotSpot(TM) 64-Bit Server VM
Default Encoding: Cp1252
Language: pt
Country: BR
--></g></svg>