<?xml version="1.0" encoding="UTF-8" standalone="no"?><svg xmlns="http://www.w3.org/2000/svg" xmlns:xlink="http://www.w3.org/1999/xlink" contentStyleType="text/css" height="468px" preserveAspectRatio="none" style="width:362px;height:468px;background:#FFFFFF;" version="1.1" viewBox="0 0 362 468" width="362px" zoomAndPan="magnify"><defs/><g><ellipse cx="181" cy="20" fill="#222222" rx="10" ry="10" style="stroke:#222222;stroke-width:1.0;"/><rect fill="#F1F1F1" height="35.0938" rx="12.5" ry="12.5" style="stroke:#181818;stroke-width:0.5;" width="317" x="22.5" y="50"/><text fill="#000000" font-family="sans-serif" font-size="12" lengthAdjust="spacing" textLength="297" x="32.5" y="72.457">Administrador acessa a opção "Gerenciar Equipes"</text><rect fill="#F1F1F1" height="35.0938" rx="12.5" ry="12.5" style="stroke:#181818;stroke-width:0.5;" width="299" x="31.5" y="105.0938"/><text fill="#000000" font-family="sans-serif" font-size="12" lengthAdjust="spacing" textLength="279" x="41.5" y="127.5508">Sistema exibe a lista de advogados e funcionários</text><rect fill="#F1F1F1" height="35.0938" rx="12.5" ry="12.5" style="stroke:#181818;stroke-width:0.5;" width="232" x="65" y="160.1875"/><text fill="#000000" font-family="sans-serif" font-size="12" lengthAdjust="spacing" textLength="212" x="75" y="182.6445">Administrador seleciona um advogado</text><rect fill="#F1F1F1" height="35.0938" rx="12.5" ry="12.5" style="stroke:#181818;stroke-width:0.5;" width="340" x="11" y="215.2813"/><text fill="#000000" font-family="sans-serif" font-size="12" lengthAdjust="spacing" textLength="320" x="21" y="237.7383">Administrador adiciona ou remove funcionários da equipe</text><rect fill="#F1F1F1" height="35.0938" rx="12.5" ry="12.5" style="stroke:#181818;stroke-width:0.5;" width="191" x="85.5" y="270.375"/><text fill="#000000" font-family="sans-serif" font-size="12" lengthAdjust="spacing" textLength="171" x="95.5" y="292.832">Administrador clica em "Salvar"</text><rect fill="#F1F1F1" height="35.0938" rx="12.5" ry="12.5" style="stroke:#181818;stroke-width:0.5;" width="217" x="72.5" y="325.4688"/><text fill="#000000" font-family="sans-serif" font-size="12" lengthAdjust="spacing" textLength="197" x="82.5" y="347.9258">Sistema atualiza as associações</text><rect fill="#F1F1F1" height="35.0938" rx="12.5" ry="12.5" style="stroke:#181818;stroke-width:0.5;" width="339" x="11.5" y="380.5625"/><text fill="#000000" font-family="sans-serif" font-size="12" lengthAdjust="spacing" textLength="319" x="21.5" y="403.0195">Sistema exibe MSG16 ("Equipe atualizada com sucesso.")</text><ellipse cx="181" cy="446.6563" fill="none" rx="11" ry="11" style="stroke:#222222;stroke-width:1.0;"/><ellipse cx="181" cy="446.6563" fill="#222222" rx="6" ry="6" style="stroke:#111111;stroke-width:1.0;"/><line style="stroke:#181818;stroke-width:1.0;" x1="181" x2="181" y1="30" y2="50"/><polygon fill="#181818" points="177,40,181,50,185,40,181,44" style="stroke:#181818;stroke-width:1.0;"/><line style="stroke:#181818;stroke-width:1.0;" x1="181" x2="181" y1="85.0938" y2="105.0938"/><polygon fill="#181818" points="177,95.0938,181,105.0938,185,95.0938,181,99.0938" style="stroke:#181818;stroke-width:1.0;"/><line style="stroke:#181818;stroke-width:1.0;" x1="181" x2="181" y1="140.1875" y2="160.1875"/><polygon fill="#181818" points="177,150.1875,181,160.1875,185,150.1875,181,154.1875" style="stroke:#181818;stroke-width:1.0;"/><line style="stroke:#181818;stroke-width:1.0;" x1="181" x2="181" y1="195.2813" y2="215.2813"/><polygon fill="#181818" points="177,205.2813,181,215.2813,185,205.2813,181,209.2813" style="stroke:#181818;stroke-width:1.0;"/><line style="stroke:#181818;stroke-width:1.0;" x1="181" x2="181" y1="250.375" y2="270.375"/><polygon fill="#181818" points="177,260.375,181,270.375,185,260.375,181,264.375" style="stroke:#181818;stroke-width:1.0;"/><line style="stroke:#181818;stroke-width:1.0;" x1="181" x2="181" y1="305.4688" y2="325.4688"/><polygon fill="#181818" points="177,315.4688,181,325.4688,185,315.4688,181,319.4688" style="stroke:#181818;stroke-width:1.0;"/><line style="stroke:#181818;stroke-width:1.0;" x1="181" x2="181" y1="360.5625" y2="380.5625"/><polygon fill="#181818" points="177,370.5625,181,380.5625,185,370.5625,181,374.5625" style="stroke:#181818;stroke-width:1.0;"/><line style="stroke:#181818;stroke-width:1.0;" x1="181" x2="181" y1="415.6563" y2="435.6563"/><polygon fill="#181818" points="177,425.6563,181,435.6563,185,425.6563,181,429.6563" style="stroke:#181818;stroke-width:1.0;"/><!--MD5=[68b304ab860e5ee2318a1d8d90e4a11c]
@startuml
start

:Administrador acessa a opção "Gerenciar Equipes";
:Sistema exibe a lista de advogados e funcionários;
:Administrador seleciona um advogado;
:Administrador adiciona ou remove funcionários da equipe;
:Administrador clica em "Salvar";
:Sistema atualiza as associações;
:Sistema exibe MSG16 ("Equipe atualizada com sucesso.");

stop
@enduml

PlantUML version 1.2022.12(Sun Oct 23 15:12:26 BRT 2022)
(GPL source distribution)
Java Runtime: Java(TM) SE Runtime Environment
JVM: Java HotSpot(TM) 64-Bit Server VM
Default Encoding: Cp1252
Language: pt
Country: BR
--></g></svg>