<?xml version="1.0" encoding="UTF-8" standalone="no"?><svg xmlns="http://www.w3.org/2000/svg" xmlns:xlink="http://www.w3.org/1999/xlink" contentStyleType="text/css" height="587px" preserveAspectRatio="none" style="width:607px;height:587px;background:#FFFFFF;" version="1.1" viewBox="0 0 607 587" width="607px" zoomAndPan="magnify"><defs/><g><ellipse cx="348.75" cy="20" fill="#222222" rx="10" ry="10" style="stroke:#222222;stroke-width:1.0;"/><rect fill="#F1F1F1" height="35.0938" rx="12.5" ry="12.5" style="stroke:#181818;stroke-width:0.5;" width="248" x="224.75" y="50"/><text fill="#000000" font-family="sans-serif" font-size="12" lengthAdjust="spacing" textLength="228" x="234.75" y="72.457">Usuário acessa a lista de notificações</text><rect fill="#F1F1F1" height="35.0938" rx="12.5" ry="12.5" style="stroke:#181818;stroke-width:0.5;" width="298" x="199.75" y="105.0938"/><text fill="#000000" font-family="sans-serif" font-size="12" lengthAdjust="spacing" textLength="278" x="209.75" y="127.5508">Usuário seleciona a notificação a ser excluída</text><rect fill="#F1F1F1" height="35.0938" rx="12.5" ry="12.5" style="stroke:#181818;stroke-width:0.5;" width="163" x="267.25" y="160.1875"/><text fill="#000000" font-family="sans-serif" font-size="12" lengthAdjust="spacing" textLength="143" x="277.25" y="182.6445">Usuário clica em "Excluir"</text><rect fill="#F1F1F1" height="35.0938" rx="12.5" ry="12.5" style="stroke:#181818;stroke-width:0.5;" width="194" x="251.75" y="215.2813"/><text fill="#000000" font-family="sans-serif" font-size="12" lengthAdjust="spacing" textLength="174" x="261.75" y="237.7383">Sistema solicita confirmação</text><polygon fill="#F1F1F1" points="270.75,270.375,426.75,270.375,438.75,282.375,426.75,294.375,270.75,294.375,258.75,282.375,270.75,270.375" style="stroke:#181818;stroke-width:0.5;"/><text fill="#000000" font-family="sans-serif" font-size="11" lengthAdjust="spacing" textLength="156" x="270.75" y="286.876">Usuário confirma a exclusão?</text><text fill="#000000" font-family="sans-serif" font-size="11" lengthAdjust="spacing" textLength="17" x="241.75" y="279.958">Sim</text><text fill="#000000" font-family="sans-serif" font-size="11" lengthAdjust="spacing" textLength="27" x="438.75" y="279.958">Não</text><rect fill="#F1F1F1" height="35.0938" rx="12.5" ry="12.5" style="stroke:#181818;stroke-width:0.5;" width="197" x="99" y="304.375"/><text fill="#000000" font-family="sans-serif" font-size="12" lengthAdjust="spacing" textLength="177" x="109" y="326.832">Sistema remove a notificação</text><rect fill="#F1F1F1" height="35.0938" rx="12.5" ry="12.5" style="stroke:#181818;stroke-width:0.5;" width="248" x="73.5" y="359.4688"/><text fill="#000000" font-family="sans-serif" font-size="12" lengthAdjust="spacing" textLength="228" x="83.5" y="381.9258">Sistema atualiza a lista de notificações</text><rect fill="#F1F1F1" height="35.0938" rx="12.5" ry="12.5" style="stroke:#181818;stroke-width:0.5;" width="286" x="54.5" y="414.5625"/><text fill="#000000" font-family="sans-serif" font-size="12" lengthAdjust="spacing" textLength="232" x="64.5" y="437.0195">Sistema registra a ação para auditoria (</text><text fill="#000000" font-family="sans-serif" font-size="12" font-weight="bold" lengthAdjust="spacing" textLength="30" x="296.5" y="437.0195">RN12</text><text fill="#000000" font-family="sans-serif" font-size="12" lengthAdjust="spacing" textLength="4" x="326.5" y="437.0195">)</text><rect fill="#F1F1F1" height="35.0938" rx="12.5" ry="12.5" style="stroke:#181818;stroke-width:0.5;" width="373" x="11" y="469.6563"/><text fill="#000000" font-family="sans-serif" font-size="12" lengthAdjust="spacing" textLength="353" x="21" y="492.1133">Sistema exibe MSG12 ("Notificação excluída com sucesso.")</text><rect fill="#F1F1F1" height="35.0938" rx="12.5" ry="12.5" style="stroke:#181818;stroke-width:0.5;" width="192" x="404" y="304.375"/><text fill="#000000" font-family="sans-serif" font-size="12" lengthAdjust="spacing" textLength="172" x="414" y="326.832">Sistema cancela a operação</text><polygon fill="#F1F1F1" points="348.75,510.75,360.75,522.75,348.75,534.75,336.75,522.75,348.75,510.75" style="stroke:#181818;stroke-width:0.5;"/><ellipse cx="348.75" cy="565.75" fill="none" rx="11" ry="11" style="stroke:#222222;stroke-width:1.0;"/><ellipse cx="348.75" cy="565.75" fill="#222222" rx="6" ry="6" style="stroke:#111111;stroke-width:1.0;"/><line style="stroke:#181818;stroke-width:1.0;" x1="348.75" x2="348.75" y1="30" y2="50"/><polygon fill="#181818" points="344.75,40,348.75,50,352.75,40,348.75,44" style="stroke:#181818;stroke-width:1.0;"/><line style="stroke:#181818;stroke-width:1.0;" x1="348.75" x2="348.75" y1="85.0938" y2="105.0938"/><polygon fill="#181818" points="344.75,95.0938,348.75,105.0938,352.75,95.0938,348.75,99.0938" style="stroke:#181818;stroke-width:1.0;"/><line style="stroke:#181818;stroke-width:1.0;" x1="348.75" x2="348.75" y1="140.1875" y2="160.1875"/><polygon fill="#181818" points="344.75,150.1875,348.75,160.1875,352.75,150.1875,348.75,154.1875" style="stroke:#181818;stroke-width:1.0;"/><line style="stroke:#181818;stroke-width:1.0;" x1="348.75" x2="348.75" y1="195.2813" y2="215.2813"/><polygon fill="#181818" points="344.75,205.2813,348.75,215.2813,352.75,205.2813,348.75,209.2813" style="stroke:#181818;stroke-width:1.0;"/><line style="stroke:#181818;stroke-width:1.0;" x1="197.5" x2="197.5" y1="339.4688" y2="359.4688"/><polygon fill="#181818" points="193.5,349.4688,197.5,359.4688,201.5,349.4688,197.5,353.4688" style="stroke:#181818;stroke-width:1.0;"/><line style="stroke:#181818;stroke-width:1.0;" x1="197.5" x2="197.5" y1="394.5625" y2="414.5625"/><polygon fill="#181818" points="193.5,404.5625,197.5,414.5625,201.5,404.5625,197.5,408.5625" style="stroke:#181818;stroke-width:1.0;"/><line style="stroke:#181818;stroke-width:1.0;" x1="197.5" x2="197.5" y1="449.6563" y2="469.6563"/><polygon fill="#181818" points="193.5,459.6563,197.5,469.6563,201.5,459.6563,197.5,463.6563" style="stroke:#181818;stroke-width:1.0;"/><line style="stroke:#181818;stroke-width:1.0;" x1="258.75" x2="197.5" y1="282.375" y2="282.375"/><line style="stroke:#181818;stroke-width:1.0;" x1="197.5" x2="197.5" y1="282.375" y2="304.375"/><polygon fill="#181818" points="193.5,294.375,197.5,304.375,201.5,294.375,197.5,298.375" style="stroke:#181818;stroke-width:1.0;"/><line style="stroke:#181818;stroke-width:1.0;" x1="438.75" x2="500" y1="282.375" y2="282.375"/><line style="stroke:#181818;stroke-width:1.0;" x1="500" x2="500" y1="282.375" y2="304.375"/><polygon fill="#181818" points="496,294.375,500,304.375,504,294.375,500,298.375" style="stroke:#181818;stroke-width:1.0;"/><line style="stroke:#181818;stroke-width:1.0;" x1="197.5" x2="197.5" y1="504.75" y2="522.75"/><line style="stroke:#181818;stroke-width:1.0;" x1="197.5" x2="336.75" y1="522.75" y2="522.75"/><polygon fill="#181818" points="326.75,518.75,336.75,522.75,326.75,526.75,330.75,522.75" style="stroke:#181818;stroke-width:1.0;"/><line style="stroke:#181818;stroke-width:1.0;" x1="500" x2="500" y1="339.4688" y2="522.75"/><line style="stroke:#181818;stroke-width:1.0;" x1="500" x2="360.75" y1="522.75" y2="522.75"/><polygon fill="#181818" points="370.75,518.75,360.75,522.75,370.75,526.75,366.75,522.75" style="stroke:#181818;stroke-width:1.0;"/><line style="stroke:#181818;stroke-width:1.0;" x1="348.75" x2="348.75" y1="250.375" y2="270.375"/><polygon fill="#181818" points="344.75,260.375,348.75,270.375,352.75,260.375,348.75,264.375" style="stroke:#181818;stroke-width:1.0;"/><line style="stroke:#181818;stroke-width:1.0;" x1="348.75" x2="348.75" y1="534.75" y2="554.75"/><polygon fill="#181818" points="344.75,544.75,348.75,554.75,352.75,544.75,348.75,548.75" style="stroke:#181818;stroke-width:1.0;"/><!--MD5=[9b46f9aebed58ae71314a9867016bfa3]
@startuml
start

:Usuário acessa a lista de notificações;
:Usuário seleciona a notificação a ser excluída;
:Usuário clica em "Excluir";
:Sistema solicita confirmação;
if (Usuário confirma a exclusão?) then (Sim)
    :Sistema remove a notificação;
    :Sistema atualiza a lista de notificações;
    :Sistema registra a ação para auditoria (**RN12**);
    :Sistema exibe MSG12 ("Notificação excluída com sucesso.");
else (Não)
    :Sistema cancela a operação;
endif

stop
@enduml

PlantUML version 1.2022.12(Sun Oct 23 15:12:26 BRT 2022)
(GPL source distribution)
Java Runtime: Java(TM) SE Runtime Environment
JVM: Java HotSpot(TM) 64-Bit Server VM
Default Encoding: Cp1252
Language: pt
Country: BR
--></g></svg>