<?xml version="1.0" encoding="UTF-8" standalone="no"?><svg xmlns="http://www.w3.org/2000/svg" xmlns:xlink="http://www.w3.org/1999/xlink" contentStyleType="text/css" height="596px" preserveAspectRatio="none" style="width:462px;height:596px;background:#FFFFFF;" version="1.1" viewBox="0 0 462 596" width="462px" zoomAndPan="magnify"><defs/><g><ellipse cx="231.75" cy="20" fill="#222222" rx="10" ry="10" style="stroke:#222222;stroke-width:1.0;"/><rect fill="#F1F1F1" height="35.0938" rx="12.5" ry="12.5" style="stroke:#181818;stroke-width:0.5;" width="212" x="125.75" y="50"/><text fill="#000000" font-family="sans-serif" font-size="12" lengthAdjust="spacing" textLength="192" x="135.75" y="72.457">Usuário acessa a página de login</text><polygon fill="#F1F1F1" points="137.75,105.0938,325.75,105.0938,337.75,117.0938,325.75,129.0938,137.75,129.0938,125.75,117.0938,137.75,105.0938" style="stroke:#181818;stroke-width:0.5;"/><text fill="#000000" font-family="sans-serif" font-size="11" lengthAdjust="spacing" textLength="188" x="137.75" y="121.5947">Escolhe método de autenticação?</text><text fill="#000000" font-family="sans-serif" font-size="11" lengthAdjust="spacing" textLength="70" x="55.75" y="114.6768">E-mail e senha</text><text fill="#000000" font-family="sans-serif" font-size="11" lengthAdjust="spacing" textLength="82" x="337.75" y="114.6768">Certificado digital</text><rect fill="#F1F1F1" height="35.0938" rx="12.5" ry="12.5" style="stroke:#181818;stroke-width:0.5;" width="143" x="44.25" y="139.0938"/><text fill="#000000" font-family="sans-serif" font-size="12" lengthAdjust="spacing" textLength="123" x="54.25" y="161.5508">Usuário insere e-mail</text><rect fill="#F1F1F1" height="35.0938" rx="12.5" ry="12.5" style="stroke:#181818;stroke-width:0.5;" width="143" x="44.25" y="194.1875"/><text fill="#000000" font-family="sans-serif" font-size="12" lengthAdjust="spacing" textLength="123" x="54.25" y="216.6445">Usuário insere senha</text><rect fill="#F1F1F1" height="35.0938" rx="12.5" ry="12.5" style="stroke:#181818;stroke-width:0.5;" width="208" x="243.75" y="139.0938"/><text fill="#000000" font-family="sans-serif" font-size="12" lengthAdjust="spacing" textLength="188" x="253.75" y="161.5508">Usuário conecta certificado digital</text><rect fill="#F1F1F1" height="35.0938" rx="12.5" ry="12.5" style="stroke:#181818;stroke-width:0.5;" width="178" x="258.75" y="194.1875"/><text fill="#000000" font-family="sans-serif" font-size="12" lengthAdjust="spacing" textLength="158" x="268.75" y="216.6445">Sistema detecta o certificado</text><polygon fill="#F1F1F1" points="231.75,235.2813,243.75,247.2813,231.75,259.2813,219.75,247.2813,231.75,235.2813" style="stroke:#181818;stroke-width:0.5;"/><rect fill="#F1F1F1" height="35.0938" rx="12.5" ry="12.5" style="stroke:#181818;stroke-width:0.5;" width="160" x="151.75" y="279.2813"/><text fill="#000000" font-family="sans-serif" font-size="12" lengthAdjust="spacing" textLength="140" x="161.75" y="301.7383">Usuário clica em "Entrar"</text><rect fill="#F1F1F1" height="35.0938" rx="12.5" ry="12.5" style="stroke:#181818;stroke-width:0.5;" width="185" x="139.25" y="334.375"/><text fill="#000000" font-family="sans-serif" font-size="12" lengthAdjust="spacing" textLength="165" x="149.25" y="356.832">Sistema valida as credenciais</text><polygon fill="#F1F1F1" points="179.75,389.4688,283.75,389.4688,295.75,401.4688,283.75,413.4688,179.75,413.4688,167.75,401.4688,179.75,389.4688" style="stroke:#181818;stroke-width:0.5;"/><text fill="#000000" font-family="sans-serif" font-size="11" lengthAdjust="spacing" textLength="104" x="179.75" y="405.9697">Credenciais válidas?</text><text fill="#000000" font-family="sans-serif" font-size="11" lengthAdjust="spacing" textLength="17" x="150.75" y="399.0518">Sim</text><text fill="#000000" font-family="sans-serif" font-size="11" lengthAdjust="spacing" textLength="27" x="295.75" y="399.0518">Não</text><rect fill="#F1F1F1" height="35.0938" rx="12.5" ry="12.5" style="stroke:#181818;stroke-width:0.5;" width="184" x="35" y="423.4688"/><text fill="#000000" font-family="sans-serif" font-size="12" lengthAdjust="spacing" textLength="164" x="45" y="445.9258">Sistema verifica permissões</text><rect fill="#F1F1F1" height="35.0938" rx="12.5" ry="12.5" style="stroke:#181818;stroke-width:0.5;" width="232" x="11" y="478.5625"/><text fill="#000000" font-family="sans-serif" font-size="12" lengthAdjust="spacing" textLength="212" x="21" y="501.0195">Sistema redireciona para o dashboard</text><rect fill="#F1F1F1" height="35.0938" rx="12.5" ry="12.5" style="stroke:#181818;stroke-width:0.5;" width="141" x="266" y="423.4688"/><text fill="#000000" font-family="sans-serif" font-size="12" lengthAdjust="spacing" textLength="121" x="276" y="445.9258">Sistema exibe MSG01</text><rect fill="#F1F1F1" height="35.0938" rx="12.5" ry="12.5" style="stroke:#181818;stroke-width:0.5;" width="147" x="263" y="478.5625"/><text fill="#000000" font-family="sans-serif" font-size="12" lengthAdjust="spacing" textLength="127" x="273" y="501.0195">Retorna à tela de login</text><polygon fill="#F1F1F1" points="231.75,519.6563,243.75,531.6563,231.75,543.6563,219.75,531.6563,231.75,519.6563" style="stroke:#181818;stroke-width:0.5;"/><ellipse cx="231.75" cy="574.6563" fill="none" rx="11" ry="11" style="stroke:#222222;stroke-width:1.0;"/><ellipse cx="231.75" cy="574.6563" fill="#222222" rx="6" ry="6" style="stroke:#111111;stroke-width:1.0;"/><line style="stroke:#181818;stroke-width:1.0;" x1="231.75" x2="231.75" y1="30" y2="50"/><polygon fill="#181818" points="227.75,40,231.75,50,235.75,40,231.75,44" style="stroke:#181818;stroke-width:1.0;"/><line style="stroke:#181818;stroke-width:1.0;" x1="115.75" x2="115.75" y1="174.1875" y2="194.1875"/><polygon fill="#181818" points="111.75,184.1875,115.75,194.1875,119.75,184.1875,115.75,188.1875" style="stroke:#181818;stroke-width:1.0;"/><line style="stroke:#181818;stroke-width:1.0;" x1="347.75" x2="347.75" y1="174.1875" y2="194.1875"/><polygon fill="#181818" points="343.75,184.1875,347.75,194.1875,351.75,184.1875,347.75,188.1875" style="stroke:#181818;stroke-width:1.0;"/><line style="stroke:#181818;stroke-width:1.0;" x1="125.75" x2="115.75" y1="117.0938" y2="117.0938"/><line style="stroke:#181818;stroke-width:1.0;" x1="115.75" x2="115.75" y1="117.0938" y2="139.0938"/><polygon fill="#181818" points="111.75,129.0938,115.75,139.0938,119.75,129.0938,115.75,133.0938" style="stroke:#181818;stroke-width:1.0;"/><line style="stroke:#181818;stroke-width:1.0;" x1="337.75" x2="347.75" y1="117.0938" y2="117.0938"/><line style="stroke:#181818;stroke-width:1.0;" x1="347.75" x2="347.75" y1="117.0938" y2="139.0938"/><polygon fill="#181818" points="343.75,129.0938,347.75,139.0938,351.75,129.0938,347.75,133.0938" style="stroke:#181818;stroke-width:1.0;"/><line style="stroke:#181818;stroke-width:1.0;" x1="115.75" x2="115.75" y1="229.2813" y2="247.2813"/><line style="stroke:#181818;stroke-width:1.0;" x1="115.75" x2="219.75" y1="247.2813" y2="247.2813"/><polygon fill="#181818" points="209.75,243.2813,219.75,247.2813,209.75,251.2813,213.75,247.2813" style="stroke:#181818;stroke-width:1.0;"/><line style="stroke:#181818;stroke-width:1.0;" x1="347.75" x2="347.75" y1="229.2813" y2="247.2813"/><line style="stroke:#181818;stroke-width:1.0;" x1="347.75" x2="243.75" y1="247.2813" y2="247.2813"/><polygon fill="#181818" points="253.75,243.2813,243.75,247.2813,253.75,251.2813,249.75,247.2813" style="stroke:#181818;stroke-width:1.0;"/><line style="stroke:#181818;stroke-width:1.0;" x1="231.75" x2="231.75" y1="85.0938" y2="105.0938"/><polygon fill="#181818" points="227.75,95.0938,231.75,105.0938,235.75,95.0938,231.75,99.0938" style="stroke:#181818;stroke-width:1.0;"/><line style="stroke:#181818;stroke-width:1.0;" x1="231.75" x2="231.75" y1="259.2813" y2="279.2813"/><polygon fill="#181818" points="227.75,269.2813,231.75,279.2813,235.75,269.2813,231.75,273.2813" style="stroke:#181818;stroke-width:1.0;"/><line style="stroke:#181818;stroke-width:1.0;" x1="231.75" x2="231.75" y1="314.375" y2="334.375"/><polygon fill="#181818" points="227.75,324.375,231.75,334.375,235.75,324.375,231.75,328.375" style="stroke:#181818;stroke-width:1.0;"/><line style="stroke:#181818;stroke-width:1.0;" x1="127" x2="127" y1="458.5625" y2="478.5625"/><polygon fill="#181818" points="123,468.5625,127,478.5625,131,468.5625,127,472.5625" style="stroke:#181818;stroke-width:1.0;"/><line style="stroke:#181818;stroke-width:1.0;" x1="336.5" x2="336.5" y1="458.5625" y2="478.5625"/><polygon fill="#181818" points="332.5,468.5625,336.5,478.5625,340.5,468.5625,336.5,472.5625" style="stroke:#181818;stroke-width:1.0;"/><line style="stroke:#181818;stroke-width:1.0;" x1="167.75" x2="127" y1="401.4688" y2="401.4688"/><line style="stroke:#181818;stroke-width:1.0;" x1="127" x2="127" y1="401.4688" y2="423.4688"/><polygon fill="#181818" points="123,413.4688,127,423.4688,131,413.4688,127,417.4688" style="stroke:#181818;stroke-width:1.0;"/><line style="stroke:#181818;stroke-width:1.0;" x1="295.75" x2="336.5" y1="401.4688" y2="401.4688"/><line style="stroke:#181818;stroke-width:1.0;" x1="336.5" x2="336.5" y1="401.4688" y2="423.4688"/><polygon fill="#181818" points="332.5,413.4688,336.5,423.4688,340.5,413.4688,336.5,417.4688" style="stroke:#181818;stroke-width:1.0;"/><line style="stroke:#181818;stroke-width:1.0;" x1="127" x2="127" y1="513.6563" y2="531.6563"/><line style="stroke:#181818;stroke-width:1.0;" x1="127" x2="219.75" y1="531.6563" y2="531.6563"/><polygon fill="#181818" points="209.75,527.6563,219.75,531.6563,209.75,535.6563,213.75,531.6563" style="stroke:#181818;stroke-width:1.0;"/><line style="stroke:#181818;stroke-width:1.0;" x1="336.5" x2="336.5" y1="513.6563" y2="531.6563"/><line style="stroke:#181818;stroke-width:1.0;" x1="336.5" x2="243.75" y1="531.6563" y2="531.6563"/><polygon fill="#181818" points="253.75,527.6563,243.75,531.6563,253.75,535.6563,249.75,531.6563" style="stroke:#181818;stroke-width:1.0;"/><line style="stroke:#181818;stroke-width:1.0;" x1="231.75" x2="231.75" y1="369.4688" y2="389.4688"/><polygon fill="#181818" points="227.75,379.4688,231.75,389.4688,235.75,379.4688,231.75,383.4688" style="stroke:#181818;stroke-width:1.0;"/><line style="stroke:#181818;stroke-width:1.0;" x1="231.75" x2="231.75" y1="543.6563" y2="563.6563"/><polygon fill="#181818" points="227.75,553.6563,231.75,563.6563,235.75,553.6563,231.75,557.6563" style="stroke:#181818;stroke-width:1.0;"/><!--MD5=[8b922d4a1065c7d199b853127c77c6a9]
@startuml
start

:Usuário acessa a página de login;

if (Escolhe método de autenticação?) then (E-mail e senha)
    :Usuário insere e-mail;
    :Usuário insere senha;
else (Certificado digital)
    :Usuário conecta certificado digital;
    :Sistema detecta o certificado;
endif

:Usuário clica em "Entrar";

:Sistema valida as credenciais;

if (Credenciais válidas?) then (Sim)
    :Sistema verifica permissões;
    :Sistema redireciona para o dashboard;
else (Não)
    :Sistema exibe MSG01;
    :Retorna à tela de login;
endif

stop
@enduml

PlantUML version 1.2022.12(Sun Oct 23 15:12:26 BRT 2022)
(GPL source distribution)
Java Runtime: Java(TM) SE Runtime Environment
JVM: Java HotSpot(TM) 64-Bit Server VM
Default Encoding: Cp1252
Language: pt
Country: BR
--></g></svg>