<?xml version="1.0" encoding="UTF-8" standalone="no"?><svg xmlns="http://www.w3.org/2000/svg" xmlns:xlink="http://www.w3.org/1999/xlink" contentStyleType="text/css" height="657px" preserveAspectRatio="none" style="width:653px;height:657px;background:#FFFFFF;" version="1.1" viewBox="0 0 653 657" width="653px" zoomAndPan="magnify"><defs/><g><ellipse cx="369.75" cy="20" fill="#222222" rx="10" ry="10" style="stroke:#222222;stroke-width:1.0;"/><rect fill="#F1F1F1" height="35.0938" rx="12.5" ry="12.5" style="stroke:#181818;stroke-width:0.5;" width="462" x="138.75" y="50"/><text fill="#000000" font-family="sans-serif" font-size="12" lengthAdjust="spacing" textLength="403" x="148.75" y="72.457">Sistema inicia o processo de leitura no PJe em horários pré-definidos (</text><text fill="#000000" font-family="sans-serif" font-size="12" font-weight="bold" lengthAdjust="spacing" textLength="35" x="551.75" y="72.457">RF009</text><text fill="#000000" font-family="sans-serif" font-size="12" lengthAdjust="spacing" textLength="4" x="586.75" y="72.457">)</text><rect fill="#F1F1F1" height="35.0938" rx="12.5" ry="12.5" style="stroke:#181818;stroke-width:0.5;" width="427" x="156.25" y="105.0938"/><text fill="#000000" font-family="sans-serif" font-size="12" lengthAdjust="spacing" textLength="407" x="166.25" y="127.5508">Sistema acessa o PJe usando as credenciais dos usuários configurados</text><polygon fill="#F1F1F1" points="309.25,160.1875,430.25,160.1875,442.25,172.1875,430.25,184.1875,309.25,184.1875,297.25,172.1875,309.25,160.1875" style="stroke:#181818;stroke-width:0.5;"/><text fill="#000000" font-family="sans-serif" font-size="11" lengthAdjust="spacing" textLength="121" x="309.25" y="176.6885">Conexão estabelecida?</text><text fill="#000000" font-family="sans-serif" font-size="11" lengthAdjust="spacing" textLength="17" x="280.25" y="169.7705">Sim</text><text fill="#000000" font-family="sans-serif" font-size="11" lengthAdjust="spacing" textLength="27" x="442.25" y="169.7705">Não</text><rect fill="#F1F1F1" height="35.0938" rx="12.5" ry="12.5" style="stroke:#181818;stroke-width:0.5;" width="296" x="59" y="194.1875"/><text fill="#000000" font-family="sans-serif" font-size="12" lengthAdjust="spacing" textLength="276" x="69" y="216.6445">Sistema verifica novas intimações disponíveis</text><rect fill="#F1F1F1" height="35.0938" rx="12.5" ry="12.5" style="stroke:#181818;stroke-width:0.5;" width="266" x="74" y="249.2813"/><text fill="#000000" font-family="sans-serif" font-size="12" lengthAdjust="spacing" textLength="246" x="84" y="271.7383">Sistema baixa as intimações encontradas</text><rect fill="#F1F1F1" height="35.0938" rx="12.5" ry="12.5" style="stroke:#181818;stroke-width:0.5;" width="392" x="11" y="304.375"/><text fill="#000000" font-family="sans-serif" font-size="12" lengthAdjust="spacing" textLength="372" x="21" y="326.832">Sistema associa as intimações aos processos correspondentes</text><rect fill="#F1F1F1" height="50.1875" rx="12.5" ry="12.5" style="stroke:#181818;stroke-width:0.5;" width="245" x="84.5" y="359.4688"/><text fill="#000000" font-family="sans-serif" font-size="12" lengthAdjust="spacing" textLength="225" x="94.5" y="381.9258">Sistema categoriza as intimações por:</text><text fill="#000000" font-family="sans-serif" font-size="12" lengthAdjust="spacing" textLength="61" x="94.5" y="397.0195">- Urgência</text><rect fill="#F1F1F1" height="35.0938" rx="12.5" ry="12.5" style="stroke:#181818;stroke-width:0.5;" width="71" x="171.5" y="429.6563"/><text fill="#000000" font-family="sans-serif" font-size="12" lengthAdjust="spacing" textLength="48" x="184.5" y="452.1133">Assunto;</text><rect fill="#F1F1F1" height="35.0938" rx="12.5" ry="12.5" style="stroke:#181818;stroke-width:0.5;" width="57" x="178.5" y="484.75"/><text fill="#000000" font-family="sans-serif" font-size="12" lengthAdjust="spacing" textLength="34" x="191.5" y="507.207">Prazo;</text><rect fill="#F1F1F1" height="35.0938" rx="12.5" ry="12.5" style="stroke:#181818;stroke-width:0.5;" width="330" x="42" y="539.8438"/><text fill="#000000" font-family="sans-serif" font-size="12" lengthAdjust="spacing" textLength="310" x="52" y="562.3008">Sistema notifica os usuários (Advogados/Funcionários)</text><rect fill="#F1F1F1" height="35.0938" rx="12.5" ry="12.5" style="stroke:#181818;stroke-width:0.5;" width="219" x="423" y="194.1875"/><text fill="#000000" font-family="sans-serif" font-size="12" lengthAdjust="spacing" textLength="199" x="433" y="216.6445">Sistema registra o erro de conexão</text><rect fill="#F1F1F1" height="35.0938" rx="12.5" ry="12.5" style="stroke:#181818;stroke-width:0.5;" width="198" x="433.5" y="249.2813"/><text fill="#000000" font-family="sans-serif" font-size="12" lengthAdjust="spacing" textLength="178" x="443.5" y="271.7383">Sistema notifica o administrador</text><polygon fill="#F1F1F1" points="369.75,580.9375,381.75,592.9375,369.75,604.9375,357.75,592.9375,369.75,580.9375" style="stroke:#181818;stroke-width:0.5;"/><ellipse cx="369.75" cy="635.9375" fill="none" rx="11" ry="11" style="stroke:#222222;stroke-width:1.0;"/><ellipse cx="369.75" cy="635.9375" fill="#222222" rx="6" ry="6" style="stroke:#111111;stroke-width:1.0;"/><line style="stroke:#181818;stroke-width:1.0;" x1="369.75" x2="369.75" y1="30" y2="50"/><polygon fill="#181818" points="365.75,40,369.75,50,373.75,40,369.75,44" style="stroke:#181818;stroke-width:1.0;"/><line style="stroke:#181818;stroke-width:1.0;" x1="369.75" x2="369.75" y1="85.0938" y2="105.0938"/><polygon fill="#181818" points="365.75,95.0938,369.75,105.0938,373.75,95.0938,369.75,99.0938" style="stroke:#181818;stroke-width:1.0;"/><line style="stroke:#181818;stroke-width:1.0;" x1="207" x2="207" y1="229.2813" y2="249.2813"/><polygon fill="#181818" points="203,239.2813,207,249.2813,211,239.2813,207,243.2813" style="stroke:#181818;stroke-width:1.0;"/><line style="stroke:#181818;stroke-width:1.0;" x1="207" x2="207" y1="284.375" y2="304.375"/><polygon fill="#181818" points="203,294.375,207,304.375,211,294.375,207,298.375" style="stroke:#181818;stroke-width:1.0;"/><line style="stroke:#181818;stroke-width:1.0;" x1="207" x2="207" y1="339.4688" y2="359.4688"/><polygon fill="#181818" points="203,349.4688,207,359.4688,211,349.4688,207,353.4688" style="stroke:#181818;stroke-width:1.0;"/><line style="stroke:#181818;stroke-width:1.0;" x1="207" x2="207" y1="409.6563" y2="429.6563"/><polygon fill="#181818" points="203,419.6563,207,429.6563,211,419.6563,207,423.6563" style="stroke:#181818;stroke-width:1.0;"/><line style="stroke:#181818;stroke-width:1.0;" x1="207" x2="207" y1="464.75" y2="484.75"/><polygon fill="#181818" points="203,474.75,207,484.75,211,474.75,207,478.75" style="stroke:#181818;stroke-width:1.0;"/><line style="stroke:#181818;stroke-width:1.0;" x1="207" x2="207" y1="519.8438" y2="539.8438"/><polygon fill="#181818" points="203,529.8438,207,539.8438,211,529.8438,207,533.8438" style="stroke:#181818;stroke-width:1.0;"/><line style="stroke:#181818;stroke-width:1.0;" x1="532.5" x2="532.5" y1="229.2813" y2="249.2813"/><polygon fill="#181818" points="528.5,239.2813,532.5,249.2813,536.5,239.2813,532.5,243.2813" style="stroke:#181818;stroke-width:1.0;"/><line style="stroke:#181818;stroke-width:1.0;" x1="297.25" x2="207" y1="172.1875" y2="172.1875"/><line style="stroke:#181818;stroke-width:1.0;" x1="207" x2="207" y1="172.1875" y2="194.1875"/><polygon fill="#181818" points="203,184.1875,207,194.1875,211,184.1875,207,188.1875" style="stroke:#181818;stroke-width:1.0;"/><line style="stroke:#181818;stroke-width:1.0;" x1="442.25" x2="532.5" y1="172.1875" y2="172.1875"/><line style="stroke:#181818;stroke-width:1.0;" x1="532.5" x2="532.5" y1="172.1875" y2="194.1875"/><polygon fill="#181818" points="528.5,184.1875,532.5,194.1875,536.5,184.1875,532.5,188.1875" style="stroke:#181818;stroke-width:1.0;"/><line style="stroke:#181818;stroke-width:1.0;" x1="207" x2="207" y1="574.9375" y2="592.9375"/><line style="stroke:#181818;stroke-width:1.0;" x1="207" x2="357.75" y1="592.9375" y2="592.9375"/><polygon fill="#181818" points="347.75,588.9375,357.75,592.9375,347.75,596.9375,351.75,592.9375" style="stroke:#181818;stroke-width:1.0;"/><line style="stroke:#181818;stroke-width:1.0;" x1="532.5" x2="532.5" y1="284.375" y2="592.9375"/><line style="stroke:#181818;stroke-width:1.0;" x1="532.5" x2="381.75" y1="592.9375" y2="592.9375"/><polygon fill="#181818" points="391.75,588.9375,381.75,592.9375,391.75,596.9375,387.75,592.9375" style="stroke:#181818;stroke-width:1.0;"/><line style="stroke:#181818;stroke-width:1.0;" x1="369.75" x2="369.75" y1="140.1875" y2="160.1875"/><polygon fill="#181818" points="365.75,150.1875,369.75,160.1875,373.75,150.1875,369.75,154.1875" style="stroke:#181818;stroke-width:1.0;"/><line style="stroke:#181818;stroke-width:1.0;" x1="369.75" x2="369.75" y1="604.9375" y2="624.9375"/><polygon fill="#181818" points="365.75,614.9375,369.75,624.9375,373.75,614.9375,369.75,618.9375" style="stroke:#181818;stroke-width:1.0;"/><!--MD5=[f45bf9bf9194f8bbd81400677b5b3577]
@startuml
start

:Sistema inicia o processo de leitura no PJe em horários pré-definidos (**RF009**);
:Sistema acessa o PJe usando as credenciais dos usuários configurados;
if (Conexão estabelecida?) then (Sim)
    :Sistema verifica novas intimações disponíveis;
    :Sistema baixa as intimações encontradas;
    :Sistema associa as intimações aos processos correspondentes;
    :Sistema categoriza as intimações por:
    - Urgência;
    - Assunto;
    - Prazo;
    :Sistema notifica os usuários (Advogados/Funcionários);
else (Não)
    :Sistema registra o erro de conexão;
    :Sistema notifica o administrador;
endif

stop
@enduml

PlantUML version 1.2022.12(Sun Oct 23 15:12:26 BRT 2022)
(GPL source distribution)
Java Runtime: Java(TM) SE Runtime Environment
JVM: Java HotSpot(TM) 64-Bit Server VM
Default Encoding: Cp1252
Language: pt
Country: BR
--></g></svg>