<?xml version="1.0" encoding="UTF-8" standalone="no"?><svg xmlns="http://www.w3.org/2000/svg" xmlns:xlink="http://www.w3.org/1999/xlink" contentStyleType="text/css" height="468px" preserveAspectRatio="none" style="width:404px;height:468px;background:#FFFFFF;" version="1.1" viewBox="0 0 404 468" width="404px" zoomAndPan="magnify"><defs/><g><ellipse cx="202" cy="20" fill="#222222" rx="10" ry="10" style="stroke:#222222;stroke-width:1.0;"/><rect fill="#F1F1F1" height="35.0938" rx="12.5" ry="12.5" style="stroke:#181818;stroke-width:0.5;" width="246" x="79" y="50"/><text fill="#000000" font-family="sans-serif" font-size="12" lengthAdjust="spacing" textLength="226" x="89" y="72.457">Administrador acessa o perfil do usuário</text><rect fill="#F1F1F1" height="35.0938" rx="12.5" ry="12.5" style="stroke:#181818;stroke-width:0.5;" width="229" x="87.5" y="105.0938"/><text fill="#000000" font-family="sans-serif" font-size="12" lengthAdjust="spacing" textLength="209" x="97.5" y="127.5508">Sistema exibe as permissões atuais</text><rect fill="#F1F1F1" height="35.0938" rx="12.5" ry="12.5" style="stroke:#181818;stroke-width:0.5;" width="367" x="18.5" y="160.1875"/><text fill="#000000" font-family="sans-serif" font-size="12" lengthAdjust="spacing" textLength="347" x="28.5" y="182.6445">Administrador marca ou desmarca as permissões desejadas</text><rect fill="#F1F1F1" height="35.0938" rx="12.5" ry="12.5" style="stroke:#181818;stroke-width:0.5;" width="191" x="106.5" y="215.2813"/><text fill="#000000" font-family="sans-serif" font-size="12" lengthAdjust="spacing" textLength="171" x="116.5" y="237.7383">Administrador clica em "Salvar"</text><rect fill="#F1F1F1" height="35.0938" rx="12.5" ry="12.5" style="stroke:#181818;stroke-width:0.5;" width="270" x="67" y="270.375"/><text fill="#000000" font-family="sans-serif" font-size="12" lengthAdjust="spacing" textLength="250" x="77" y="292.832">Sistema atualiza as permissões do usuário</text><rect fill="#F1F1F1" height="35.0938" rx="12.5" ry="12.5" style="stroke:#181818;stroke-width:0.5;" width="310" x="47" y="325.4688"/><text fill="#000000" font-family="sans-serif" font-size="12" lengthAdjust="spacing" textLength="256" x="57" y="347.9258">Sistema registra a alteração para auditoria (</text><text fill="#000000" font-family="sans-serif" font-size="12" font-weight="bold" lengthAdjust="spacing" textLength="30" x="313" y="347.9258">RN16</text><text fill="#000000" font-family="sans-serif" font-size="12" lengthAdjust="spacing" textLength="4" x="343" y="347.9258">)</text><rect fill="#F1F1F1" height="35.0938" rx="12.5" ry="12.5" style="stroke:#181818;stroke-width:0.5;" width="382" x="11" y="380.5625"/><text fill="#000000" font-family="sans-serif" font-size="12" lengthAdjust="spacing" textLength="362" x="21" y="403.0195">Sistema exibe MSG15 ("Permissões atualizadas com sucesso.")</text><ellipse cx="202" cy="446.6563" fill="none" rx="11" ry="11" style="stroke:#222222;stroke-width:1.0;"/><ellipse cx="202" cy="446.6563" fill="#222222" rx="6" ry="6" style="stroke:#111111;stroke-width:1.0;"/><line style="stroke:#181818;stroke-width:1.0;" x1="202" x2="202" y1="30" y2="50"/><polygon fill="#181818" points="198,40,202,50,206,40,202,44" style="stroke:#181818;stroke-width:1.0;"/><line style="stroke:#181818;stroke-width:1.0;" x1="202" x2="202" y1="85.0938" y2="105.0938"/><polygon fill="#181818" points="198,95.0938,202,105.0938,206,95.0938,202,99.0938" style="stroke:#181818;stroke-width:1.0;"/><line style="stroke:#181818;stroke-width:1.0;" x1="202" x2="202" y1="140.1875" y2="160.1875"/><polygon fill="#181818" points="198,150.1875,202,160.1875,206,150.1875,202,154.1875" style="stroke:#181818;stroke-width:1.0;"/><line style="stroke:#181818;stroke-width:1.0;" x1="202" x2="202" y1="195.2813" y2="215.2813"/><polygon fill="#181818" points="198,205.2813,202,215.2813,206,205.2813,202,209.2813" style="stroke:#181818;stroke-width:1.0;"/><line style="stroke:#181818;stroke-width:1.0;" x1="202" x2="202" y1="250.375" y2="270.375"/><polygon fill="#181818" points="198,260.375,202,270.375,206,260.375,202,264.375" style="stroke:#181818;stroke-width:1.0;"/><line style="stroke:#181818;stroke-width:1.0;" x1="202" x2="202" y1="305.4688" y2="325.4688"/><polygon fill="#181818" points="198,315.4688,202,325.4688,206,315.4688,202,319.4688" style="stroke:#181818;stroke-width:1.0;"/><line style="stroke:#181818;stroke-width:1.0;" x1="202" x2="202" y1="360.5625" y2="380.5625"/><polygon fill="#181818" points="198,370.5625,202,380.5625,206,370.5625,202,374.5625" style="stroke:#181818;stroke-width:1.0;"/><line style="stroke:#181818;stroke-width:1.0;" x1="202" x2="202" y1="415.6563" y2="435.6563"/><polygon fill="#181818" points="198,425.6563,202,435.6563,206,425.6563,202,429.6563" style="stroke:#181818;stroke-width:1.0;"/><!--MD5=[8d227c8686ede2dc52415bfe539935f5]
@startuml
start

:Administrador acessa o perfil do usuário;
:Sistema exibe as permissões atuais;
:Administrador marca ou desmarca as permissões desejadas;
:Administrador clica em "Salvar";
:Sistema atualiza as permissões do usuário;
:Sistema registra a alteração para auditoria (**RN16**);
:Sistema exibe MSG15 ("Permissões atualizadas com sucesso.");

stop
@enduml

PlantUML version 1.2022.12(Sun Oct 23 15:12:26 BRT 2022)
(GPL source distribution)
Java Runtime: Java(TM) SE Runtime Environment
JVM: Java HotSpot(TM) 64-Bit Server VM
Default Encoding: Cp1252
Language: pt
Country: BR
--></g></svg>