<?xml version="1.0" encoding="UTF-8" standalone="no"?><svg xmlns="http://www.w3.org/2000/svg" xmlns:xlink="http://www.w3.org/1999/xlink" contentStyleType="text/css" height="532px" preserveAspectRatio="none" style="width:576px;height:532px;background:#FFFFFF;" version="1.1" viewBox="0 0 576 532" width="576px" zoomAndPan="magnify"><defs/><g><ellipse cx="325.5" cy="20" fill="#222222" rx="10" ry="10" style="stroke:#222222;stroke-width:1.0;"/><rect fill="#F1F1F1" height="35.0938" rx="12.5" ry="12.5" style="stroke:#181818;stroke-width:0.5;" width="249" x="201" y="50"/><text fill="#000000" font-family="sans-serif" font-size="12" lengthAdjust="spacing" textLength="229" x="211" y="72.457">Administrador acessa a lista de usuários</text><rect fill="#F1F1F1" height="35.0938" rx="12.5" ry="12.5" style="stroke:#181818;stroke-width:0.5;" width="297" x="177" y="105.0938"/><text fill="#000000" font-family="sans-serif" font-size="12" lengthAdjust="spacing" textLength="277" x="187" y="127.5508">Administrador seleciona o usuário a ser removido</text><rect fill="#F1F1F1" height="35.0938" rx="12.5" ry="12.5" style="stroke:#181818;stroke-width:0.5;" width="207" x="222" y="160.1875"/><text fill="#000000" font-family="sans-serif" font-size="12" lengthAdjust="spacing" textLength="187" x="232" y="182.6445">Administrador clica em "Remover"</text><rect fill="#F1F1F1" height="35.0938" rx="12.5" ry="12.5" style="stroke:#181818;stroke-width:0.5;" width="194" x="228.5" y="215.2813"/><text fill="#000000" font-family="sans-serif" font-size="12" lengthAdjust="spacing" textLength="174" x="238.5" y="237.7383">Sistema solicita confirmação</text><polygon fill="#F1F1F1" points="231.5,270.375,419.5,270.375,431.5,282.375,419.5,294.375,231.5,294.375,219.5,282.375,231.5,270.375" style="stroke:#181818;stroke-width:0.5;"/><text fill="#000000" font-family="sans-serif" font-size="11" lengthAdjust="spacing" textLength="188" x="231.5" y="286.876">Administrador confirma a remoção?</text><text fill="#000000" font-family="sans-serif" font-size="11" lengthAdjust="spacing" textLength="17" x="202.5" y="279.958">Sim</text><text fill="#000000" font-family="sans-serif" font-size="11" lengthAdjust="spacing" textLength="27" x="431.5" y="279.958">Não</text><rect fill="#F1F1F1" height="35.0938" rx="12.5" ry="12.5" style="stroke:#181818;stroke-width:0.5;" width="173" x="95.5" y="304.375"/><text fill="#000000" font-family="sans-serif" font-size="12" lengthAdjust="spacing" textLength="153" x="105.5" y="326.832">Sistema desativa o usuário</text><rect fill="#F1F1F1" height="35.0938" rx="12.5" ry="12.5" style="stroke:#181818;stroke-width:0.5;" width="286" x="39" y="359.4688"/><text fill="#000000" font-family="sans-serif" font-size="12" lengthAdjust="spacing" textLength="232" x="49" y="381.9258">Sistema registra a ação para auditoria (</text><text fill="#000000" font-family="sans-serif" font-size="12" font-weight="bold" lengthAdjust="spacing" textLength="30" x="281" y="381.9258">RN15</text><text fill="#000000" font-family="sans-serif" font-size="12" lengthAdjust="spacing" textLength="4" x="311" y="381.9258">)</text><rect fill="#F1F1F1" height="35.0938" rx="12.5" ry="12.5" style="stroke:#181818;stroke-width:0.5;" width="342" x="11" y="414.5625"/><text fill="#000000" font-family="sans-serif" font-size="12" lengthAdjust="spacing" textLength="322" x="21" y="437.0195">Sistema exibe MSG14 ("Usuário removido com sucesso.")</text><rect fill="#F1F1F1" height="35.0938" rx="12.5" ry="12.5" style="stroke:#181818;stroke-width:0.5;" width="192" x="373" y="304.375"/><text fill="#000000" font-family="sans-serif" font-size="12" lengthAdjust="spacing" textLength="172" x="383" y="326.832">Sistema cancela a operação</text><polygon fill="#F1F1F1" points="325.5,455.6563,337.5,467.6563,325.5,479.6563,313.5,467.6563,325.5,455.6563" style="stroke:#181818;stroke-width:0.5;"/><ellipse cx="325.5" cy="510.6563" fill="none" rx="11" ry="11" style="stroke:#222222;stroke-width:1.0;"/><ellipse cx="325.5" cy="510.6563" fill="#222222" rx="6" ry="6" style="stroke:#111111;stroke-width:1.0;"/><line style="stroke:#181818;stroke-width:1.0;" x1="325.5" x2="325.5" y1="30" y2="50"/><polygon fill="#181818" points="321.5,40,325.5,50,329.5,40,325.5,44" style="stroke:#181818;stroke-width:1.0;"/><line style="stroke:#181818;stroke-width:1.0;" x1="325.5" x2="325.5" y1="85.0938" y2="105.0938"/><polygon fill="#181818" points="321.5,95.0938,325.5,105.0938,329.5,95.0938,325.5,99.0938" style="stroke:#181818;stroke-width:1.0;"/><line style="stroke:#181818;stroke-width:1.0;" x1="325.5" x2="325.5" y1="140.1875" y2="160.1875"/><polygon fill="#181818" points="321.5,150.1875,325.5,160.1875,329.5,150.1875,325.5,154.1875" style="stroke:#181818;stroke-width:1.0;"/><line style="stroke:#181818;stroke-width:1.0;" x1="325.5" x2="325.5" y1="195.2813" y2="215.2813"/><polygon fill="#181818" points="321.5,205.2813,325.5,215.2813,329.5,205.2813,325.5,209.2813" style="stroke:#181818;stroke-width:1.0;"/><line style="stroke:#181818;stroke-width:1.0;" x1="182" x2="182" y1="339.4688" y2="359.4688"/><polygon fill="#181818" points="178,349.4688,182,359.4688,186,349.4688,182,353.4688" style="stroke:#181818;stroke-width:1.0;"/><line style="stroke:#181818;stroke-width:1.0;" x1="182" x2="182" y1="394.5625" y2="414.5625"/><polygon fill="#181818" points="178,404.5625,182,414.5625,186,404.5625,182,408.5625" style="stroke:#181818;stroke-width:1.0;"/><line style="stroke:#181818;stroke-width:1.0;" x1="219.5" x2="182" y1="282.375" y2="282.375"/><line style="stroke:#181818;stroke-width:1.0;" x1="182" x2="182" y1="282.375" y2="304.375"/><polygon fill="#181818" points="178,294.375,182,304.375,186,294.375,182,298.375" style="stroke:#181818;stroke-width:1.0;"/><line style="stroke:#181818;stroke-width:1.0;" x1="431.5" x2="469" y1="282.375" y2="282.375"/><line style="stroke:#181818;stroke-width:1.0;" x1="469" x2="469" y1="282.375" y2="304.375"/><polygon fill="#181818" points="465,294.375,469,304.375,473,294.375,469,298.375" style="stroke:#181818;stroke-width:1.0;"/><line style="stroke:#181818;stroke-width:1.0;" x1="182" x2="182" y1="449.6563" y2="467.6563"/><line style="stroke:#181818;stroke-width:1.0;" x1="182" x2="313.5" y1="467.6563" y2="467.6563"/><polygon fill="#181818" points="303.5,463.6563,313.5,467.6563,303.5,471.6563,307.5,467.6563" style="stroke:#181818;stroke-width:1.0;"/><line style="stroke:#181818;stroke-width:1.0;" x1="469" x2="469" y1="339.4688" y2="467.6563"/><line style="stroke:#181818;stroke-width:1.0;" x1="469" x2="337.5" y1="467.6563" y2="467.6563"/><polygon fill="#181818" points="347.5,463.6563,337.5,467.6563,347.5,471.6563,343.5,467.6563" style="stroke:#181818;stroke-width:1.0;"/><line style="stroke:#181818;stroke-width:1.0;" x1="325.5" x2="325.5" y1="250.375" y2="270.375"/><polygon fill="#181818" points="321.5,260.375,325.5,270.375,329.5,260.375,325.5,264.375" style="stroke:#181818;stroke-width:1.0;"/><line style="stroke:#181818;stroke-width:1.0;" x1="325.5" x2="325.5" y1="479.6563" y2="499.6563"/><polygon fill="#181818" points="321.5,489.6563,325.5,499.6563,329.5,489.6563,325.5,493.6563" style="stroke:#181818;stroke-width:1.0;"/><!--MD5=[85701528d67d4d7d60aa25a0eb51e94c]
@startuml
start

:Administrador acessa a lista de usuários;
:Administrador seleciona o usuário a ser removido;
:Administrador clica em "Remover";
:Sistema solicita confirmação;
if (Administrador confirma a remoção?) then (Sim)
    :Sistema desativa o usuário;
    :Sistema registra a ação para auditoria (**RN15**);
    :Sistema exibe MSG14 ("Usuário removido com sucesso.");
else (Não)
    :Sistema cancela a operação;
endif

stop
@enduml

PlantUML version 1.2022.12(Sun Oct 23 15:12:26 BRT 2022)
(GPL source distribution)
Java Runtime: Java(TM) SE Runtime Environment
JVM: Java HotSpot(TM) 64-Bit Server VM
Default Encoding: Cp1252
Language: pt
Country: BR
--></g></svg>