<?xml version="1.0" encoding="UTF-8" standalone="no"?><svg xmlns="http://www.w3.org/2000/svg" xmlns:xlink="http://www.w3.org/1999/xlink" contentStyleType="text/css" height="506px" preserveAspectRatio="none" style="width:408px;height:506px;background:#FFFFFF;" version="1.1" viewBox="0 0 408 506" width="408px" zoomAndPan="magnify"><defs/><g><ellipse cx="204" cy="20" fill="#222222" rx="10" ry="10" style="stroke:#222222;stroke-width:1.0;"/><rect fill="#F1F1F1" height="35.0938" rx="12.5" ry="12.5" style="stroke:#181818;stroke-width:0.5;" width="232" x="88" y="50"/><text fill="#000000" font-family="sans-serif" font-size="12" lengthAdjust="spacing" textLength="212" x="98" y="72.457">Usuário acessa o processo do cliente</text><rect fill="#F1F1F1" height="35.0938" rx="12.5" ry="12.5" style="stroke:#181818;stroke-width:0.5;" width="238" x="85" y="105.0938"/><text fill="#000000" font-family="sans-serif" font-size="12" lengthAdjust="spacing" textLength="218" x="95" y="127.5508">Usuário clica em "Enviar via WhatsApp"</text><rect fill="#F1F1F1" height="35.0938" rx="12.5" ry="12.5" style="stroke:#181818;stroke-width:0.5;" width="378" x="15" y="160.1875"/><text fill="#000000" font-family="sans-serif" font-size="12" lengthAdjust="spacing" textLength="358" x="25" y="182.6445">Sistema gera mensagem padrão com o andamento processual</text><rect fill="#F1F1F1" height="35.0938" rx="12.5" ry="12.5" style="stroke:#181818;stroke-width:0.5;" width="174" x="117" y="264.1992"/><text fill="#000000" font-family="sans-serif" font-size="12" lengthAdjust="spacing" textLength="154" x="127" y="286.6563">Usuário edita a mensagem</text><polygon fill="#F1F1F1" points="116,215.2813,292,215.2813,304,227.2813,292,239.2813,116,239.2813,104,227.2813,116,215.2813" style="stroke:#181818;stroke-width:0.5;"/><text fill="#000000" font-family="sans-serif" font-size="11" lengthAdjust="spacing" textLength="17" x="208" y="250.7002">Sim</text><text fill="#000000" font-family="sans-serif" font-size="11" lengthAdjust="spacing" textLength="176" x="116" y="231.7822">Usuário deseja editar a mensagem?</text><polygon fill="#F1F1F1" points="204,319.293,216,331.293,204,343.293,192,331.293,204,319.293" style="stroke:#181818;stroke-width:0.5;"/><rect fill="#F1F1F1" height="35.0938" rx="12.5" ry="12.5" style="stroke:#181818;stroke-width:0.5;" width="386" x="11" y="363.293"/><text fill="#000000" font-family="sans-serif" font-size="12" lengthAdjust="spacing" textLength="366" x="21" y="385.75">Sistema abre o WhatsApp com a mensagem e o contato do cliente</text><rect fill="#F1F1F1" height="35.0938" rx="12.5" ry="12.5" style="stroke:#181818;stroke-width:0.5;" width="236" x="86" y="418.3867"/><text fill="#000000" font-family="sans-serif" font-size="12" lengthAdjust="spacing" textLength="216" x="96" y="440.8438">Usuário confirma o envio no WhatsApp</text><ellipse cx="204" cy="484.4805" fill="none" rx="11" ry="11" style="stroke:#222222;stroke-width:1.0;"/><ellipse cx="204" cy="484.4805" fill="#222222" rx="6" ry="6" style="stroke:#111111;stroke-width:1.0;"/><line style="stroke:#181818;stroke-width:1.0;" x1="204" x2="204" y1="30" y2="50"/><polygon fill="#181818" points="200,40,204,50,208,40,204,44" style="stroke:#181818;stroke-width:1.0;"/><line style="stroke:#181818;stroke-width:1.0;" x1="204" x2="204" y1="85.0938" y2="105.0938"/><polygon fill="#181818" points="200,95.0938,204,105.0938,208,95.0938,204,99.0938" style="stroke:#181818;stroke-width:1.0;"/><line style="stroke:#181818;stroke-width:1.0;" x1="204" x2="204" y1="140.1875" y2="160.1875"/><polygon fill="#181818" points="200,150.1875,204,160.1875,208,150.1875,204,154.1875" style="stroke:#181818;stroke-width:1.0;"/><line style="stroke:#181818;stroke-width:1.0;" x1="204" x2="204" y1="239.2813" y2="264.1992"/><polygon fill="#181818" points="200,254.1992,204,264.1992,208,254.1992,204,258.1992" style="stroke:#181818;stroke-width:1.0;"/><line style="stroke:#181818;stroke-width:1.0;" x1="304" x2="316" y1="227.2813" y2="227.2813"/><polygon fill="#181818" points="312,271.7461,316,281.7461,320,271.7461,316,275.7461" style="stroke:#181818;stroke-width:1.0;"/><line style="stroke:#181818;stroke-width:1.0;" x1="316" x2="316" y1="227.2813" y2="331.293"/><line style="stroke:#181818;stroke-width:1.0;" x1="316" x2="216" y1="331.293" y2="331.293"/><polygon fill="#181818" points="226,327.293,216,331.293,226,335.293,222,331.293" style="stroke:#181818;stroke-width:1.0;"/><line style="stroke:#181818;stroke-width:1.0;" x1="204" x2="204" y1="299.293" y2="319.293"/><polygon fill="#181818" points="200,309.293,204,319.293,208,309.293,204,313.293" style="stroke:#181818;stroke-width:1.0;"/><line style="stroke:#181818;stroke-width:1.0;" x1="204" x2="204" y1="195.2813" y2="215.2813"/><polygon fill="#181818" points="200,205.2813,204,215.2813,208,205.2813,204,209.2813" style="stroke:#181818;stroke-width:1.0;"/><line style="stroke:#181818;stroke-width:1.0;" x1="204" x2="204" y1="343.293" y2="363.293"/><polygon fill="#181818" points="200,353.293,204,363.293,208,353.293,204,357.293" style="stroke:#181818;stroke-width:1.0;"/><line style="stroke:#181818;stroke-width:1.0;" x1="204" x2="204" y1="398.3867" y2="418.3867"/><polygon fill="#181818" points="200,408.3867,204,418.3867,208,408.3867,204,412.3867" style="stroke:#181818;stroke-width:1.0;"/><line style="stroke:#181818;stroke-width:1.0;" x1="204" x2="204" y1="453.4805" y2="473.4805"/><polygon fill="#181818" points="200,463.4805,204,473.4805,208,463.4805,204,467.4805" style="stroke:#181818;stroke-width:1.0;"/><!--MD5=[bc3dd14f230f1e2a55da9f6011254ab0]
@startuml
start

:Usuário acessa o processo do cliente;
:Usuário clica em "Enviar via WhatsApp";
:Sistema gera mensagem padrão com o andamento processual;
if (Usuário deseja editar a mensagem?) then (Sim)
    :Usuário edita a mensagem;
endif
:Sistema abre o WhatsApp com a mensagem e o contato do cliente;
:Usuário confirma o envio no WhatsApp;

stop
@enduml

PlantUML version 1.2022.12(Sun Oct 23 15:12:26 BRT 2022)
(GPL source distribution)
Java Runtime: Java(TM) SE Runtime Environment
JVM: Java HotSpot(TM) 64-Bit Server VM
Default Encoding: Cp1252
Language: pt
Country: BR
--></g></svg>