<?xml version="1.0" encoding="UTF-8" standalone="no"?><svg xmlns="http://www.w3.org/2000/svg" xmlns:xlink="http://www.w3.org/1999/xlink" contentStyleType="text/css" height="805px" preserveAspectRatio="none" style="width:780px;height:805px;background:#FFFFFF;" version="1.1" viewBox="0 0 780 805" width="780px" zoomAndPan="magnify"><defs/><g><ellipse cx="373" cy="20" fill="#222222" rx="10" ry="10" style="stroke:#222222;stroke-width:1.0;"/><rect fill="#F1F1F1" height="35.0938" rx="12.5" ry="12.5" style="stroke:#181818;stroke-width:0.5;" width="321" x="212.5" y="50"/><text fill="#000000" font-family="sans-serif" font-size="12" lengthAdjust="spacing" textLength="301" x="222.5" y="72.457">Administrador acessa a opção "Backup do Sistema"</text><rect fill="#F1F1F1" height="50.1875" rx="12.5" ry="12.5" style="stroke:#181818;stroke-width:0.5;" width="237" x="254.5" y="105.0938"/><text fill="#000000" font-family="sans-serif" font-size="12" lengthAdjust="spacing" textLength="217" x="264.5" y="127.5508">Sistema exibe as opções de backup:</text><text fill="#000000" font-family="sans-serif" font-size="12" lengthAdjust="spacing" textLength="61" x="264.5" y="142.6445">- Completo</text><rect fill="#F1F1F1" height="35.0938" rx="12.5" ry="12.5" style="stroke:#181818;stroke-width:0.5;" width="91" x="327.5" y="175.2813"/><text fill="#000000" font-family="sans-serif" font-size="12" lengthAdjust="spacing" textLength="68" x="340.5" y="197.7383">Incremental;</text><rect fill="#F1F1F1" height="35.0938" rx="12.5" ry="12.5" style="stroke:#181818;stroke-width:0.5;" width="82" x="332" y="230.375"/><text fill="#000000" font-family="sans-serif" font-size="12" lengthAdjust="spacing" textLength="59" x="345" y="252.832">Agendado;</text><rect fill="#F1F1F1" height="35.0938" rx="12.5" ry="12.5" style="stroke:#181818;stroke-width:0.5;" width="247" x="249.5" y="285.4688"/><text fill="#000000" font-family="sans-serif" font-size="12" lengthAdjust="spacing" textLength="227" x="259.5" y="307.9258">Administrador seleciona o tipo de backup</text><rect fill="#F1F1F1" height="35.0938" rx="12.5" ry="12.5" style="stroke:#181818;stroke-width:0.5;" width="199" x="273.5" y="389.4805"/><text fill="#000000" font-family="sans-serif" font-size="12" lengthAdjust="spacing" textLength="179" x="283.5" y="411.9375">Administrador define data e hora</text><polygon fill="#F1F1F1" points="285.5,340.5625,460.5,340.5625,472.5,352.5625,460.5,364.5625,285.5,364.5625,273.5,352.5625,285.5,340.5625" style="stroke:#181818;stroke-width:0.5;"/><text fill="#000000" font-family="sans-serif" font-size="11" lengthAdjust="spacing" textLength="17" x="377" y="375.9814">Sim</text><text fill="#000000" font-family="sans-serif" font-size="11" lengthAdjust="spacing" textLength="175" x="285.5" y="357.0635">Administrador escolhe "Agendado"?</text><polygon fill="#F1F1F1" points="373,444.5742,385,456.5742,373,468.5742,361,456.5742,373,444.5742" style="stroke:#181818;stroke-width:0.5;"/><rect fill="#F1F1F1" height="35.0938" rx="12.5" ry="12.5" style="stroke:#181818;stroke-width:0.5;" width="234" x="256" y="488.5742"/><text fill="#000000" font-family="sans-serif" font-size="12" lengthAdjust="spacing" textLength="214" x="266" y="511.0313">Administrador clica em "Iniciar Backup"</text><rect fill="#F1F1F1" height="35.0938" rx="12.5" ry="12.5" style="stroke:#181818;stroke-width:0.5;" width="267" x="239.5" y="543.668"/><text fill="#000000" font-family="sans-serif" font-size="12" lengthAdjust="spacing" textLength="213" x="249.5" y="566.125">Sistema verifica espaço disponível (</text><text fill="#000000" font-family="sans-serif" font-size="12" font-weight="bold" lengthAdjust="spacing" textLength="30" x="462.5" y="566.125">RN21</text><text fill="#000000" font-family="sans-serif" font-size="12" lengthAdjust="spacing" textLength="4" x="492.5" y="566.125">)</text><polygon fill="#F1F1F1" points="323,598.7617,423,598.7617,435,610.7617,423,622.7617,323,622.7617,311,610.7617,323,598.7617" style="stroke:#181818;stroke-width:0.5;"/><text fill="#000000" font-family="sans-serif" font-size="11" lengthAdjust="spacing" textLength="100" x="323" y="615.2627">Espaço suficiente?</text><text fill="#000000" font-family="sans-serif" font-size="11" lengthAdjust="spacing" textLength="17" x="294" y="608.3447">Sim</text><text fill="#000000" font-family="sans-serif" font-size="11" lengthAdjust="spacing" textLength="27" x="435" y="608.3447">Não</text><rect fill="#F1F1F1" height="35.0938" rx="12.5" ry="12.5" style="stroke:#181818;stroke-width:0.5;" width="158" x="99.5" y="632.7617"/><text fill="#000000" font-family="sans-serif" font-size="12" lengthAdjust="spacing" textLength="138" x="109.5" y="655.2188">Sistema realiza o backup</text><rect fill="#F1F1F1" height="35.0938" rx="12.5" ry="12.5" style="stroke:#181818;stroke-width:0.5;" width="335" x="11" y="687.8555"/><text fill="#000000" font-family="sans-serif" font-size="12" lengthAdjust="spacing" textLength="315" x="21" y="710.3125">Sistema exibe MSG19 ("Backup realizado com sucesso.")</text><rect fill="#F1F1F1" height="35.0938" rx="12.5" ry="12.5" style="stroke:#181818;stroke-width:0.5;" width="403" x="366" y="632.7617"/><text fill="#000000" font-family="sans-serif" font-size="12" lengthAdjust="spacing" textLength="383" x="376" y="655.2188">Sistema exibe MSG05 ("Espaço insuficiente para realizar o backup.")</text><polygon fill="#F1F1F1" points="373,728.9492,385,740.9492,373,752.9492,361,740.9492,373,728.9492" style="stroke:#181818;stroke-width:0.5;"/><ellipse cx="373" cy="783.9492" fill="none" rx="11" ry="11" style="stroke:#222222;stroke-width:1.0;"/><ellipse cx="373" cy="783.9492" fill="#222222" rx="6" ry="6" style="stroke:#111111;stroke-width:1.0;"/><line style="stroke:#181818;stroke-width:1.0;" x1="373" x2="373" y1="30" y2="50"/><polygon fill="#181818" points="369,40,373,50,377,40,373,44" style="stroke:#181818;stroke-width:1.0;"/><line style="stroke:#181818;stroke-width:1.0;" x1="373" x2="373" y1="85.0938" y2="105.0938"/><polygon fill="#181818" points="369,95.0938,373,105.0938,377,95.0938,373,99.0938" style="stroke:#181818;stroke-width:1.0;"/><line style="stroke:#181818;stroke-width:1.0;" x1="373" x2="373" y1="155.2813" y2="175.2813"/><polygon fill="#181818" points="369,165.2813,373,175.2813,377,165.2813,373,169.2813" style="stroke:#181818;stroke-width:1.0;"/><line style="stroke:#181818;stroke-width:1.0;" x1="373" x2="373" y1="210.375" y2="230.375"/><polygon fill="#181818" points="369,220.375,373,230.375,377,220.375,373,224.375" style="stroke:#181818;stroke-width:1.0;"/><line style="stroke:#181818;stroke-width:1.0;" x1="373" x2="373" y1="265.4688" y2="285.4688"/><polygon fill="#181818" points="369,275.4688,373,285.4688,377,275.4688,373,279.4688" style="stroke:#181818;stroke-width:1.0;"/><line style="stroke:#181818;stroke-width:1.0;" x1="373" x2="373" y1="364.5625" y2="389.4805"/><polygon fill="#181818" points="369,379.4805,373,389.4805,377,379.4805,373,383.4805" style="stroke:#181818;stroke-width:1.0;"/><line style="stroke:#181818;stroke-width:1.0;" x1="472.5" x2="484.5" y1="352.5625" y2="352.5625"/><polygon fill="#181818" points="480.5,397.0273,484.5,407.0273,488.5,397.0273,484.5,401.0273" style="stroke:#181818;stroke-width:1.0;"/><line style="stroke:#181818;stroke-width:1.0;" x1="484.5" x2="484.5" y1="352.5625" y2="456.5742"/><line style="stroke:#181818;stroke-width:1.0;" x1="484.5" x2="385" y1="456.5742" y2="456.5742"/><polygon fill="#181818" points="395,452.5742,385,456.5742,395,460.5742,391,456.5742" style="stroke:#181818;stroke-width:1.0;"/><line style="stroke:#181818;stroke-width:1.0;" x1="373" x2="373" y1="424.5742" y2="444.5742"/><polygon fill="#181818" points="369,434.5742,373,444.5742,377,434.5742,373,438.5742" style="stroke:#181818;stroke-width:1.0;"/><line style="stroke:#181818;stroke-width:1.0;" x1="373" x2="373" y1="320.5625" y2="340.5625"/><polygon fill="#181818" points="369,330.5625,373,340.5625,377,330.5625,373,334.5625" style="stroke:#181818;stroke-width:1.0;"/><line style="stroke:#181818;stroke-width:1.0;" x1="373" x2="373" y1="468.5742" y2="488.5742"/><polygon fill="#181818" points="369,478.5742,373,488.5742,377,478.5742,373,482.5742" style="stroke:#181818;stroke-width:1.0;"/><line style="stroke:#181818;stroke-width:1.0;" x1="373" x2="373" y1="523.668" y2="543.668"/><polygon fill="#181818" points="369,533.668,373,543.668,377,533.668,373,537.668" style="stroke:#181818;stroke-width:1.0;"/><line style="stroke:#181818;stroke-width:1.0;" x1="178.5" x2="178.5" y1="667.8555" y2="687.8555"/><polygon fill="#181818" points="174.5,677.8555,178.5,687.8555,182.5,677.8555,178.5,681.8555" style="stroke:#181818;stroke-width:1.0;"/><line style="stroke:#181818;stroke-width:1.0;" x1="311" x2="178.5" y1="610.7617" y2="610.7617"/><line style="stroke:#181818;stroke-width:1.0;" x1="178.5" x2="178.5" y1="610.7617" y2="632.7617"/><polygon fill="#181818" points="174.5,622.7617,178.5,632.7617,182.5,622.7617,178.5,626.7617" style="stroke:#181818;stroke-width:1.0;"/><line style="stroke:#181818;stroke-width:1.0;" x1="435" x2="567.5" y1="610.7617" y2="610.7617"/><line style="stroke:#181818;stroke-width:1.0;" x1="567.5" x2="567.5" y1="610.7617" y2="632.7617"/><polygon fill="#181818" points="563.5,622.7617,567.5,632.7617,571.5,622.7617,567.5,626.7617" style="stroke:#181818;stroke-width:1.0;"/><line style="stroke:#181818;stroke-width:1.0;" x1="178.5" x2="178.5" y1="722.9492" y2="740.9492"/><line style="stroke:#181818;stroke-width:1.0;" x1="178.5" x2="361" y1="740.9492" y2="740.9492"/><polygon fill="#181818" points="351,736.9492,361,740.9492,351,744.9492,355,740.9492" style="stroke:#181818;stroke-width:1.0;"/><line style="stroke:#181818;stroke-width:1.0;" x1="567.5" x2="567.5" y1="667.8555" y2="740.9492"/><line style="stroke:#181818;stroke-width:1.0;" x1="567.5" x2="385" y1="740.9492" y2="740.9492"/><polygon fill="#181818" points="395,736.9492,385,740.9492,395,744.9492,391,740.9492" style="stroke:#181818;stroke-width:1.0;"/><line style="stroke:#181818;stroke-width:1.0;" x1="373" x2="373" y1="578.7617" y2="598.7617"/><polygon fill="#181818" points="369,588.7617,373,598.7617,377,588.7617,373,592.7617" style="stroke:#181818;stroke-width:1.0;"/><line style="stroke:#181818;stroke-width:1.0;" x1="373" x2="373" y1="752.9492" y2="772.9492"/><polygon fill="#181818" points="369,762.9492,373,772.9492,377,762.9492,373,766.9492" style="stroke:#181818;stroke-width:1.0;"/><!--MD5=[7d57cd45b69e3cb2912ba08d6678a4fc]
@startuml
start

:Administrador acessa a opção "Backup do Sistema";
:Sistema exibe as opções de backup:
- Completo;
- Incremental;
- Agendado;
:Administrador seleciona o tipo de backup;
if (Administrador escolhe "Agendado"?) then (Sim)
    :Administrador define data e hora;
endif
:Administrador clica em "Iniciar Backup";
:Sistema verifica espaço disponível (**RN21**);
if (Espaço suficiente?) then (Sim)
    :Sistema realiza o backup;
    :Sistema exibe MSG19 ("Backup realizado com sucesso.");
else (Não)
    :Sistema exibe MSG05 ("Espaço insuficiente para realizar o backup.");
endif

stop
@enduml

PlantUML version 1.2022.12(Sun Oct 23 15:12:26 BRT 2022)
(GPL source distribution)
Java Runtime: Java(TM) SE Runtime Environment
JVM: Java HotSpot(TM) 64-Bit Server VM
Default Encoding: Cp1252
Language: pt
Country: BR
--></g></svg>