<?xml version="1.0" encoding="UTF-8" standalone="no"?><svg xmlns="http://www.w3.org/2000/svg" xmlns:xlink="http://www.w3.org/1999/xlink" contentStyleType="text/css" height="783px" preserveAspectRatio="none" style="width:548px;height:783px;background:#FFFFFF;" version="1.1" viewBox="0 0 548 783" width="548px" zoomAndPan="magnify"><defs/><g><ellipse cx="274.5" cy="20" fill="#222222" rx="10" ry="10" style="stroke:#222222;stroke-width:1.0;"/><rect fill="#F1F1F1" height="35.0938" rx="12.5" ry="12.5" style="stroke:#181818;stroke-width:0.5;" width="480" x="34.5" y="50"/><text fill="#000000" font-family="sans-serif" font-size="12" lengthAdjust="spacing" textLength="460" x="44.5" y="72.457">Usuário acessa a opção "Histórico de Atuação" em um processo específico</text><rect fill="#F1F1F1" height="35.0938" rx="12.5" ry="12.5" style="stroke:#181818;stroke-width:0.5;" width="328" x="110.5" y="105.0938"/><text fill="#000000" font-family="sans-serif" font-size="12" lengthAdjust="spacing" textLength="308" x="120.5" y="127.5508">Sistema exibe a lista de fases do processo selecionado</text><rect fill="#F1F1F1" height="50.1875" rx="12.5" ry="12.5" style="stroke:#181818;stroke-width:0.5;" width="209" x="170" y="160.1875"/><text fill="#000000" font-family="sans-serif" font-size="12" lengthAdjust="spacing" textLength="189" x="180" y="182.6445">Para cada fase, o sistema mostra:</text><text fill="#000000" font-family="sans-serif" font-size="12" lengthAdjust="spacing" textLength="77" x="180" y="197.7383">- Data da fase</text><rect fill="#F1F1F1" height="35.0938" rx="12.5" ry="12.5" style="stroke:#181818;stroke-width:0.5;" width="267" x="141" y="230.375"/><text fill="#000000" font-family="sans-serif" font-size="12" lengthAdjust="spacing" textLength="244" x="154" y="252.832">Tipo de ação (audiência, petição, etc.);</text><rect fill="#F1F1F1" height="35.0938" rx="12.5" ry="12.5" style="stroke:#181818;stroke-width:0.5;" width="303" x="123" y="285.4688"/><text fill="#000000" font-family="sans-serif" font-size="12" lengthAdjust="spacing" textLength="280" x="136" y="307.9258">Profissionais envolvidos (advogados, estagiários);</text><rect fill="#F1F1F1" height="35.0938" rx="12.5" ry="12.5" style="stroke:#181818;stroke-width:0.5;" width="114" x="217.5" y="340.5625"/><text fill="#000000" font-family="sans-serif" font-size="12" lengthAdjust="spacing" textLength="91" x="230.5" y="363.0195">Observações;</text><rect fill="#F1F1F1" height="50.1875" rx="12.5" ry="12.5" style="stroke:#181818;stroke-width:0.5;" width="216" x="166.5" y="395.6563"/><text fill="#000000" font-family="sans-serif" font-size="12" lengthAdjust="spacing" textLength="196" x="176.5" y="418.1133">Usuário pode filtrar o histórico por:</text><text fill="#000000" font-family="sans-serif" font-size="12" lengthAdjust="spacing" textLength="33" x="176.5" y="433.207">- Data</text><rect fill="#F1F1F1" height="35.0938" rx="12.5" ry="12.5" style="stroke:#181818;stroke-width:0.5;" width="92" x="228.5" y="465.8438"/><text fill="#000000" font-family="sans-serif" font-size="12" lengthAdjust="spacing" textLength="69" x="241.5" y="488.3008">Profissional;</text><rect fill="#F1F1F1" height="35.0938" rx="12.5" ry="12.5" style="stroke:#181818;stroke-width:0.5;" width="112" x="218.5" y="520.9375"/><text fill="#000000" font-family="sans-serif" font-size="12" lengthAdjust="spacing" textLength="89" x="231.5" y="543.3945">Tipo de ação;</text><polygon fill="#F1F1F1" points="180,576.0313,369,576.0313,381,588.0313,369,600.0313,180,600.0313,168,588.0313,180,576.0313" style="stroke:#181818;stroke-width:0.5;"/><text fill="#000000" font-family="sans-serif" font-size="11" lengthAdjust="spacing" textLength="189" x="180" y="592.5322">Usuário deseja detalhes de uma fase?</text><text fill="#000000" font-family="sans-serif" font-size="11" lengthAdjust="spacing" textLength="17" x="151" y="585.6143">Sim</text><text fill="#000000" font-family="sans-serif" font-size="11" lengthAdjust="spacing" textLength="27" x="381" y="585.6143">Não</text><rect fill="#F1F1F1" height="35.0938" rx="12.5" ry="12.5" style="stroke:#181818;stroke-width:0.5;" width="216" x="30" y="610.0313"/><text fill="#000000" font-family="sans-serif" font-size="12" lengthAdjust="spacing" textLength="196" x="40" y="632.4883">Usuário seleciona a fase desejada</text><rect fill="#F1F1F1" height="35.0938" rx="12.5" ry="12.5" style="stroke:#181818;stroke-width:0.5;" width="254" x="11" y="665.125"/><text fill="#000000" font-family="sans-serif" font-size="12" lengthAdjust="spacing" textLength="234" x="21" y="687.582">Sistema exibe detalhes completos da fase</text><rect fill="#F1F1F1" height="35.0938" rx="12.5" ry="12.5" style="stroke:#181818;stroke-width:0.5;" width="252" x="285" y="610.0313"/><text fill="#000000" font-family="sans-serif" font-size="12" lengthAdjust="spacing" textLength="232" x="295" y="632.4883">Usuário continua navegando no histórico</text><polygon fill="#F1F1F1" points="274.5,706.2188,286.5,718.2188,274.5,730.2188,262.5,718.2188,274.5,706.2188" style="stroke:#181818;stroke-width:0.5;"/><ellipse cx="274.5" cy="761.2188" fill="none" rx="11" ry="11" style="stroke:#222222;stroke-width:1.0;"/><ellipse cx="274.5" cy="761.2188" fill="#222222" rx="6" ry="6" style="stroke:#111111;stroke-width:1.0;"/><line style="stroke:#181818;stroke-width:1.0;" x1="274.5" x2="274.5" y1="30" y2="50"/><polygon fill="#181818" points="270.5,40,274.5,50,278.5,40,274.5,44" style="stroke:#181818;stroke-width:1.0;"/><line style="stroke:#181818;stroke-width:1.0;" x1="274.5" x2="274.5" y1="85.0938" y2="105.0938"/><polygon fill="#181818" points="270.5,95.0938,274.5,105.0938,278.5,95.0938,274.5,99.0938" style="stroke:#181818;stroke-width:1.0;"/><line style="stroke:#181818;stroke-width:1.0;" x1="274.5" x2="274.5" y1="140.1875" y2="160.1875"/><polygon fill="#181818" points="270.5,150.1875,274.5,160.1875,278.5,150.1875,274.5,154.1875" style="stroke:#181818;stroke-width:1.0;"/><line style="stroke:#181818;stroke-width:1.0;" x1="274.5" x2="274.5" y1="210.375" y2="230.375"/><polygon fill="#181818" points="270.5,220.375,274.5,230.375,278.5,220.375,274.5,224.375" style="stroke:#181818;stroke-width:1.0;"/><line style="stroke:#181818;stroke-width:1.0;" x1="274.5" x2="274.5" y1="265.4688" y2="285.4688"/><polygon fill="#181818" points="270.5,275.4688,274.5,285.4688,278.5,275.4688,274.5,279.4688" style="stroke:#181818;stroke-width:1.0;"/><line style="stroke:#181818;stroke-width:1.0;" x1="274.5" x2="274.5" y1="320.5625" y2="340.5625"/><polygon fill="#181818" points="270.5,330.5625,274.5,340.5625,278.5,330.5625,274.5,334.5625" style="stroke:#181818;stroke-width:1.0;"/><line style="stroke:#181818;stroke-width:1.0;" x1="274.5" x2="274.5" y1="375.6563" y2="395.6563"/><polygon fill="#181818" points="270.5,385.6563,274.5,395.6563,278.5,385.6563,274.5,389.6563" style="stroke:#181818;stroke-width:1.0;"/><line style="stroke:#181818;stroke-width:1.0;" x1="274.5" x2="274.5" y1="445.8438" y2="465.8438"/><polygon fill="#181818" points="270.5,455.8438,274.5,465.8438,278.5,455.8438,274.5,459.8438" style="stroke:#181818;stroke-width:1.0;"/><line style="stroke:#181818;stroke-width:1.0;" x1="274.5" x2="274.5" y1="500.9375" y2="520.9375"/><polygon fill="#181818" points="270.5,510.9375,274.5,520.9375,278.5,510.9375,274.5,514.9375" style="stroke:#181818;stroke-width:1.0;"/><line style="stroke:#181818;stroke-width:1.0;" x1="138" x2="138" y1="645.125" y2="665.125"/><polygon fill="#181818" points="134,655.125,138,665.125,142,655.125,138,659.125" style="stroke:#181818;stroke-width:1.0;"/><line style="stroke:#181818;stroke-width:1.0;" x1="168" x2="138" y1="588.0313" y2="588.0313"/><line style="stroke:#181818;stroke-width:1.0;" x1="138" x2="138" y1="588.0313" y2="610.0313"/><polygon fill="#181818" points="134,600.0313,138,610.0313,142,600.0313,138,604.0313" style="stroke:#181818;stroke-width:1.0;"/><line style="stroke:#181818;stroke-width:1.0;" x1="381" x2="411" y1="588.0313" y2="588.0313"/><line style="stroke:#181818;stroke-width:1.0;" x1="411" x2="411" y1="588.0313" y2="610.0313"/><polygon fill="#181818" points="407,600.0313,411,610.0313,415,600.0313,411,604.0313" style="stroke:#181818;stroke-width:1.0;"/><line style="stroke:#181818;stroke-width:1.0;" x1="138" x2="138" y1="700.2188" y2="718.2188"/><line style="stroke:#181818;stroke-width:1.0;" x1="138" x2="262.5" y1="718.2188" y2="718.2188"/><polygon fill="#181818" points="252.5,714.2188,262.5,718.2188,252.5,722.2188,256.5,718.2188" style="stroke:#181818;stroke-width:1.0;"/><line style="stroke:#181818;stroke-width:1.0;" x1="411" x2="411" y1="645.125" y2="718.2188"/><line style="stroke:#181818;stroke-width:1.0;" x1="411" x2="286.5" y1="718.2188" y2="718.2188"/><polygon fill="#181818" points="296.5,714.2188,286.5,718.2188,296.5,722.2188,292.5,718.2188" style="stroke:#181818;stroke-width:1.0;"/><line style="stroke:#181818;stroke-width:1.0;" x1="274.5" x2="274.5" y1="556.0313" y2="576.0313"/><polygon fill="#181818" points="270.5,566.0313,274.5,576.0313,278.5,566.0313,274.5,570.0313" style="stroke:#181818;stroke-width:1.0;"/><line style="stroke:#181818;stroke-width:1.0;" x1="274.5" x2="274.5" y1="730.2188" y2="750.2188"/><polygon fill="#181818" points="270.5,740.2188,274.5,750.2188,278.5,740.2188,274.5,744.2188" style="stroke:#181818;stroke-width:1.0;"/><!--MD5=[94756ef21dc291c1753a068dae452b50]
@startuml
start

:Usuário acessa a opção "Histórico de Atuação" em um processo específico;

:Sistema exibe a lista de fases do processo selecionado;

:Para cada fase, o sistema mostra:
- Data da fase;
- Tipo de ação (audiência, petição, etc.);
- Profissionais envolvidos (advogados, estagiários);
- Observações;

:Usuário pode filtrar o histórico por:
- Data;
- Profissional;
- Tipo de ação;

if (Usuário deseja detalhes de uma fase?) then (Sim)
    :Usuário seleciona a fase desejada;
    :Sistema exibe detalhes completos da fase;
else (Não)
    :Usuário continua navegando no histórico;
endif

stop
@enduml

PlantUML version 1.2022.12(Sun Oct 23 15:12:26 BRT 2022)
(GPL source distribution)
Java Runtime: Java(TM) SE Runtime Environment
JVM: Java HotSpot(TM) 64-Bit Server VM
Default Encoding: Cp1252
Language: pt
Country: BR
--></g></svg>