<?xml version="1.0" encoding="UTF-8" standalone="no"?><svg xmlns="http://www.w3.org/2000/svg" xmlns:xlink="http://www.w3.org/1999/xlink" contentStyleType="text/css" height="1071px" preserveAspectRatio="none" style="width:2106px;height:1071px;background:#FFFFFF;" version="1.1" viewBox="0 0 2106 1071" width="2106px" zoomAndPan="magnify"><defs/><g><ellipse cx="944.125" cy="20" fill="#222222" rx="10" ry="10" style="stroke:#222222;stroke-width:1.0;"/><rect fill="#F1F1F1" height="35.0938" rx="12.5" ry="12.5" style="stroke:#181818;stroke-width:0.5;" width="311" x="788.625" y="50"/><text fill="#000000" font-family="sans-serif" font-size="12" lengthAdjust="spacing" textLength="291" x="798.625" y="72.457">Usuário acessa a opção "Agenda de Audiências"</text><rect fill="#F1F1F1" height="35.0938" rx="12.5" ry="12.5" style="stroke:#181818;stroke-width:0.5;" width="473" x="707.625" y="105.0938"/><text fill="#000000" font-family="sans-serif" font-size="12" lengthAdjust="spacing" textLength="453" x="717.625" y="127.5508">Sistema exibe o calendário ou lista de audiências organizadas cronologicamente</text><polygon fill="#F1F1F1" points="827.125,160.1875,1061.125,160.1875,1073.125,172.1875,1061.125,184.1875,827.125,184.1875,815.125,172.1875,827.125,160.1875" style="stroke:#181818;stroke-width:0.5;"/><text fill="#000000" font-family="sans-serif" font-size="11" lengthAdjust="spacing" textLength="234" x="827.125" y="176.6885">Usuário deseja adicionar uma nova audiência?</text><text fill="#000000" font-family="sans-serif" font-size="11" lengthAdjust="spacing" textLength="17" x="798.125" y="169.7705">Sim</text><text fill="#000000" font-family="sans-serif" font-size="11" lengthAdjust="spacing" textLength="27" x="1073.125" y="169.7705">Não</text><rect fill="#F1F1F1" height="35.0938" rx="12.5" ry="12.5" style="stroke:#181818;stroke-width:0.5;" width="239" x="259.5" y="194.1875"/><text fill="#000000" font-family="sans-serif" font-size="12" lengthAdjust="spacing" textLength="219" x="269.5" y="216.6445">Usuário clica em "Adicionar Audiência"</text><rect fill="#F1F1F1" height="50.1875" rx="12.5" ry="12.5" style="stroke:#181818;stroke-width:0.5;" width="356" x="201" y="264.2813"/><text fill="#000000" font-family="sans-serif" font-size="12" lengthAdjust="spacing" textLength="336" x="211" y="286.7383">Sistema exibe formulário para nova audiência com campos:</text><text fill="#000000" font-family="sans-serif" font-size="12" lengthAdjust="spacing" textLength="33" x="211" y="301.832">- Data</text><rect fill="#F1F1F1" height="35.0938" rx="12.5" ry="12.5" style="stroke:#181818;stroke-width:0.5;" width="53" x="352.5" y="349.4688"/><text fill="#000000" font-family="sans-serif" font-size="12" lengthAdjust="spacing" textLength="30" x="365.5" y="371.9258">Hora;</text><rect fill="#F1F1F1" height="35.0938" rx="12.5" ry="12.5" style="stroke:#181818;stroke-width:0.5;" width="56" x="351" y="419.5625"/><text fill="#000000" font-family="sans-serif" font-size="12" lengthAdjust="spacing" textLength="33" x="364" y="442.0195">Local;</text><rect fill="#F1F1F1" height="35.0938" rx="12.5" ry="12.5" style="stroke:#181818;stroke-width:0.5;" width="147" x="305.5" y="489.6563"/><text fill="#000000" font-family="sans-serif" font-size="12" lengthAdjust="spacing" textLength="124" x="318.5" y="512.1133">Processo relacionado;</text><rect fill="#F1F1F1" height="35.0938" rx="12.5" ry="12.5" style="stroke:#181818;stroke-width:0.5;" width="114" x="322" y="559.75"/><text fill="#000000" font-family="sans-serif" font-size="12" lengthAdjust="spacing" textLength="91" x="335" y="582.207">Observações;</text><rect fill="#F1F1F1" height="35.0938" rx="12.5" ry="12.5" style="stroke:#181818;stroke-width:0.5;" width="291" x="233.5" y="629.8438"/><text fill="#000000" font-family="sans-serif" font-size="12" lengthAdjust="spacing" textLength="271" x="243.5" y="652.3008">Usuário preenche os campos e clica em "Salvar"</text><rect fill="#F1F1F1" height="35.0938" rx="12.5" ry="12.5" style="stroke:#181818;stroke-width:0.5;" width="190" x="284" y="699.9375"/><text fill="#000000" font-family="sans-serif" font-size="12" lengthAdjust="spacing" textLength="143" x="294" y="722.3945">Sistema valida os dados (</text><text fill="#000000" font-family="sans-serif" font-size="12" font-weight="bold" lengthAdjust="spacing" textLength="23" x="437" y="722.3945">RN9</text><text fill="#000000" font-family="sans-serif" font-size="12" lengthAdjust="spacing" textLength="4" x="460" y="722.3945">)</text><polygon fill="#F1F1F1" points="340,770.0313,418,770.0313,430,782.0313,418,794.0313,340,794.0313,328,782.0313,340,770.0313" style="stroke:#181818;stroke-width:0.5;"/><text fill="#000000" font-family="sans-serif" font-size="11" lengthAdjust="spacing" textLength="78" x="340" y="786.5322">Dados válidos?</text><text fill="#000000" font-family="sans-serif" font-size="11" lengthAdjust="spacing" textLength="17" x="311" y="779.6143">Sim</text><text fill="#000000" font-family="sans-serif" font-size="11" lengthAdjust="spacing" textLength="27" x="430" y="779.6143">Não</text><rect fill="#F1F1F1" height="35.0938" rx="12.5" ry="12.5" style="stroke:#181818;stroke-width:0.5;" width="198" x="93.5" y="804.0313"/><text fill="#000000" font-family="sans-serif" font-size="12" lengthAdjust="spacing" textLength="178" x="103.5" y="826.4883">Sistema salva a nova audiência</text><rect fill="#F1F1F1" height="35.0938" rx="12.5" ry="12.5" style="stroke:#181818;stroke-width:0.5;" width="166" x="109.5" y="867.9375"/><text fill="#000000" font-family="sans-serif" font-size="12" lengthAdjust="spacing" textLength="146" x="119.5" y="890.3945">Sistema atualiza a agenda</text><rect fill="#F1F1F1" height="35.0938" rx="12.5" ry="12.5" style="stroke:#181818;stroke-width:0.5;" width="363" x="11" y="923.0313"/><text fill="#000000" font-family="sans-serif" font-size="12" lengthAdjust="spacing" textLength="343" x="21" y="945.4883">Sistema exibe MSG08 ("Audiência adicionada com sucesso.")</text><rect fill="#F1F1F1" height="35.0938" rx="12.5" ry="12.5" style="stroke:#181818;stroke-width:0.5;" width="343" x="394" y="804.0313"/><text fill="#000000" font-family="sans-serif" font-size="12" lengthAdjust="spacing" textLength="323" x="404" y="826.4883">Sistema exibe MSG05 ("Dados inválidos ou incompletos.")</text><rect fill="#F1F1F1" height="35.0938" rx="12.5" ry="12.5" style="stroke:#181818;stroke-width:0.5;" width="211" x="460" y="867.9375"/><text fill="#000000" font-family="sans-serif" font-size="12" lengthAdjust="spacing" textLength="191" x="470" y="890.3945">Retorna ao formulário de cadastro</text><polygon fill="#F1F1F1" points="379,964.125,391,976.125,379,988.125,367,976.125,379,964.125" style="stroke:#181818;stroke-width:0.5;"/><polygon fill="#F1F1F1" points="1390.75,194.1875,1627.75,194.1875,1639.75,206.1875,1627.75,218.1875,1390.75,218.1875,1378.75,206.1875,1390.75,194.1875" style="stroke:#181818;stroke-width:0.5;"/><text fill="#000000" font-family="sans-serif" font-size="11" lengthAdjust="spacing" textLength="237" x="1390.75" y="210.6885">Usuário deseja editar uma audiência existente?</text><text fill="#000000" font-family="sans-serif" font-size="11" lengthAdjust="spacing" textLength="17" x="1361.75" y="203.7705">Sim</text><text fill="#000000" font-family="sans-serif" font-size="11" lengthAdjust="spacing" textLength="27" x="1639.75" y="203.7705">Não</text><rect fill="#F1F1F1" height="35.0938" rx="12.5" ry="12.5" style="stroke:#181818;stroke-width:0.5;" width="257" x="1022.75" y="228.1875"/><text fill="#000000" font-family="sans-serif" font-size="12" lengthAdjust="spacing" textLength="237" x="1032.75" y="250.6445">Usuário seleciona a audiência na agenda</text><rect fill="#F1F1F1" height="35.0938" rx="12.5" ry="12.5" style="stroke:#181818;stroke-width:0.5;" width="159" x="1071.75" y="298.2813"/><text fill="#000000" font-family="sans-serif" font-size="12" lengthAdjust="spacing" textLength="139" x="1081.75" y="320.7383">Usuário clica em "Editar"</text><rect fill="#F1F1F1" height="35.0938" rx="12.5" ry="12.5" style="stroke:#181818;stroke-width:0.5;" width="231" x="1035.75" y="368.375"/><text fill="#000000" font-family="sans-serif" font-size="12" lengthAdjust="spacing" textLength="211" x="1045.75" y="390.832">Sistema exibe os dados da audiência</text><rect fill="#F1F1F1" height="35.0938" rx="12.5" ry="12.5" style="stroke:#181818;stroke-width:0.5;" width="348" x="977.25" y="438.4688"/><text fill="#000000" font-family="sans-serif" font-size="12" lengthAdjust="spacing" textLength="328" x="987.25" y="460.9258">Usuário modifica os campos desejados e clica em "Salvar"</text><rect fill="#F1F1F1" height="35.0938" rx="12.5" ry="12.5" style="stroke:#181818;stroke-width:0.5;" width="190" x="1056.25" y="508.5625"/><text fill="#000000" font-family="sans-serif" font-size="12" lengthAdjust="spacing" textLength="143" x="1066.25" y="531.0195">Sistema valida os dados (</text><text fill="#000000" font-family="sans-serif" font-size="12" font-weight="bold" lengthAdjust="spacing" textLength="23" x="1209.25" y="531.0195">RN9</text><text fill="#000000" font-family="sans-serif" font-size="12" lengthAdjust="spacing" textLength="4" x="1232.25" y="531.0195">)</text><polygon fill="#F1F1F1" points="1112.25,578.6563,1190.25,578.6563,1202.25,590.6563,1190.25,602.6563,1112.25,602.6563,1100.25,590.6563,1112.25,578.6563" style="stroke:#181818;stroke-width:0.5;"/><text fill="#000000" font-family="sans-serif" font-size="11" lengthAdjust="spacing" textLength="78" x="1112.25" y="595.1572">Dados válidos?</text><text fill="#000000" font-family="sans-serif" font-size="11" lengthAdjust="spacing" textLength="17" x="1083.25" y="588.2393">Sim</text><text fill="#000000" font-family="sans-serif" font-size="11" lengthAdjust="spacing" textLength="27" x="1202.25" y="588.2393">Não</text><rect fill="#F1F1F1" height="35.0938" rx="12.5" ry="12.5" style="stroke:#181818;stroke-width:0.5;" width="182" x="875" y="612.6563"/><text fill="#000000" font-family="sans-serif" font-size="12" lengthAdjust="spacing" textLength="162" x="885" y="635.1133">Sistema atualiza a audiência</text><rect fill="#F1F1F1" height="35.0938" rx="12.5" ry="12.5" style="stroke:#181818;stroke-width:0.5;" width="166" x="883" y="682.75"/><text fill="#000000" font-family="sans-serif" font-size="12" lengthAdjust="spacing" textLength="146" x="893" y="705.207">Sistema atualiza a agenda</text><rect fill="#F1F1F1" height="35.0938" rx="12.5" ry="12.5" style="stroke:#181818;stroke-width:0.5;" width="358" x="787" y="752.8438"/><text fill="#000000" font-family="sans-serif" font-size="12" lengthAdjust="spacing" textLength="338" x="797" y="775.3008">Sistema exibe MSG08 ("Audiência atualizada com sucesso.")</text><rect fill="#F1F1F1" height="35.0938" rx="12.5" ry="12.5" style="stroke:#181818;stroke-width:0.5;" width="343" x="1165" y="612.6563"/><text fill="#000000" font-family="sans-serif" font-size="12" lengthAdjust="spacing" textLength="323" x="1175" y="635.1133">Sistema exibe MSG05 ("Dados inválidos ou incompletos.")</text><rect fill="#F1F1F1" height="35.0938" rx="12.5" ry="12.5" style="stroke:#181818;stroke-width:0.5;" width="215" x="1229" y="682.75"/><text fill="#000000" font-family="sans-serif" font-size="12" lengthAdjust="spacing" textLength="195" x="1239" y="705.207">Retorna ao formulário de edição</text><polygon fill="#F1F1F1" points="1151.25,793.9375,1163.25,805.9375,1151.25,817.9375,1139.25,805.9375,1151.25,793.9375" style="stroke:#181818;stroke-width:0.5;"/><polygon fill="#F1F1F1" points="1765.75,228.1875,1968.75,228.1875,1980.75,240.1875,1968.75,252.1875,1765.75,252.1875,1753.75,240.1875,1765.75,228.1875" style="stroke:#181818;stroke-width:0.5;"/><text fill="#000000" font-family="sans-serif" font-size="11" lengthAdjust="spacing" textLength="203" x="1765.75" y="244.6885">Usuário deseja remover uma audiência?</text><text fill="#000000" font-family="sans-serif" font-size="11" lengthAdjust="spacing" textLength="17" x="1736.75" y="237.7705">Sim</text><text fill="#000000" font-family="sans-serif" font-size="11" lengthAdjust="spacing" textLength="27" x="1980.75" y="237.7705">Não</text><rect fill="#F1F1F1" height="35.0938" rx="12.5" ry="12.5" style="stroke:#181818;stroke-width:0.5;" width="257" x="1597" y="262.1875"/><text fill="#000000" font-family="sans-serif" font-size="12" lengthAdjust="spacing" textLength="237" x="1607" y="284.6445">Usuário seleciona a audiência na agenda</text><rect fill="#F1F1F1" height="35.0938" rx="12.5" ry="12.5" style="stroke:#181818;stroke-width:0.5;" width="163" x="1644" y="332.2813"/><text fill="#000000" font-family="sans-serif" font-size="12" lengthAdjust="spacing" textLength="143" x="1654" y="354.7383">Usuário clica em "Excluir"</text><rect fill="#F1F1F1" height="35.0938" rx="12.5" ry="12.5" style="stroke:#181818;stroke-width:0.5;" width="194" x="1628.5" y="402.375"/><text fill="#000000" font-family="sans-serif" font-size="12" lengthAdjust="spacing" textLength="174" x="1638.5" y="424.832">Sistema solicita confirmação</text><rect fill="#F1F1F1" height="35.0938" rx="12.5" ry="12.5" style="stroke:#181818;stroke-width:0.5;" width="177" x="1637" y="472.4688"/><text fill="#000000" font-family="sans-serif" font-size="12" lengthAdjust="spacing" textLength="157" x="1647" y="494.9258">Usuário confirma exclusão</text><rect fill="#F1F1F1" height="35.0938" rx="12.5" ry="12.5" style="stroke:#181818;stroke-width:0.5;" width="181" x="1635" y="542.5625"/><text fill="#000000" font-family="sans-serif" font-size="12" lengthAdjust="spacing" textLength="161" x="1645" y="565.0195">Sistema remove a audiência</text><rect fill="#F1F1F1" height="35.0938" rx="12.5" ry="12.5" style="stroke:#181818;stroke-width:0.5;" width="166" x="1642.5" y="612.6563"/><text fill="#000000" font-family="sans-serif" font-size="12" lengthAdjust="spacing" textLength="146" x="1652.5" y="635.1133">Sistema atualiza a agenda</text><rect fill="#F1F1F1" height="35.0938" rx="12.5" ry="12.5" style="stroke:#181818;stroke-width:0.5;" width="355" x="1548" y="682.75"/><text fill="#000000" font-family="sans-serif" font-size="12" lengthAdjust="spacing" textLength="335" x="1558" y="705.207">Sistema exibe MSG12 ("Audiência excluída com sucesso.")</text><rect fill="#F1F1F1" height="35.0938" rx="12.5" ry="12.5" style="stroke:#181818;stroke-width:0.5;" width="172" x="1923" y="262.1875"/><text fill="#000000" font-family="sans-serif" font-size="12" lengthAdjust="spacing" textLength="152" x="1933" y="284.6445">Usuário visualiza a agenda</text><polygon fill="#F1F1F1" points="1867.25,723.8438,1879.25,735.8438,1867.25,747.8438,1855.25,735.8438,1867.25,723.8438" style="stroke:#181818;stroke-width:0.5;"/><polygon fill="#F1F1F1" points="1509.25,823.9375,1521.25,835.9375,1509.25,847.9375,1497.25,835.9375,1509.25,823.9375" style="stroke:#181818;stroke-width:0.5;"/><polygon fill="#F1F1F1" points="944.125,994.125,956.125,1006.125,944.125,1018.125,932.125,1006.125,944.125,994.125" style="stroke:#181818;stroke-width:0.5;"/><ellipse cx="944.125" cy="1049.125" fill="none" rx="11" ry="11" style="stroke:#222222;stroke-width:1.0;"/><ellipse cx="944.125" cy="1049.125" fill="#222222" rx="6" ry="6" style="stroke:#111111;stroke-width:1.0;"/><line style="stroke:#181818;stroke-width:1.0;" x1="944.125" x2="944.125" y1="30" y2="50"/><polygon fill="#181818" points="940.125,40,944.125,50,948.125,40,944.125,44" style="stroke:#181818;stroke-width:1.0;"/><line style="stroke:#181818;stroke-width:1.0;" x1="944.125" x2="944.125" y1="85.0938" y2="105.0938"/><polygon fill="#181818" points="940.125,95.0938,944.125,105.0938,948.125,95.0938,944.125,99.0938" style="stroke:#181818;stroke-width:1.0;"/><line style="stroke:#181818;stroke-width:1.0;" x1="379" x2="379" y1="229.2813" y2="264.2813"/><polygon fill="#181818" points="375,254.2813,379,264.2813,383,254.2813,379,258.2813" style="stroke:#181818;stroke-width:1.0;"/><line style="stroke:#181818;stroke-width:1.0;" x1="379" x2="379" y1="314.4688" y2="349.4688"/><polygon fill="#181818" points="375,339.4688,379,349.4688,383,339.4688,379,343.4688" style="stroke:#181818;stroke-width:1.0;"/><line style="stroke:#181818;stroke-width:1.0;" x1="379" x2="379" y1="384.5625" y2="419.5625"/><polygon fill="#181818" points="375,409.5625,379,419.5625,383,409.5625,379,413.5625" style="stroke:#181818;stroke-width:1.0;"/><line style="stroke:#181818;stroke-width:1.0;" x1="379" x2="379" y1="454.6563" y2="489.6563"/><polygon fill="#181818" points="375,479.6563,379,489.6563,383,479.6563,379,483.6563" style="stroke:#181818;stroke-width:1.0;"/><line style="stroke:#181818;stroke-width:1.0;" x1="379" x2="379" y1="524.75" y2="559.75"/><polygon fill="#181818" points="375,549.75,379,559.75,383,549.75,379,553.75" style="stroke:#181818;stroke-width:1.0;"/><line style="stroke:#181818;stroke-width:1.0;" x1="379" x2="379" y1="594.8438" y2="629.8438"/><polygon fill="#181818" points="375,619.8438,379,629.8438,383,619.8438,379,623.8438" style="stroke:#181818;stroke-width:1.0;"/><line style="stroke:#181818;stroke-width:1.0;" x1="379" x2="379" y1="664.9375" y2="699.9375"/><polygon fill="#181818" points="375,689.9375,379,699.9375,383,689.9375,379,693.9375" style="stroke:#181818;stroke-width:1.0;"/><line style="stroke:#181818;stroke-width:1.0;" x1="192.5" x2="192.5" y1="839.125" y2="867.9375"/><polygon fill="#181818" points="188.5,857.9375,192.5,867.9375,196.5,857.9375,192.5,861.9375" style="stroke:#181818;stroke-width:1.0;"/><line style="stroke:#181818;stroke-width:1.0;" x1="192.5" x2="192.5" y1="903.0313" y2="923.0313"/><polygon fill="#181818" points="188.5,913.0313,192.5,923.0313,196.5,913.0313,192.5,917.0313" style="stroke:#181818;stroke-width:1.0;"/><line style="stroke:#181818;stroke-width:1.0;" x1="565.5" x2="565.5" y1="839.125" y2="867.9375"/><polygon fill="#181818" points="561.5,857.9375,565.5,867.9375,569.5,857.9375,565.5,861.9375" style="stroke:#181818;stroke-width:1.0;"/><line style="stroke:#181818;stroke-width:1.0;" x1="328" x2="192.5" y1="782.0313" y2="782.0313"/><line style="stroke:#181818;stroke-width:1.0;" x1="192.5" x2="192.5" y1="782.0313" y2="804.0313"/><polygon fill="#181818" points="188.5,794.0313,192.5,804.0313,196.5,794.0313,192.5,798.0313" style="stroke:#181818;stroke-width:1.0;"/><line style="stroke:#181818;stroke-width:1.0;" x1="430" x2="565.5" y1="782.0313" y2="782.0313"/><line style="stroke:#181818;stroke-width:1.0;" x1="565.5" x2="565.5" y1="782.0313" y2="804.0313"/><polygon fill="#181818" points="561.5,794.0313,565.5,804.0313,569.5,794.0313,565.5,798.0313" style="stroke:#181818;stroke-width:1.0;"/><line style="stroke:#181818;stroke-width:1.0;" x1="192.5" x2="192.5" y1="958.125" y2="976.125"/><line style="stroke:#181818;stroke-width:1.0;" x1="192.5" x2="367" y1="976.125" y2="976.125"/><polygon fill="#181818" points="357,972.125,367,976.125,357,980.125,361,976.125" style="stroke:#181818;stroke-width:1.0;"/><line style="stroke:#181818;stroke-width:1.0;" x1="565.5" x2="565.5" y1="903.0313" y2="976.125"/><line style="stroke:#181818;stroke-width:1.0;" x1="565.5" x2="391" y1="976.125" y2="976.125"/><polygon fill="#181818" points="401,972.125,391,976.125,401,980.125,397,976.125" style="stroke:#181818;stroke-width:1.0;"/><line style="stroke:#181818;stroke-width:1.0;" x1="379" x2="379" y1="735.0313" y2="770.0313"/><polygon fill="#181818" points="375,760.0313,379,770.0313,383,760.0313,379,764.0313" style="stroke:#181818;stroke-width:1.0;"/><line style="stroke:#181818;stroke-width:1.0;" x1="1151.25" x2="1151.25" y1="263.2813" y2="298.2813"/><polygon fill="#181818" points="1147.25,288.2813,1151.25,298.2813,1155.25,288.2813,1151.25,292.2813" style="stroke:#181818;stroke-width:1.0;"/><line style="stroke:#181818;stroke-width:1.0;" x1="1151.25" x2="1151.25" y1="333.375" y2="368.375"/><polygon fill="#181818" points="1147.25,358.375,1151.25,368.375,1155.25,358.375,1151.25,362.375" style="stroke:#181818;stroke-width:1.0;"/><line style="stroke:#181818;stroke-width:1.0;" x1="1151.25" x2="1151.25" y1="403.4688" y2="438.4688"/><polygon fill="#181818" points="1147.25,428.4688,1151.25,438.4688,1155.25,428.4688,1151.25,432.4688" style="stroke:#181818;stroke-width:1.0;"/><line style="stroke:#181818;stroke-width:1.0;" x1="1151.25" x2="1151.25" y1="473.5625" y2="508.5625"/><polygon fill="#181818" points="1147.25,498.5625,1151.25,508.5625,1155.25,498.5625,1151.25,502.5625" style="stroke:#181818;stroke-width:1.0;"/><line style="stroke:#181818;stroke-width:1.0;" x1="966" x2="966" y1="647.75" y2="682.75"/><polygon fill="#181818" points="962,672.75,966,682.75,970,672.75,966,676.75" style="stroke:#181818;stroke-width:1.0;"/><line style="stroke:#181818;stroke-width:1.0;" x1="966" x2="966" y1="717.8438" y2="752.8438"/><polygon fill="#181818" points="962,742.8438,966,752.8438,970,742.8438,966,746.8438" style="stroke:#181818;stroke-width:1.0;"/><line style="stroke:#181818;stroke-width:1.0;" x1="1336.5" x2="1336.5" y1="647.75" y2="682.75"/><polygon fill="#181818" points="1332.5,672.75,1336.5,682.75,1340.5,672.75,1336.5,676.75" style="stroke:#181818;stroke-width:1.0;"/><line style="stroke:#181818;stroke-width:1.0;" x1="1100.25" x2="966" y1="590.6563" y2="590.6563"/><line style="stroke:#181818;stroke-width:1.0;" x1="966" x2="966" y1="590.6563" y2="612.6563"/><polygon fill="#181818" points="962,602.6563,966,612.6563,970,602.6563,966,606.6563" style="stroke:#181818;stroke-width:1.0;"/><line style="stroke:#181818;stroke-width:1.0;" x1="1202.25" x2="1336.5" y1="590.6563" y2="590.6563"/><line style="stroke:#181818;stroke-width:1.0;" x1="1336.5" x2="1336.5" y1="590.6563" y2="612.6563"/><polygon fill="#181818" points="1332.5,602.6563,1336.5,612.6563,1340.5,602.6563,1336.5,606.6563" style="stroke:#181818;stroke-width:1.0;"/><line style="stroke:#181818;stroke-width:1.0;" x1="966" x2="966" y1="787.9375" y2="805.9375"/><line style="stroke:#181818;stroke-width:1.0;" x1="966" x2="1139.25" y1="805.9375" y2="805.9375"/><polygon fill="#181818" points="1129.25,801.9375,1139.25,805.9375,1129.25,809.9375,1133.25,805.9375" style="stroke:#181818;stroke-width:1.0;"/><line style="stroke:#181818;stroke-width:1.0;" x1="1336.5" x2="1336.5" y1="717.8438" y2="805.9375"/><line style="stroke:#181818;stroke-width:1.0;" x1="1336.5" x2="1163.25" y1="805.9375" y2="805.9375"/><polygon fill="#181818" points="1173.25,801.9375,1163.25,805.9375,1173.25,809.9375,1169.25,805.9375" style="stroke:#181818;stroke-width:1.0;"/><line style="stroke:#181818;stroke-width:1.0;" x1="1151.25" x2="1151.25" y1="543.6563" y2="578.6563"/><polygon fill="#181818" points="1147.25,568.6563,1151.25,578.6563,1155.25,568.6563,1151.25,572.6563" style="stroke:#181818;stroke-width:1.0;"/><line style="stroke:#181818;stroke-width:1.0;" x1="1725.5" x2="1725.5" y1="297.2813" y2="332.2813"/><polygon fill="#181818" points="1721.5,322.2813,1725.5,332.2813,1729.5,322.2813,1725.5,326.2813" style="stroke:#181818;stroke-width:1.0;"/><line style="stroke:#181818;stroke-width:1.0;" x1="1725.5" x2="1725.5" y1="367.375" y2="402.375"/><polygon fill="#181818" points="1721.5,392.375,1725.5,402.375,1729.5,392.375,1725.5,396.375" style="stroke:#181818;stroke-width:1.0;"/><line style="stroke:#181818;stroke-width:1.0;" x1="1725.5" x2="1725.5" y1="437.4688" y2="472.4688"/><polygon fill="#181818" points="1721.5,462.4688,1725.5,472.4688,1729.5,462.4688,1725.5,466.4688" style="stroke:#181818;stroke-width:1.0;"/><line style="stroke:#181818;stroke-width:1.0;" x1="1725.5" x2="1725.5" y1="507.5625" y2="542.5625"/><polygon fill="#181818" points="1721.5,532.5625,1725.5,542.5625,1729.5,532.5625,1725.5,536.5625" style="stroke:#181818;stroke-width:1.0;"/><line style="stroke:#181818;stroke-width:1.0;" x1="1725.5" x2="1725.5" y1="577.6563" y2="612.6563"/><polygon fill="#181818" points="1721.5,602.6563,1725.5,612.6563,1729.5,602.6563,1725.5,606.6563" style="stroke:#181818;stroke-width:1.0;"/><line style="stroke:#181818;stroke-width:1.0;" x1="1725.5" x2="1725.5" y1="647.75" y2="682.75"/><polygon fill="#181818" points="1721.5,672.75,1725.5,682.75,1729.5,672.75,1725.5,676.75" style="stroke:#181818;stroke-width:1.0;"/><line style="stroke:#181818;stroke-width:1.0;" x1="1753.75" x2="1725.5" y1="240.1875" y2="240.1875"/><line style="stroke:#181818;stroke-width:1.0;" x1="1725.5" x2="1725.5" y1="240.1875" y2="262.1875"/><polygon fill="#181818" points="1721.5,252.1875,1725.5,262.1875,1729.5,252.1875,1725.5,256.1875" style="stroke:#181818;stroke-width:1.0;"/><line style="stroke:#181818;stroke-width:1.0;" x1="1980.75" x2="2009" y1="240.1875" y2="240.1875"/><line style="stroke:#181818;stroke-width:1.0;" x1="2009" x2="2009" y1="240.1875" y2="262.1875"/><polygon fill="#181818" points="2005,252.1875,2009,262.1875,2013,252.1875,2009,256.1875" style="stroke:#181818;stroke-width:1.0;"/><line style="stroke:#181818;stroke-width:1.0;" x1="1725.5" x2="1725.5" y1="717.8438" y2="735.8438"/><line style="stroke:#181818;stroke-width:1.0;" x1="1725.5" x2="1855.25" y1="735.8438" y2="735.8438"/><polygon fill="#181818" points="1845.25,731.8438,1855.25,735.8438,1845.25,739.8438,1849.25,735.8438" style="stroke:#181818;stroke-width:1.0;"/><line style="stroke:#181818;stroke-width:1.0;" x1="2009" x2="2009" y1="297.2813" y2="735.8438"/><line style="stroke:#181818;stroke-width:1.0;" x1="2009" x2="1879.25" y1="735.8438" y2="735.8438"/><polygon fill="#181818" points="1889.25,731.8438,1879.25,735.8438,1889.25,739.8438,1885.25,735.8438" style="stroke:#181818;stroke-width:1.0;"/><line style="stroke:#181818;stroke-width:1.0;" x1="1378.75" x2="1151.25" y1="206.1875" y2="206.1875"/><line style="stroke:#181818;stroke-width:1.0;" x1="1151.25" x2="1151.25" y1="206.1875" y2="228.1875"/><polygon fill="#181818" points="1147.25,218.1875,1151.25,228.1875,1155.25,218.1875,1151.25,222.1875" style="stroke:#181818;stroke-width:1.0;"/><line style="stroke:#181818;stroke-width:1.0;" x1="1639.75" x2="1867.25" y1="206.1875" y2="206.1875"/><line style="stroke:#181818;stroke-width:1.0;" x1="1867.25" x2="1867.25" y1="206.1875" y2="228.1875"/><polygon fill="#181818" points="1863.25,218.1875,1867.25,228.1875,1871.25,218.1875,1867.25,222.1875" style="stroke:#181818;stroke-width:1.0;"/><line style="stroke:#181818;stroke-width:1.0;" x1="1151.25" x2="1151.25" y1="817.9375" y2="835.9375"/><line style="stroke:#181818;stroke-width:1.0;" x1="1151.25" x2="1497.25" y1="835.9375" y2="835.9375"/><polygon fill="#181818" points="1487.25,831.9375,1497.25,835.9375,1487.25,839.9375,1491.25,835.9375" style="stroke:#181818;stroke-width:1.0;"/><line style="stroke:#181818;stroke-width:1.0;" x1="1867.25" x2="1867.25" y1="747.8438" y2="835.9375"/><line style="stroke:#181818;stroke-width:1.0;" x1="1867.25" x2="1521.25" y1="835.9375" y2="835.9375"/><polygon fill="#181818" points="1531.25,831.9375,1521.25,835.9375,1531.25,839.9375,1527.25,835.9375" style="stroke:#181818;stroke-width:1.0;"/><line style="stroke:#181818;stroke-width:1.0;" x1="815.125" x2="379" y1="172.1875" y2="172.1875"/><line style="stroke:#181818;stroke-width:1.0;" x1="379" x2="379" y1="172.1875" y2="194.1875"/><polygon fill="#181818" points="375,184.1875,379,194.1875,383,184.1875,379,188.1875" style="stroke:#181818;stroke-width:1.0;"/><line style="stroke:#181818;stroke-width:1.0;" x1="1073.125" x2="1509.25" y1="172.1875" y2="172.1875"/><line style="stroke:#181818;stroke-width:1.0;" x1="1509.25" x2="1509.25" y1="172.1875" y2="194.1875"/><polygon fill="#181818" points="1505.25,184.1875,1509.25,194.1875,1513.25,184.1875,1509.25,188.1875" style="stroke:#181818;stroke-width:1.0;"/><line style="stroke:#181818;stroke-width:1.0;" x1="379" x2="379" y1="988.125" y2="1006.125"/><line style="stroke:#181818;stroke-width:1.0;" x1="379" x2="932.125" y1="1006.125" y2="1006.125"/><polygon fill="#181818" points="922.125,1002.125,932.125,1006.125,922.125,1010.125,926.125,1006.125" style="stroke:#181818;stroke-width:1.0;"/><line style="stroke:#181818;stroke-width:1.0;" x1="1509.25" x2="1509.25" y1="847.9375" y2="1006.125"/><line style="stroke:#181818;stroke-width:1.0;" x1="1509.25" x2="956.125" y1="1006.125" y2="1006.125"/><polygon fill="#181818" points="966.125,1002.125,956.125,1006.125,966.125,1010.125,962.125,1006.125" style="stroke:#181818;stroke-width:1.0;"/><line style="stroke:#181818;stroke-width:1.0;" x1="944.125" x2="944.125" y1="140.1875" y2="160.1875"/><polygon fill="#181818" points="940.125,150.1875,944.125,160.1875,948.125,150.1875,944.125,154.1875" style="stroke:#181818;stroke-width:1.0;"/><line style="stroke:#181818;stroke-width:1.0;" x1="944.125" x2="944.125" y1="1018.125" y2="1038.125"/><polygon fill="#181818" points="940.125,1028.125,944.125,1038.125,948.125,1028.125,944.125,1032.125" style="stroke:#181818;stroke-width:1.0;"/><!--MD5=[213ea655e7aad790dc196cecad5b5dee]
@startuml
start

:Usuário acessa a opção "Agenda de Audiências";

:Sistema exibe o calendário ou lista de audiências organizadas cronologicamente;

if (Usuário deseja adicionar uma nova audiência?) then (Sim)
    :Usuário clica em "Adicionar Audiência";
    :Sistema exibe formulário para nova audiência com campos:
    - Data;
    - Hora;
    - Local;
    - Processo relacionado;
    - Observações;
    :Usuário preenche os campos e clica em "Salvar";
    :Sistema valida os dados (**RN9**);
    if (Dados válidos?) then (Sim)
        :Sistema salva a nova audiência;
        :Sistema atualiza a agenda;
        :Sistema exibe MSG08 ("Audiência adicionada com sucesso.");
    else (Não)
        :Sistema exibe MSG05 ("Dados inválidos ou incompletos.");
        :Retorna ao formulário de cadastro;
    endif
else (Não)
    if (Usuário deseja editar uma audiência existente?) then (Sim)
        :Usuário seleciona a audiência na agenda;
        :Usuário clica em "Editar";
        :Sistema exibe os dados da audiência;
        :Usuário modifica os campos desejados e clica em "Salvar";
        :Sistema valida os dados (**RN9**);
        if (Dados válidos?) then (Sim)
            :Sistema atualiza a audiência;
            :Sistema atualiza a agenda;
            :Sistema exibe MSG08 ("Audiência atualizada com sucesso.");
        else (Não)
            :Sistema exibe MSG05 ("Dados inválidos ou incompletos.");
            :Retorna ao formulário de edição;
        endif
    else (Não)
        if (Usuário deseja remover uma audiência?) then (Sim)
            :Usuário seleciona a audiência na agenda;
            :Usuário clica em "Excluir";
            :Sistema solicita confirmação;
            :Usuário confirma exclusão;
            :Sistema remove a audiência;
            :Sistema atualiza a agenda;
            :Sistema exibe MSG12 ("Audiência excluída com sucesso.");
        else (Não)
            :Usuário visualiza a agenda;
        endif
    endif
endif

stop
@enduml

PlantUML version 1.2022.12(Sun Oct 23 15:12:26 BRT 2022)
(GPL source distribution)
Java Runtime: Java(TM) SE Runtime Environment
JVM: Java HotSpot(TM) 64-Bit Server VM
Default Encoding: Cp1252
Language: pt
Country: BR
--></g></svg>