<?xml version="1.0" encoding="UTF-8" standalone="no"?><svg xmlns="http://www.w3.org/2000/svg" xmlns:xlink="http://www.w3.org/1999/xlink" contentStyleType="text/css" height="593px" preserveAspectRatio="none" style="width:376px;height:593px;background:#FFFFFF;" version="1.1" viewBox="0 0 376 593" width="376px" zoomAndPan="magnify"><defs/><g><ellipse cx="188" cy="20" fill="#222222" rx="10" ry="10" style="stroke:#222222;stroke-width:1.0;"/><rect fill="#F1F1F1" height="35.0938" rx="12.5" ry="12.5" style="stroke:#181818;stroke-width:0.5;" width="226" x="75" y="50"/><text fill="#000000" font-family="sans-serif" font-size="12" lengthAdjust="spacing" textLength="206" x="85" y="72.457">Usuário acessa a lista de processos</text><rect fill="#F1F1F1" height="35.0938" rx="12.5" ry="12.5" style="stroke:#181818;stroke-width:0.5;" width="242" x="67" y="105.0938"/><text fill="#000000" font-family="sans-serif" font-size="12" lengthAdjust="spacing" textLength="222" x="77" y="127.5508">Sistema exibe os processos do usuário</text><rect fill="#F1F1F1" height="35.0938" rx="12.5" ry="12.5" style="stroke:#181818;stroke-width:0.5;" width="200" x="88" y="160.1875"/><text fill="#000000" font-family="sans-serif" font-size="12" lengthAdjust="spacing" textLength="180" x="98" y="182.6445">Usuário seleciona um processo</text><rect fill="#F1F1F1" height="50.1875" rx="12.5" ry="12.5" style="stroke:#181818;stroke-width:0.5;" width="181" x="97.5" y="215.2813"/><text fill="#000000" font-family="sans-serif" font-size="12" lengthAdjust="spacing" textLength="161" x="107.5" y="237.7383">Usuário escolhe a categoria:</text><text fill="#000000" font-family="sans-serif" font-size="12" lengthAdjust="spacing" textLength="51" x="107.5" y="252.832">- Urgente</text><rect fill="#F1F1F1" height="35.0938" rx="12.5" ry="12.5" style="stroke:#181818;stroke-width:0.5;" width="82" x="147" y="285.4688"/><text fill="#000000" font-family="sans-serif" font-size="12" lengthAdjust="spacing" textLength="59" x="160" y="307.9258">Prioritário;</text><rect fill="#F1F1F1" height="35.0938" rx="12.5" ry="12.5" style="stroke:#181818;stroke-width:0.5;" width="111" x="132.5" y="340.5625"/><text fill="#000000" font-family="sans-serif" font-size="12" lengthAdjust="spacing" textLength="88" x="145.5" y="363.0195">Sem prioridade;</text><rect fill="#F1F1F1" height="35.0938" rx="12.5" ry="12.5" style="stroke:#181818;stroke-width:0.5;" width="190" x="93" y="395.6563"/><text fill="#000000" font-family="sans-serif" font-size="12" lengthAdjust="spacing" textLength="170" x="103" y="418.1133">Usuário confirma a seleção</text><rect fill="#F1F1F1" height="35.0938" rx="12.5" ry="12.5" style="stroke:#181818;stroke-width:0.5;" width="247" x="64.5" y="450.75"/><text fill="#000000" font-family="sans-serif" font-size="12" lengthAdjust="spacing" textLength="227" x="74.5" y="473.207">Sistema atualiza a categoria do processo</text><rect fill="#F1F1F1" height="35.0938" rx="12.5" ry="12.5" style="stroke:#181818;stroke-width:0.5;" width="354" x="11" y="505.8438"/><text fill="#000000" font-family="sans-serif" font-size="12" lengthAdjust="spacing" textLength="334" x="21" y="528.3008">Sistema exibe MSG13 ("Categoria atualizada com sucesso.")</text><ellipse cx="188" cy="571.9375" fill="none" rx="11" ry="11" style="stroke:#222222;stroke-width:1.0;"/><ellipse cx="188" cy="571.9375" fill="#222222" rx="6" ry="6" style="stroke:#111111;stroke-width:1.0;"/><line style="stroke:#181818;stroke-width:1.0;" x1="188" x2="188" y1="30" y2="50"/><polygon fill="#181818" points="184,40,188,50,192,40,188,44" style="stroke:#181818;stroke-width:1.0;"/><line style="stroke:#181818;stroke-width:1.0;" x1="188" x2="188" y1="85.0938" y2="105.0938"/><polygon fill="#181818" points="184,95.0938,188,105.0938,192,95.0938,188,99.0938" style="stroke:#181818;stroke-width:1.0;"/><line style="stroke:#181818;stroke-width:1.0;" x1="188" x2="188" y1="140.1875" y2="160.1875"/><polygon fill="#181818" points="184,150.1875,188,160.1875,192,150.1875,188,154.1875" style="stroke:#181818;stroke-width:1.0;"/><line style="stroke:#181818;stroke-width:1.0;" x1="188" x2="188" y1="195.2813" y2="215.2813"/><polygon fill="#181818" points="184,205.2813,188,215.2813,192,205.2813,188,209.2813" style="stroke:#181818;stroke-width:1.0;"/><line style="stroke:#181818;stroke-width:1.0;" x1="188" x2="188" y1="265.4688" y2="285.4688"/><polygon fill="#181818" points="184,275.4688,188,285.4688,192,275.4688,188,279.4688" style="stroke:#181818;stroke-width:1.0;"/><line style="stroke:#181818;stroke-width:1.0;" x1="188" x2="188" y1="320.5625" y2="340.5625"/><polygon fill="#181818" points="184,330.5625,188,340.5625,192,330.5625,188,334.5625" style="stroke:#181818;stroke-width:1.0;"/><line style="stroke:#181818;stroke-width:1.0;" x1="188" x2="188" y1="375.6563" y2="395.6563"/><polygon fill="#181818" points="184,385.6563,188,395.6563,192,385.6563,188,389.6563" style="stroke:#181818;stroke-width:1.0;"/><line style="stroke:#181818;stroke-width:1.0;" x1="188" x2="188" y1="430.75" y2="450.75"/><polygon fill="#181818" points="184,440.75,188,450.75,192,440.75,188,444.75" style="stroke:#181818;stroke-width:1.0;"/><line style="stroke:#181818;stroke-width:1.0;" x1="188" x2="188" y1="485.8438" y2="505.8438"/><polygon fill="#181818" points="184,495.8438,188,505.8438,192,495.8438,188,499.8438" style="stroke:#181818;stroke-width:1.0;"/><line style="stroke:#181818;stroke-width:1.0;" x1="188" x2="188" y1="540.9375" y2="560.9375"/><polygon fill="#181818" points="184,550.9375,188,560.9375,192,550.9375,188,554.9375" style="stroke:#181818;stroke-width:1.0;"/><!--MD5=[1fce957fd1affd38e218d23bcdf25ccd]
@startuml
start

:Usuário acessa a lista de processos;
:Sistema exibe os processos do usuário;
:Usuário seleciona um processo;
:Usuário escolhe a categoria:
- Urgente;
- Prioritário;
- Sem prioridade;
:Usuário confirma a seleção;
:Sistema atualiza a categoria do processo;
:Sistema exibe MSG13 ("Categoria atualizada com sucesso.");

stop
@enduml

PlantUML version 1.2022.12(Sun Oct 23 15:12:26 BRT 2022)
(GPL source distribution)
Java Runtime: Java(TM) SE Runtime Environment
JVM: Java HotSpot(TM) 64-Bit Server VM
Default Encoding: Cp1252
Language: pt
Country: BR
--></g></svg>