<?xml version="1.0" encoding="UTF-8" standalone="no"?><svg xmlns="http://www.w3.org/2000/svg" xmlns:xlink="http://www.w3.org/1999/xlink" contentStyleType="text/css" height="872px" preserveAspectRatio="none" style="width:1207px;height:872px;background:#FFFFFF;" version="1.1" viewBox="0 0 1207 872" width="1207px" zoomAndPan="magnify"><defs/><g><ellipse cx="699.125" cy="20" fill="#222222" rx="10" ry="10" style="stroke:#222222;stroke-width:1.0;"/><rect fill="#F1F1F1" height="35.0938" rx="12.5" ry="12.5" style="stroke:#181818;stroke-width:0.5;" width="343" x="527.625" y="50"/><text fill="#000000" font-family="sans-serif" font-size="12" lengthAdjust="spacing" textLength="323" x="537.625" y="72.457">Usuário seleciona "Esqueci minha senha" na tela de login</text><rect fill="#F1F1F1" height="35.0938" rx="12.5" ry="12.5" style="stroke:#181818;stroke-width:0.5;" width="290" x="554.125" y="105.0938"/><text fill="#000000" font-family="sans-serif" font-size="12" lengthAdjust="spacing" textLength="270" x="564.125" y="127.5508">Sistema exibe a tela de recuperação de senha</text><rect fill="#F1F1F1" height="35.0938" rx="12.5" ry="12.5" style="stroke:#181818;stroke-width:0.5;" width="167" x="615.625" y="160.1875"/><text fill="#000000" font-family="sans-serif" font-size="12" lengthAdjust="spacing" textLength="147" x="625.625" y="182.6445">Usuário insere seu e-mail</text><rect fill="#F1F1F1" height="35.0938" rx="12.5" ry="12.5" style="stroke:#181818;stroke-width:0.5;" width="161" x="618.625" y="215.2813"/><text fill="#000000" font-family="sans-serif" font-size="12" lengthAdjust="spacing" textLength="141" x="628.625" y="237.7383">Usuário clica em "Enviar"</text><rect fill="#F1F1F1" height="35.0938" rx="12.5" ry="12.5" style="stroke:#181818;stroke-width:0.5;" width="267" x="565.625" y="270.375"/><text fill="#000000" font-family="sans-serif" font-size="12" lengthAdjust="spacing" textLength="247" x="575.625" y="292.832">Sistema verifica se o e-mail está cadastrado</text><polygon fill="#F1F1F1" points="653.125,325.4688,745.125,325.4688,757.125,337.4688,745.125,349.4688,653.125,349.4688,641.125,337.4688,653.125,325.4688" style="stroke:#181818;stroke-width:0.5;"/><text fill="#000000" font-family="sans-serif" font-size="11" lengthAdjust="spacing" textLength="92" x="653.125" y="341.9697">E-mail cadastrado?</text><text fill="#000000" font-family="sans-serif" font-size="11" lengthAdjust="spacing" textLength="17" x="624.125" y="335.0518">Sim</text><text fill="#000000" font-family="sans-serif" font-size="11" lengthAdjust="spacing" textLength="27" x="757.125" y="335.0518">Não</text><rect fill="#F1F1F1" height="35.0938" rx="12.5" ry="12.5" style="stroke:#181818;stroke-width:0.5;" width="281" x="241.75" y="359.4688"/><text fill="#000000" font-family="sans-serif" font-size="12" lengthAdjust="spacing" textLength="261" x="251.75" y="381.9258">Sistema envia e-mail com link de redefinição</text><rect fill="#F1F1F1" height="35.0938" rx="12.5" ry="12.5" style="stroke:#181818;stroke-width:0.5;" width="236" x="264.25" y="414.5625"/><text fill="#000000" font-family="sans-serif" font-size="12" lengthAdjust="spacing" textLength="216" x="274.25" y="437.0195">Usuário acessa o e-mail e clica no link</text><rect fill="#F1F1F1" height="35.0938" rx="12.5" ry="12.5" style="stroke:#181818;stroke-width:0.5;" width="272" x="246.25" y="469.6563"/><text fill="#000000" font-family="sans-serif" font-size="12" lengthAdjust="spacing" textLength="252" x="256.25" y="492.1133">Sistema exibe tela de redefinição de senha</text><rect fill="#F1F1F1" height="35.0938" rx="12.5" ry="12.5" style="stroke:#181818;stroke-width:0.5;" width="233" x="265.75" y="524.75"/><text fill="#000000" font-family="sans-serif" font-size="12" lengthAdjust="spacing" textLength="213" x="275.75" y="547.207">Usuário insere nova senha e confirma</text><rect fill="#F1F1F1" height="35.0938" rx="12.5" ry="12.5" style="stroke:#181818;stroke-width:0.5;" width="204" x="280.25" y="579.8438"/><text fill="#000000" font-family="sans-serif" font-size="12" lengthAdjust="spacing" textLength="184" x="290.25" y="602.3008">Sistema valida a força da senha</text><polygon fill="#F1F1F1" points="309.25,634.9375,455.25,634.9375,467.25,646.9375,455.25,658.9375,309.25,658.9375,297.25,646.9375,309.25,634.9375" style="stroke:#181818;stroke-width:0.5;"/><text fill="#000000" font-family="sans-serif" font-size="11" lengthAdjust="spacing" textLength="146" x="309.25" y="651.4385">Senha atende aos critérios?</text><text fill="#000000" font-family="sans-serif" font-size="11" lengthAdjust="spacing" textLength="17" x="280.25" y="644.5205">Sim</text><text fill="#000000" font-family="sans-serif" font-size="11" lengthAdjust="spacing" textLength="27" x="467.25" y="644.5205">Não</text><rect fill="#F1F1F1" height="35.0938" rx="12.5" ry="12.5" style="stroke:#181818;stroke-width:0.5;" width="159" x="99" y="668.9375"/><text fill="#000000" font-family="sans-serif" font-size="12" lengthAdjust="spacing" textLength="139" x="109" y="691.3945">Sistema atualiza a senha</text><rect fill="#F1F1F1" height="35.0938" rx="12.5" ry="12.5" style="stroke:#181818;stroke-width:0.5;" width="335" x="11" y="724.0313"/><text fill="#000000" font-family="sans-serif" font-size="12" lengthAdjust="spacing" textLength="315" x="21" y="746.4883">Sistema exibe MSG04 ("Senha redefinida com sucesso.")</text><rect fill="#F1F1F1" height="35.0938" rx="12.5" ry="12.5" style="stroke:#181818;stroke-width:0.5;" width="440" x="366" y="668.9375"/><text fill="#000000" font-family="sans-serif" font-size="12" lengthAdjust="spacing" textLength="420" x="376" y="691.3945">Sistema exibe MSG05 ("Senha não atende aos requisitos de segurança.")</text><rect fill="#F1F1F1" height="35.0938" rx="12.5" ry="12.5" style="stroke:#181818;stroke-width:0.5;" width="251" x="460.5" y="724.0313"/><text fill="#000000" font-family="sans-serif" font-size="12" lengthAdjust="spacing" textLength="231" x="470.5" y="746.4883">Retorna à tela de redefinição de senha</text><polygon fill="#F1F1F1" points="382.25,765.125,394.25,777.125,382.25,789.125,370.25,777.125,382.25,765.125" style="stroke:#181818;stroke-width:0.5;"/><rect fill="#F1F1F1" height="35.0938" rx="12.5" ry="12.5" style="stroke:#181818;stroke-width:0.5;" width="360" x="836" y="359.4688"/><text fill="#000000" font-family="sans-serif" font-size="12" lengthAdjust="spacing" textLength="340" x="846" y="381.9258">Sistema exibe MSG03 ("E-mail não cadastrado no sistema.")</text><rect fill="#F1F1F1" height="35.0938" rx="12.5" ry="12.5" style="stroke:#181818;stroke-width:0.5;" width="259" x="886.5" y="414.5625"/><text fill="#000000" font-family="sans-serif" font-size="12" lengthAdjust="spacing" textLength="239" x="896.5" y="437.0195">Retorna à tela de recuperação de senha</text><polygon fill="#F1F1F1" points="699.125,795.125,711.125,807.125,699.125,819.125,687.125,807.125,699.125,795.125" style="stroke:#181818;stroke-width:0.5;"/><ellipse cx="699.125" cy="850.125" fill="none" rx="11" ry="11" style="stroke:#222222;stroke-width:1.0;"/><ellipse cx="699.125" cy="850.125" fill="#222222" rx="6" ry="6" style="stroke:#111111;stroke-width:1.0;"/><line style="stroke:#181818;stroke-width:1.0;" x1="699.125" x2="699.125" y1="30" y2="50"/><polygon fill="#181818" points="695.125,40,699.125,50,703.125,40,699.125,44" style="stroke:#181818;stroke-width:1.0;"/><line style="stroke:#181818;stroke-width:1.0;" x1="699.125" x2="699.125" y1="85.0938" y2="105.0938"/><polygon fill="#181818" points="695.125,95.0938,699.125,105.0938,703.125,95.0938,699.125,99.0938" style="stroke:#181818;stroke-width:1.0;"/><line style="stroke:#181818;stroke-width:1.0;" x1="699.125" x2="699.125" y1="140.1875" y2="160.1875"/><polygon fill="#181818" points="695.125,150.1875,699.125,160.1875,703.125,150.1875,699.125,154.1875" style="stroke:#181818;stroke-width:1.0;"/><line style="stroke:#181818;stroke-width:1.0;" x1="699.125" x2="699.125" y1="195.2813" y2="215.2813"/><polygon fill="#181818" points="695.125,205.2813,699.125,215.2813,703.125,205.2813,699.125,209.2813" style="stroke:#181818;stroke-width:1.0;"/><line style="stroke:#181818;stroke-width:1.0;" x1="699.125" x2="699.125" y1="250.375" y2="270.375"/><polygon fill="#181818" points="695.125,260.375,699.125,270.375,703.125,260.375,699.125,264.375" style="stroke:#181818;stroke-width:1.0;"/><line style="stroke:#181818;stroke-width:1.0;" x1="382.25" x2="382.25" y1="394.5625" y2="414.5625"/><polygon fill="#181818" points="378.25,404.5625,382.25,414.5625,386.25,404.5625,382.25,408.5625" style="stroke:#181818;stroke-width:1.0;"/><line style="stroke:#181818;stroke-width:1.0;" x1="382.25" x2="382.25" y1="449.6563" y2="469.6563"/><polygon fill="#181818" points="378.25,459.6563,382.25,469.6563,386.25,459.6563,382.25,463.6563" style="stroke:#181818;stroke-width:1.0;"/><line style="stroke:#181818;stroke-width:1.0;" x1="382.25" x2="382.25" y1="504.75" y2="524.75"/><polygon fill="#181818" points="378.25,514.75,382.25,524.75,386.25,514.75,382.25,518.75" style="stroke:#181818;stroke-width:1.0;"/><line style="stroke:#181818;stroke-width:1.0;" x1="382.25" x2="382.25" y1="559.8438" y2="579.8438"/><polygon fill="#181818" points="378.25,569.8438,382.25,579.8438,386.25,569.8438,382.25,573.8438" style="stroke:#181818;stroke-width:1.0;"/><line style="stroke:#181818;stroke-width:1.0;" x1="178.5" x2="178.5" y1="704.0313" y2="724.0313"/><polygon fill="#181818" points="174.5,714.0313,178.5,724.0313,182.5,714.0313,178.5,718.0313" style="stroke:#181818;stroke-width:1.0;"/><line style="stroke:#181818;stroke-width:1.0;" x1="586" x2="586" y1="704.0313" y2="724.0313"/><polygon fill="#181818" points="582,714.0313,586,724.0313,590,714.0313,586,718.0313" style="stroke:#181818;stroke-width:1.0;"/><line style="stroke:#181818;stroke-width:1.0;" x1="297.25" x2="178.5" y1="646.9375" y2="646.9375"/><line style="stroke:#181818;stroke-width:1.0;" x1="178.5" x2="178.5" y1="646.9375" y2="668.9375"/><polygon fill="#181818" points="174.5,658.9375,178.5,668.9375,182.5,658.9375,178.5,662.9375" style="stroke:#181818;stroke-width:1.0;"/><line style="stroke:#181818;stroke-width:1.0;" x1="467.25" x2="586" y1="646.9375" y2="646.9375"/><line style="stroke:#181818;stroke-width:1.0;" x1="586" x2="586" y1="646.9375" y2="668.9375"/><polygon fill="#181818" points="582,658.9375,586,668.9375,590,658.9375,586,662.9375" style="stroke:#181818;stroke-width:1.0;"/><line style="stroke:#181818;stroke-width:1.0;" x1="178.5" x2="178.5" y1="759.125" y2="777.125"/><line style="stroke:#181818;stroke-width:1.0;" x1="178.5" x2="370.25" y1="777.125" y2="777.125"/><polygon fill="#181818" points="360.25,773.125,370.25,777.125,360.25,781.125,364.25,777.125" style="stroke:#181818;stroke-width:1.0;"/><line style="stroke:#181818;stroke-width:1.0;" x1="586" x2="586" y1="759.125" y2="777.125"/><line style="stroke:#181818;stroke-width:1.0;" x1="586" x2="394.25" y1="777.125" y2="777.125"/><polygon fill="#181818" points="404.25,773.125,394.25,777.125,404.25,781.125,400.25,777.125" style="stroke:#181818;stroke-width:1.0;"/><line style="stroke:#181818;stroke-width:1.0;" x1="382.25" x2="382.25" y1="614.9375" y2="634.9375"/><polygon fill="#181818" points="378.25,624.9375,382.25,634.9375,386.25,624.9375,382.25,628.9375" style="stroke:#181818;stroke-width:1.0;"/><line style="stroke:#181818;stroke-width:1.0;" x1="1016" x2="1016" y1="394.5625" y2="414.5625"/><polygon fill="#181818" points="1012,404.5625,1016,414.5625,1020,404.5625,1016,408.5625" style="stroke:#181818;stroke-width:1.0;"/><line style="stroke:#181818;stroke-width:1.0;" x1="641.125" x2="382.25" y1="337.4688" y2="337.4688"/><line style="stroke:#181818;stroke-width:1.0;" x1="382.25" x2="382.25" y1="337.4688" y2="359.4688"/><polygon fill="#181818" points="378.25,349.4688,382.25,359.4688,386.25,349.4688,382.25,353.4688" style="stroke:#181818;stroke-width:1.0;"/><line style="stroke:#181818;stroke-width:1.0;" x1="757.125" x2="1016" y1="337.4688" y2="337.4688"/><line style="stroke:#181818;stroke-width:1.0;" x1="1016" x2="1016" y1="337.4688" y2="359.4688"/><polygon fill="#181818" points="1012,349.4688,1016,359.4688,1020,349.4688,1016,353.4688" style="stroke:#181818;stroke-width:1.0;"/><line style="stroke:#181818;stroke-width:1.0;" x1="382.25" x2="382.25" y1="789.125" y2="807.125"/><line style="stroke:#181818;stroke-width:1.0;" x1="382.25" x2="687.125" y1="807.125" y2="807.125"/><polygon fill="#181818" points="677.125,803.125,687.125,807.125,677.125,811.125,681.125,807.125" style="stroke:#181818;stroke-width:1.0;"/><line style="stroke:#181818;stroke-width:1.0;" x1="1016" x2="1016" y1="449.6563" y2="807.125"/><line style="stroke:#181818;stroke-width:1.0;" x1="1016" x2="711.125" y1="807.125" y2="807.125"/><polygon fill="#181818" points="721.125,803.125,711.125,807.125,721.125,811.125,717.125,807.125" style="stroke:#181818;stroke-width:1.0;"/><line style="stroke:#181818;stroke-width:1.0;" x1="699.125" x2="699.125" y1="305.4688" y2="325.4688"/><polygon fill="#181818" points="695.125,315.4688,699.125,325.4688,703.125,315.4688,699.125,319.4688" style="stroke:#181818;stroke-width:1.0;"/><line style="stroke:#181818;stroke-width:1.0;" x1="699.125" x2="699.125" y1="819.125" y2="839.125"/><polygon fill="#181818" points="695.125,829.125,699.125,839.125,703.125,829.125,699.125,833.125" style="stroke:#181818;stroke-width:1.0;"/><!--MD5=[0a6e33f62d593af0189699a7187920d9]
@startuml
start

:Usuário seleciona "Esqueci minha senha" na tela de login;

:Sistema exibe a tela de recuperação de senha;

:Usuário insere seu e-mail;

:Usuário clica em "Enviar";

:Sistema verifica se o e-mail está cadastrado;

if (E-mail cadastrado?) then (Sim)
    :Sistema envia e-mail com link de redefinição;    
    :Usuário acessa o e-mail e clica no link;
    :Sistema exibe tela de redefinição de senha;
    :Usuário insere nova senha e confirma;
    :Sistema valida a força da senha;

    if (Senha atende aos critérios?) then (Sim)
        :Sistema atualiza a senha;
        :Sistema exibe MSG04 ("Senha redefinida com sucesso.");
    else (Não)
        :Sistema exibe MSG05 ("Senha não atende aos requisitos de segurança.");
        :Retorna à tela de redefinição de senha;
    endif

else (Não)
    :Sistema exibe MSG03 ("E-mail não cadastrado no sistema.");
    :Retorna à tela de recuperação de senha;
endif

stop
@enduml

PlantUML version 1.2022.12(Sun Oct 23 15:12:26 BRT 2022)
(GPL source distribution)
Java Runtime: Java(TM) SE Runtime Environment
JVM: Java HotSpot(TM) 64-Bit Server VM
Default Encoding: Cp1252
Language: pt
Country: BR
--></g></svg>