<?xml version="1.0" encoding="UTF-8" standalone="no"?><svg xmlns="http://www.w3.org/2000/svg" xmlns:xlink="http://www.w3.org/1999/xlink" contentStyleType="text/css" height="477px" preserveAspectRatio="none" style="width:867px;height:477px;background:#FFFFFF;" version="1.1" viewBox="0 0 867 477" width="867px" zoomAndPan="magnify"><defs/><g><ellipse cx="451.75" cy="20" fill="#222222" rx="10" ry="10" style="stroke:#222222;stroke-width:1.0;"/><rect fill="#F1F1F1" height="35.0938" rx="12.5" ry="12.5" style="stroke:#181818;stroke-width:0.5;" width="327" x="288.25" y="50"/><text fill="#000000" font-family="sans-serif" font-size="12" lengthAdjust="spacing" textLength="307" x="298.25" y="72.457">Usuário acessa a opção "Configurar Monitoramento"</text><rect fill="#F1F1F1" height="35.0938" rx="12.5" ry="12.5" style="stroke:#181818;stroke-width:0.5;" width="251" x="326.25" y="105.0938"/><text fill="#000000" font-family="sans-serif" font-size="12" lengthAdjust="spacing" textLength="231" x="336.25" y="127.5508">Sistema exibe a lista de UFs disponíveis</text><rect fill="#F1F1F1" height="35.0938" rx="12.5" ry="12.5" style="stroke:#181818;stroke-width:0.5;" width="226" x="338.75" y="160.1875"/><text fill="#000000" font-family="sans-serif" font-size="12" lengthAdjust="spacing" textLength="206" x="348.75" y="182.6445">Usuário seleciona uma ou mais UFs</text><polygon fill="#F1F1F1" points="387.75,215.2813,515.75,215.2813,527.75,227.2813,515.75,239.2813,387.75,239.2813,375.75,227.2813,387.75,215.2813" style="stroke:#181818;stroke-width:0.5;"/><text fill="#000000" font-family="sans-serif" font-size="11" lengthAdjust="spacing" textLength="128" x="387.75" y="231.7822">Nenhuma UF selecionada?</text><text fill="#000000" font-family="sans-serif" font-size="11" lengthAdjust="spacing" textLength="17" x="358.75" y="224.8643">Sim</text><text fill="#000000" font-family="sans-serif" font-size="11" lengthAdjust="spacing" textLength="27" x="527.75" y="224.8643">Não</text><rect fill="#F1F1F1" height="35.0938" rx="12.5" ry="12.5" style="stroke:#181818;stroke-width:0.5;" width="449" x="11" y="249.2813"/><text fill="#000000" font-family="sans-serif" font-size="12" lengthAdjust="spacing" textLength="429" x="21" y="271.7383">Sistema exibe MSG09 ("Selecione pelo menos uma UF para monitoramento.")</text><rect fill="#F1F1F1" height="35.0938" rx="12.5" ry="12.5" style="stroke:#181818;stroke-width:0.5;" width="146" x="162.5" y="304.375"/><text fill="#000000" font-family="sans-serif" font-size="12" lengthAdjust="spacing" textLength="126" x="172.5" y="326.832">Retorna à lista de UFs</text><rect fill="#F1F1F1" height="35.0938" rx="12.5" ry="12.5" style="stroke:#181818;stroke-width:0.5;" width="161" x="587.5" y="249.2813"/><text fill="#000000" font-family="sans-serif" font-size="12" lengthAdjust="spacing" textLength="141" x="597.5" y="271.7383">Usuário clica em "Salvar"</text><rect fill="#F1F1F1" height="35.0938" rx="12.5" ry="12.5" style="stroke:#181818;stroke-width:0.5;" width="232" x="552" y="304.375"/><text fill="#000000" font-family="sans-serif" font-size="12" lengthAdjust="spacing" textLength="212" x="562" y="326.832">Sistema registra as UFs selecionadas</text><rect fill="#F1F1F1" height="35.0938" rx="12.5" ry="12.5" style="stroke:#181818;stroke-width:0.5;" width="376" x="480" y="359.4688"/><text fill="#000000" font-family="sans-serif" font-size="12" lengthAdjust="spacing" textLength="356" x="490" y="381.9258">Sistema exibe MSG08 ("Configurações salvas com sucesso.")</text><polygon fill="#F1F1F1" points="451.75,400.5625,463.75,412.5625,451.75,424.5625,439.75,412.5625,451.75,400.5625" style="stroke:#181818;stroke-width:0.5;"/><ellipse cx="451.75" cy="455.5625" fill="none" rx="11" ry="11" style="stroke:#222222;stroke-width:1.0;"/><ellipse cx="451.75" cy="455.5625" fill="#222222" rx="6" ry="6" style="stroke:#111111;stroke-width:1.0;"/><line style="stroke:#181818;stroke-width:1.0;" x1="451.75" x2="451.75" y1="30" y2="50"/><polygon fill="#181818" points="447.75,40,451.75,50,455.75,40,451.75,44" style="stroke:#181818;stroke-width:1.0;"/><line style="stroke:#181818;stroke-width:1.0;" x1="451.75" x2="451.75" y1="85.0938" y2="105.0938"/><polygon fill="#181818" points="447.75,95.0938,451.75,105.0938,455.75,95.0938,451.75,99.0938" style="stroke:#181818;stroke-width:1.0;"/><line style="stroke:#181818;stroke-width:1.0;" x1="451.75" x2="451.75" y1="140.1875" y2="160.1875"/><polygon fill="#181818" points="447.75,150.1875,451.75,160.1875,455.75,150.1875,451.75,154.1875" style="stroke:#181818;stroke-width:1.0;"/><line style="stroke:#181818;stroke-width:1.0;" x1="235.5" x2="235.5" y1="284.375" y2="304.375"/><polygon fill="#181818" points="231.5,294.375,235.5,304.375,239.5,294.375,235.5,298.375" style="stroke:#181818;stroke-width:1.0;"/><line style="stroke:#181818;stroke-width:1.0;" x1="668" x2="668" y1="284.375" y2="304.375"/><polygon fill="#181818" points="664,294.375,668,304.375,672,294.375,668,298.375" style="stroke:#181818;stroke-width:1.0;"/><line style="stroke:#181818;stroke-width:1.0;" x1="668" x2="668" y1="339.4688" y2="359.4688"/><polygon fill="#181818" points="664,349.4688,668,359.4688,672,349.4688,668,353.4688" style="stroke:#181818;stroke-width:1.0;"/><line style="stroke:#181818;stroke-width:1.0;" x1="375.75" x2="235.5" y1="227.2813" y2="227.2813"/><line style="stroke:#181818;stroke-width:1.0;" x1="235.5" x2="235.5" y1="227.2813" y2="249.2813"/><polygon fill="#181818" points="231.5,239.2813,235.5,249.2813,239.5,239.2813,235.5,243.2813" style="stroke:#181818;stroke-width:1.0;"/><line style="stroke:#181818;stroke-width:1.0;" x1="527.75" x2="668" y1="227.2813" y2="227.2813"/><line style="stroke:#181818;stroke-width:1.0;" x1="668" x2="668" y1="227.2813" y2="249.2813"/><polygon fill="#181818" points="664,239.2813,668,249.2813,672,239.2813,668,243.2813" style="stroke:#181818;stroke-width:1.0;"/><line style="stroke:#181818;stroke-width:1.0;" x1="235.5" x2="235.5" y1="339.4688" y2="412.5625"/><line style="stroke:#181818;stroke-width:1.0;" x1="235.5" x2="439.75" y1="412.5625" y2="412.5625"/><polygon fill="#181818" points="429.75,408.5625,439.75,412.5625,429.75,416.5625,433.75,412.5625" style="stroke:#181818;stroke-width:1.0;"/><line style="stroke:#181818;stroke-width:1.0;" x1="668" x2="668" y1="394.5625" y2="412.5625"/><line style="stroke:#181818;stroke-width:1.0;" x1="668" x2="463.75" y1="412.5625" y2="412.5625"/><polygon fill="#181818" points="473.75,408.5625,463.75,412.5625,473.75,416.5625,469.75,412.5625" style="stroke:#181818;stroke-width:1.0;"/><line style="stroke:#181818;stroke-width:1.0;" x1="451.75" x2="451.75" y1="195.2813" y2="215.2813"/><polygon fill="#181818" points="447.75,205.2813,451.75,215.2813,455.75,205.2813,451.75,209.2813" style="stroke:#181818;stroke-width:1.0;"/><line style="stroke:#181818;stroke-width:1.0;" x1="451.75" x2="451.75" y1="424.5625" y2="444.5625"/><polygon fill="#181818" points="447.75,434.5625,451.75,444.5625,455.75,434.5625,451.75,438.5625" style="stroke:#181818;stroke-width:1.0;"/><!--MD5=[5f0d8cb69aba821413735e0cc30fa3b8]
@startuml
start

:Usuário acessa a opção "Configurar Monitoramento";

:Sistema exibe a lista de UFs disponíveis;

:Usuário seleciona uma ou mais UFs;

if (Nenhuma UF selecionada?) then (Sim)
    :Sistema exibe MSG09 ("Selecione pelo menos uma UF para monitoramento.");
    :Retorna à lista de UFs;
else (Não)
    :Usuário clica em "Salvar";
    :Sistema registra as UFs selecionadas;
    :Sistema exibe MSG08 ("Configurações salvas com sucesso.");
endif

stop
@enduml

PlantUML version 1.2022.12(Sun Oct 23 15:12:26 BRT 2022)
(GPL source distribution)
Java Runtime: Java(TM) SE Runtime Environment
JVM: Java HotSpot(TM) 64-Bit Server VM
Default Encoding: Cp1252
Language: pt
Country: BR
--></g></svg>