<svg xmlns="http://www.w3.org/2000/svg" xmlns:xlink="http://www.w3.org/1999/xlink" contentStyleType="text/css" height="1149px" preserveAspectRatio="none" style="width:1252px;height:1149px;background:#FFFFFF;" version="1.1" viewBox="0 0 1252 1149" width="1252px" zoomAndPan="magnify"><defs/><g><!--class Usuario--><g id="elem_Usuario"><rect codeLine="4" fill="#F1F1F1" height="210.9688" id="Usuario" rx="2.5" ry="2.5" style="stroke:#181818;stroke-width:0.5;" width="275.3613" x="534.38" y="7"/><ellipse cx="641.2086" cy="23" fill="#A9DCDF" rx="11" ry="11" style="stroke:#181818;stroke-width:1.0;"/><path d="M641.318,18.3438 L640.1617,23.4219 L642.4899,23.4219 L641.318,18.3438 Z M639.8336,16.1094 L642.818,16.1094 L646.1774,28.5 L643.7242,28.5 L642.9586,25.4375 L639.6774,25.4375 L638.9274,28.5 L636.4899,28.5 L639.8336,16.1094 Z " fill="#000000"/><text fill="#000000" font-family="sans-serif" font-size="14" font-style="italic" lengthAdjust="spacing" textLength="53.2041" x="661.7086" y="27.8467">Usuario</text><line style="stroke:#181818;stroke-width:0.5;" x1="535.38" x2="808.7413" y1="39" y2="39"/><text fill="#000000" font-family="sans-serif" font-size="14" lengthAdjust="spacing" textLength="45.2471" x="540.38" y="55.9951">-id: int</text><text fill="#000000" font-family="sans-serif" font-size="14" lengthAdjust="spacing" textLength="95.6895" x="540.38" y="72.292">-nome: String</text><text fill="#000000" font-family="sans-serif" font-size="14" lengthAdjust="spacing" textLength="77.5127" x="540.38" y="88.5889">-cpf: String</text><text fill="#000000" font-family="sans-serif" font-size="14" lengthAdjust="spacing" textLength="121.6182" x="540.38" y="104.8857">-endereco: String</text><text fill="#000000" font-family="sans-serif" font-size="14" lengthAdjust="spacing" textLength="162.3262" x="540.38" y="121.1826">-dataNascimento: Date</text><text fill="#000000" font-family="sans-serif" font-size="14" lengthAdjust="spacing" textLength="113.5859" x="540.38" y="137.4795">-telefone: String</text><text fill="#000000" font-family="sans-serif" font-size="14" lengthAdjust="spacing" textLength="94.6094" x="540.38" y="153.7764">-email: String</text><text fill="#000000" font-family="sans-serif" font-size="14" lengthAdjust="spacing" textLength="98.2324" x="540.38" y="170.0732">-senha: String</text><line style="stroke:#181818;stroke-width:0.5;" x1="535.38" x2="808.7413" y1="177.375" y2="177.375"/><text fill="#000000" font-family="sans-serif" font-size="14" lengthAdjust="spacing" textLength="159.6328" x="540.38" y="194.3701">+autenticar(): boolean</text><text fill="#000000" font-family="sans-serif" font-size="14" lengthAdjust="spacing" textLength="263.3613" x="540.38" y="210.667">+recuperarSenha(email: String): void</text></g><!--class Advogado--><g id="elem_Advogado"><rect codeLine="17" fill="#F1F1F1" height="129.4844" id="Advogado" rx="2.5" ry="2.5" style="stroke:#181818;stroke-width:0.5;" width="390.7998" x="98.66" y="303.41"/><ellipse cx="254.6937" cy="319.41" fill="#ADD1B2" rx="11" ry="11" style="stroke:#181818;stroke-width:1.0;"/><path d="M257.6624,325.0506 Q257.0843,325.3475 256.4437,325.4881 Q255.8031,325.6444 255.0999,325.6444 Q252.5999,325.6444 251.2718,324.0037 Q249.9593,322.3475 249.9593,319.2225 Q249.9593,316.0975 251.2718,314.4412 Q252.5999,312.785 255.0999,312.785 Q255.8031,312.785 256.4437,312.9412 Q257.0999,313.0975 257.6624,313.3944 L257.6624,316.1131 Q257.0374,315.535 256.4437,315.2694 Q255.8499,314.9881 255.2249,314.9881 Q253.8812,314.9881 253.1937,316.0662 Q252.5062,317.1287 252.5062,319.2225 Q252.5062,321.3162 253.1937,322.3944 Q253.8812,323.4569 255.2249,323.4569 Q255.8499,323.4569 256.4437,323.1912 Q257.0374,322.91 257.6624,322.3319 L257.6624,325.0506 Z " fill="#000000"/><text fill="#000000" font-family="sans-serif" font-size="14" lengthAdjust="spacing" textLength="70.2324" x="275.1937" y="324.2567">Advogado</text><line style="stroke:#181818;stroke-width:0.5;" x1="99.66" x2="488.4598" y1="335.41" y2="335.41"/><text fill="#000000" font-family="sans-serif" font-size="14" lengthAdjust="spacing" textLength="82.0313" x="104.66" y="352.4051">-oab: String</text><line style="stroke:#181818;stroke-width:0.5;" x1="99.66" x2="488.4598" y1="359.7069" y2="359.7069"/><text fill="#000000" font-family="sans-serif" font-size="14" lengthAdjust="spacing" textLength="255.3086" x="104.66" y="376.702">+selecionarUFs(ufs: List&lt;UF&gt;): void</text><text fill="#000000" font-family="sans-serif" font-size="14" lengthAdjust="spacing" textLength="282.584" x="104.66" y="392.9989">+cadastrarCliente(cliente: Cliente): void</text><text fill="#000000" font-family="sans-serif" font-size="14" lengthAdjust="spacing" textLength="204.2852" x="104.66" y="409.2957">+gerenciarAudiencias(): void</text><text fill="#000000" font-family="sans-serif" font-size="14" lengthAdjust="spacing" textLength="378.7998" x="104.66" y="425.5926">+visualizarHistorico(processos: List&lt;Processo&gt;): void</text></g><!--class Funcionario--><g id="elem_Funcionario"><rect codeLine="25" fill="#F1F1F1" height="96.8906" id="Funcionario" rx="2.5" ry="2.5" style="stroke:#181818;stroke-width:0.5;" width="294.584" x="524.77" y="319.71"/><ellipse cx="627.0049" cy="335.71" fill="#ADD1B2" rx="11" ry="11" style="stroke:#181818;stroke-width:1.0;"/><path d="M629.9736,341.3506 Q629.3955,341.6475 628.7549,341.7881 Q628.1142,341.9444 627.4111,341.9444 Q624.9111,341.9444 623.583,340.3037 Q622.2705,338.6475 622.2705,335.5225 Q622.2705,332.3975 623.583,330.7412 Q624.9111,329.085 627.4111,329.085 Q628.1142,329.085 628.7549,329.2412 Q629.4111,329.3975 629.9736,329.6944 L629.9736,332.4131 Q629.3486,331.835 628.7549,331.5694 Q628.1611,331.2881 627.5361,331.2881 Q626.1924,331.2881 625.5049,332.3662 Q624.8174,333.4287 624.8174,335.5225 Q624.8174,337.6162 625.5049,338.6944 Q626.1924,339.7569 627.5361,339.7569 Q628.1611,339.7569 628.7549,339.4912 Q629.3486,339.21 629.9736,338.6319 L629.9736,341.3506 Z " fill="#000000"/><text fill="#000000" font-family="sans-serif" font-size="14" lengthAdjust="spacing" textLength="81.6143" x="647.5049" y="340.5567">Funcionario</text><line style="stroke:#181818;stroke-width:0.5;" x1="525.77" x2="818.354" y1="351.71" y2="351.71"/><line style="stroke:#181818;stroke-width:0.5;" x1="525.77" x2="818.354" y1="359.71" y2="359.71"/><text fill="#000000" font-family="sans-serif" font-size="14" lengthAdjust="spacing" textLength="255.3086" x="530.77" y="376.7051">+selecionarUFs(ufs: List&lt;UF&gt;): void</text><text fill="#000000" font-family="sans-serif" font-size="14" lengthAdjust="spacing" textLength="282.584" x="530.77" y="393.002">+cadastrarCliente(cliente: Cliente): void</text><text fill="#000000" font-family="sans-serif" font-size="14" lengthAdjust="spacing" textLength="204.2852" x="530.77" y="409.2989">+gerenciarAudiencias(): void</text></g><!--class Administrador--><g id="elem_Administrador"><rect codeLine="31" fill="#F1F1F1" height="178.375" id="Administrador" rx="2.5" ry="2.5" style="stroke:#181818;stroke-width:0.5;" width="390.9502" x="854.58" y="278.97"/><ellipse cx="996.2651" cy="294.97" fill="#ADD1B2" rx="11" ry="11" style="stroke:#181818;stroke-width:1.0;"/><path d="M999.2338,300.6106 Q998.6557,300.9075 998.0151,301.0481 Q997.3744,301.2044 996.6713,301.2044 Q994.1713,301.2044 992.8432,299.5638 Q991.5307,297.9075 991.5307,294.7825 Q991.5307,291.6575 992.8432,290.0013 Q994.1713,288.345 996.6713,288.345 Q997.3744,288.345 998.0151,288.5013 Q998.6713,288.6575 999.2338,288.9544 L999.2338,291.6731 Q998.6088,291.095 998.0151,290.8294 Q997.4213,290.5481 996.7963,290.5481 Q995.4526,290.5481 994.7651,291.6263 Q994.0776,292.6888 994.0776,294.7825 Q994.0776,296.8763 994.7651,297.9544 Q995.4526,299.0169 996.7963,299.0169 Q997.4213,299.0169 998.0151,298.7513 Q998.6088,298.47 999.2338,297.8919 L999.2338,300.6106 Z " fill="#000000"/><text fill="#000000" font-family="sans-serif" font-size="14" lengthAdjust="spacing" textLength="99.0801" x="1016.7651" y="299.8167">Administrador</text><line style="stroke:#181818;stroke-width:0.5;" x1="855.58" x2="1244.5302" y1="310.97" y2="310.97"/><line style="stroke:#181818;stroke-width:0.5;" x1="855.58" x2="1244.5302" y1="318.97" y2="318.97"/><text fill="#000000" font-family="sans-serif" font-size="14" lengthAdjust="spacing" textLength="346.9307" x="860.58" y="335.9651">+cadastrarAdvogado(advogado: Advogado): void</text><text fill="#000000" font-family="sans-serif" font-size="14" lengthAdjust="spacing" textLength="378.9502" x="860.58" y="352.262">+cadastrarFuncionario(funcionario: Funcionario): void</text><text fill="#000000" font-family="sans-serif" font-size="14" lengthAdjust="spacing" textLength="319.751" x="860.58" y="368.5589">+concederPermissoes(usuario: Usuario): void</text><text fill="#000000" font-family="sans-serif" font-size="14" lengthAdjust="spacing" textLength="288.0801" x="860.58" y="384.8557">+removerUsuario(usuario: Usuario): void</text><text fill="#000000" font-family="sans-serif" font-size="14" lengthAdjust="spacing" textLength="165.6074" x="860.58" y="401.1526">+realizarBackup(): void</text><text fill="#000000" font-family="sans-serif" font-size="14" lengthAdjust="spacing" textLength="302.0938" x="860.58" y="417.4495">+abrirChamado(chamado: Chamado): void</text><text fill="#000000" font-family="sans-serif" font-size="14" lengthAdjust="spacing" textLength="254.5908" x="860.58" y="433.7464">+acessarPainelProdutividade(): void</text><text fill="#000000" font-family="sans-serif" font-size="14" lengthAdjust="spacing" textLength="256.0811" x="860.58" y="450.0432">+anotarFalta(usuario: Usuario): void</text></g><!--class Cliente--><g id="elem_Cliente"><rect codeLine="42" fill="#F1F1F1" height="178.375" id="Cliente" rx="2.5" ry="2.5" style="stroke:#181818;stroke-width:0.5;" width="334.458" x="573.83" y="534.34"/><ellipse cx="712.2372" cy="550.34" fill="#ADD1B2" rx="11" ry="11" style="stroke:#181818;stroke-width:1.0;"/><path d="M715.206,555.9806 Q714.6279,556.2775 713.9872,556.4181 Q713.3466,556.5744 712.6435,556.5744 Q710.1435,556.5744 708.8154,554.9337 Q707.5029,553.2775 707.5029,550.1525 Q707.5029,547.0275 708.8154,545.3712 Q710.1435,543.715 712.6435,543.715 Q713.3466,543.715 713.9872,543.8712 Q714.6435,544.0275 715.206,544.3244 L715.206,547.0431 Q714.581,546.465 713.9872,546.1994 Q713.3935,545.9181 712.7685,545.9181 Q711.4247,545.9181 710.7372,546.9962 Q710.0497,548.0587 710.0497,550.1525 Q710.0497,552.2462 710.7372,553.3244 Q711.4247,554.3869 712.7685,554.3869 Q713.3935,554.3869 713.9872,554.1212 Q714.581,553.84 715.206,553.2619 L715.206,555.9806 Z " fill="#000000"/><text fill="#000000" font-family="sans-serif" font-size="14" lengthAdjust="spacing" textLength="49.1436" x="732.7372" y="555.1867">Cliente</text><line style="stroke:#181818;stroke-width:0.5;" x1="574.83" x2="907.288" y1="566.34" y2="566.34"/><text fill="#000000" font-family="sans-serif" font-size="14" lengthAdjust="spacing" textLength="45.2471" x="579.83" y="583.3351">-id: int</text><text fill="#000000" font-family="sans-serif" font-size="14" lengthAdjust="spacing" textLength="95.6895" x="579.83" y="599.632">-nome: String</text><text fill="#000000" font-family="sans-serif" font-size="14" lengthAdjust="spacing" textLength="77.5127" x="579.83" y="615.9289">-cpf: String</text><text fill="#000000" font-family="sans-serif" font-size="14" lengthAdjust="spacing" textLength="121.6182" x="579.83" y="632.2257">-endereco: String</text><text fill="#000000" font-family="sans-serif" font-size="14" lengthAdjust="spacing" textLength="113.5859" x="579.83" y="648.5226">-telefone: String</text><text fill="#000000" font-family="sans-serif" font-size="14" lengthAdjust="spacing" textLength="94.6094" x="579.83" y="664.8195">-email: String</text><text fill="#000000" font-family="sans-serif" font-size="14" lengthAdjust="spacing" textLength="201.0244" x="579.83" y="681.1164">+processos: List&lt;Processo&gt;</text><line style="stroke:#181818;stroke-width:0.5;" x1="574.83" x2="907.288" y1="688.4181" y2="688.4181"/><text fill="#000000" font-family="sans-serif" font-size="14" lengthAdjust="spacing" textLength="322.458" x="579.83" y="705.4132">+adicionarProcesso(processo: Processo): void</text></g><!--class Processo--><g id="elem_Processo"><rect codeLine="53" fill="#F1F1F1" height="178.375" id="Processo" rx="2.5" ry="2.5" style="stroke:#181818;stroke-width:0.5;" width="383.7451" x="549.19" y="789.72"/><ellipse cx="705.6988" cy="805.72" fill="#ADD1B2" rx="11" ry="11" style="stroke:#181818;stroke-width:1.0;"/><path d="M708.6675,811.3606 Q708.0894,811.6575 707.4488,811.7981 Q706.8082,811.9544 706.105,811.9544 Q703.605,811.9544 702.2769,810.3138 Q700.9644,808.6575 700.9644,805.5325 Q700.9644,802.4075 702.2769,800.7513 Q703.605,799.095 706.105,799.095 Q706.8082,799.095 707.4488,799.2513 Q708.105,799.4075 708.6675,799.7044 L708.6675,802.4231 Q708.0425,801.845 707.4488,801.5794 Q706.855,801.2981 706.23,801.2981 Q704.8863,801.2981 704.1988,802.3763 Q703.5113,803.4388 703.5113,805.5325 Q703.5113,807.6263 704.1988,808.7044 Q704.8863,809.7669 706.23,809.7669 Q706.855,809.7669 707.4488,809.5013 Q708.0425,809.22 708.6675,808.6419 L708.6675,811.3606 Z " fill="#000000"/><text fill="#000000" font-family="sans-serif" font-size="14" lengthAdjust="spacing" textLength="62.2275" x="726.1988" y="810.5667">Processo</text><line style="stroke:#181818;stroke-width:0.5;" x1="550.19" x2="931.9351" y1="821.72" y2="821.72"/><text fill="#000000" font-family="sans-serif" font-size="14" lengthAdjust="spacing" textLength="110.3184" x="555.19" y="838.7151">-numero: String</text><text fill="#000000" font-family="sans-serif" font-size="14" lengthAdjust="spacing" textLength="87.1992" x="555.19" y="855.012">-vara: String</text><text fill="#000000" font-family="sans-serif" font-size="14" lengthAdjust="spacing" textLength="116.5117" x="555.19" y="871.3089">-comarca: String</text><text fill="#000000" font-family="sans-serif" font-size="14" lengthAdjust="spacing" textLength="110.9678" x="555.19" y="887.6057">-assunto: String</text><text fill="#000000" font-family="sans-serif" font-size="14" lengthAdjust="spacing" textLength="122.9785" x="555.19" y="903.9026">-descricao: String</text><text fill="#000000" font-family="sans-serif" font-size="14" lengthAdjust="spacing" textLength="122.0557" x="555.19" y="920.1995">-categoria: String</text><text fill="#000000" font-family="sans-serif" font-size="14" lengthAdjust="spacing" textLength="305.2451" x="555.19" y="936.4964">+historicoAtuacao: List&lt;HistoricoAtuacao&gt;</text><line style="stroke:#181818;stroke-width:0.5;" x1="550.19" x2="931.9351" y1="943.7981" y2="943.7981"/><text fill="#000000" font-family="sans-serif" font-size="14" lengthAdjust="spacing" textLength="371.7451" x="555.19" y="960.7932">+adicionarAtuacao(historico: HistoricoAtuacao): void</text></g><!--class HistoricoAtuacao--><g id="elem_HistoricoAtuacao"><rect codeLine="64" fill="#F1F1F1" height="113.1875" id="HistoricoAtuacao" rx="2.5" ry="2.5" style="stroke:#181818;stroke-width:0.5;" width="159.834" x="661.14" y="1029.09"/><ellipse cx="680.0999" cy="1045.09" fill="#ADD1B2" rx="11" ry="11" style="stroke:#181818;stroke-width:1.0;"/><path d="M683.0687,1050.7306 Q682.4905,1051.0275 681.8499,1051.1681 Q681.2093,1051.3244 680.5062,1051.3244 Q678.0062,1051.3244 676.678,1049.6838 Q675.3655,1048.0275 675.3655,1044.9025 Q675.3655,1041.7775 676.678,1040.1213 Q678.0062,1038.465 680.5062,1038.465 Q681.2093,1038.465 681.8499,1038.6213 Q682.5062,1038.7775 683.0687,1039.0744 L683.0687,1041.7931 Q682.4437,1041.215 681.8499,1040.9494 Q681.2562,1040.6681 680.6312,1040.6681 Q679.2874,1040.6681 678.5999,1041.7463 Q677.9124,1042.8088 677.9124,1044.9025 Q677.9124,1046.9963 678.5999,1048.0744 Q679.2874,1049.1369 680.6312,1049.1369 Q681.2562,1049.1369 681.8499,1048.8713 Q682.4437,1048.59 683.0687,1048.0119 L683.0687,1050.7306 Z " fill="#000000"/><text fill="#000000" font-family="sans-serif" font-size="14" lengthAdjust="spacing" textLength="119.0342" x="694.9799" y="1049.9367">HistoricoAtuacao</text><line style="stroke:#181818;stroke-width:0.5;" x1="662.14" x2="819.974" y1="1061.09" y2="1061.09"/><text fill="#000000" font-family="sans-serif" font-size="14" lengthAdjust="spacing" textLength="79.2148" x="667.14" y="1078.0851">-data: Date</text><text fill="#000000" font-family="sans-serif" font-size="14" lengthAdjust="spacing" textLength="117.25" x="667.14" y="1094.382">-tipoAcao: String</text><text fill="#000000" font-family="sans-serif" font-size="14" lengthAdjust="spacing" textLength="147.834" x="667.14" y="1110.6789">-profissional: Usuario</text><text fill="#000000" font-family="sans-serif" font-size="14" lengthAdjust="spacing" textLength="144.1494" x="667.14" y="1126.9757">-observacoes: String</text><line style="stroke:#181818;stroke-width:0.5;" x1="662.14" x2="819.974" y1="1134.2775" y2="1134.2775"/></g><!--class UF--><g id="elem_UF"><rect codeLine="71" fill="#F1F1F1" height="80.5938" id="UF" rx="2.5" ry="2.5" style="stroke:#181818;stroke-width:0.5;" width="107.6895" x="72.21" y="838.61"/><ellipse cx="113.0353" cy="854.61" fill="#ADD1B2" rx="11" ry="11" style="stroke:#181818;stroke-width:1.0;"/><path d="M116.0041,860.2506 Q115.426,860.5475 114.7853,860.6881 Q114.1447,860.8444 113.4416,860.8444 Q110.9416,860.8444 109.6135,859.2037 Q108.301,857.5475 108.301,854.4225 Q108.301,851.2975 109.6135,849.6412 Q110.9416,847.985 113.4416,847.985 Q114.1447,847.985 114.7853,848.1412 Q115.4416,848.2975 116.0041,848.5944 L116.0041,851.3131 Q115.3791,850.735 114.7853,850.4694 Q114.1916,850.1881 113.5666,850.1881 Q112.2228,850.1881 111.5353,851.2662 Q110.8478,852.3287 110.8478,854.4225 Q110.8478,856.5162 111.5353,857.5944 Q112.2228,858.6569 113.5666,858.6569 Q114.1916,858.6569 114.7853,858.3912 Q115.3791,858.11 116.0041,857.5319 L116.0041,860.2506 Z " fill="#000000"/><text fill="#000000" font-family="sans-serif" font-size="14" lengthAdjust="spacing" textLength="18.2998" x="132.7743" y="859.4567">UF</text><line style="stroke:#181818;stroke-width:0.5;" x1="73.21" x2="178.8995" y1="870.61" y2="870.61"/><text fill="#000000" font-family="sans-serif" font-size="14" lengthAdjust="spacing" textLength="88.5391" x="78.21" y="887.6051">-sigla: String</text><text fill="#000000" font-family="sans-serif" font-size="14" lengthAdjust="spacing" textLength="95.6895" x="78.21" y="903.902">-nome: String</text><line style="stroke:#181818;stroke-width:0.5;" x1="73.21" x2="178.8995" y1="911.2037" y2="911.2037"/></g><!--class Notificacao--><g id="elem_Notificacao"><rect codeLine="76" fill="#F1F1F1" height="145.7813" id="Notificacao" rx="2.5" ry="2.5" style="stroke:#181818;stroke-width:0.5;" width="258.6885" x="279.72" y="550.64"/><ellipse cx="365.6375" cy="566.64" fill="#ADD1B2" rx="11" ry="11" style="stroke:#181818;stroke-width:1.0;"/><path d="M368.6062,572.2806 Q368.0281,572.5775 367.3875,572.7181 Q366.7469,572.8744 366.0437,572.8744 Q363.5437,572.8744 362.2156,571.2338 Q360.9031,569.5775 360.9031,566.4525 Q360.9031,563.3275 362.2156,561.6713 Q363.5437,560.015 366.0437,560.015 Q366.7469,560.015 367.3875,560.1713 Q368.0437,560.3275 368.6062,560.6244 L368.6062,563.3431 Q367.9812,562.765 367.3875,562.4994 Q366.7937,562.2181 366.1687,562.2181 Q364.825,562.2181 364.1375,563.2963 Q363.45,564.3588 363.45,566.4525 Q363.45,568.5463 364.1375,569.6244 Q364.825,570.6869 366.1687,570.6869 Q366.7937,570.6869 367.3875,570.4213 Q367.9812,570.14 368.6062,569.5619 L368.6062,572.2806 Z " fill="#000000"/><text fill="#000000" font-family="sans-serif" font-size="14" lengthAdjust="spacing" textLength="78.3535" x="386.1375" y="571.4867">Notificacao</text><line style="stroke:#181818;stroke-width:0.5;" x1="280.72" x2="537.4085" y1="582.64" y2="582.64"/><text fill="#000000" font-family="sans-serif" font-size="14" lengthAdjust="spacing" textLength="45.2471" x="285.72" y="599.6351">-id: int</text><text fill="#000000" font-family="sans-serif" font-size="14" lengthAdjust="spacing" textLength="121.5635" x="285.72" y="615.932">-conteudo: String</text><text fill="#000000" font-family="sans-serif" font-size="14" lengthAdjust="spacing" textLength="99.0186" x="285.72" y="632.2289">-status: String</text><text fill="#000000" font-family="sans-serif" font-size="14" lengthAdjust="spacing" textLength="132.0566" x="285.72" y="648.5257">-dataCriacao: Date</text><line style="stroke:#181818;stroke-width:0.5;" x1="280.72" x2="537.4085" y1="655.8275" y2="655.8275"/><text fill="#000000" font-family="sans-serif" font-size="14" lengthAdjust="spacing" textLength="246.6885" x="285.72" y="672.8226">+alterarStatus(status: String): void</text><text fill="#000000" font-family="sans-serif" font-size="14" lengthAdjust="spacing" textLength="108.4521" x="285.72" y="689.1195">+excluir(): void</text></g><!--class Publicacao--><g id="elem_Publicacao"><rect codeLine="85" fill="#F1F1F1" height="129.4844" id="Publicacao" rx="2.5" ry="2.5" style="stroke:#181818;stroke-width:0.5;" width="238.1191" x="7" y="558.79"/><ellipse cx="84.2598" cy="574.79" fill="#ADD1B2" rx="11" ry="11" style="stroke:#181818;stroke-width:1.0;"/><path d="M87.2285,580.4306 Q86.6504,580.7275 86.0098,580.8681 Q85.3691,581.0244 84.666,581.0244 Q82.166,581.0244 80.8379,579.3838 Q79.5254,577.7275 79.5254,574.6025 Q79.5254,571.4775 80.8379,569.8213 Q82.166,568.165 84.666,568.165 Q85.3691,568.165 86.0098,568.3213 Q86.666,568.4775 87.2285,568.7744 L87.2285,571.4931 Q86.6035,570.915 86.0098,570.6494 Q85.416,570.3681 84.791,570.3681 Q83.4473,570.3681 82.7598,571.4463 Q82.0723,572.5088 82.0723,574.6025 Q82.0723,576.6963 82.7598,577.7744 Q83.4473,578.8369 84.791,578.8369 Q85.416,578.8369 86.0098,578.5713 Q86.6035,578.29 87.2285,577.7119 L87.2285,580.4306 Z " fill="#000000"/><text fill="#000000" font-family="sans-serif" font-size="14" lengthAdjust="spacing" textLength="75.0996" x="104.7598" y="579.6367">Publicacao</text><line style="stroke:#181818;stroke-width:0.5;" x1="8" x2="244.1191" y1="590.79" y2="590.79"/><text fill="#000000" font-family="sans-serif" font-size="14" lengthAdjust="spacing" textLength="45.2471" x="13" y="607.7851">-id: int</text><text fill="#000000" font-family="sans-serif" font-size="14" lengthAdjust="spacing" textLength="121.5635" x="13" y="624.082">-conteudo: String</text><text fill="#000000" font-family="sans-serif" font-size="14" lengthAdjust="spacing" textLength="154.3145" x="13" y="640.3789">-dataPublicacao: Date</text><text fill="#000000" font-family="sans-serif" font-size="14" lengthAdjust="spacing" textLength="46.3203" x="13" y="656.6757">-uf: UF</text><line style="stroke:#181818;stroke-width:0.5;" x1="8" x2="244.1191" y1="663.9775" y2="663.9775"/><text fill="#000000" font-family="sans-serif" font-size="14" lengthAdjust="spacing" textLength="226.1191" x="13" y="680.9726">+gerarNotificacao(): Notificacao</text></g><!--class Chamado--><g id="elem_Chamado"><rect codeLine="93" fill="#F1F1F1" height="162.0781" id="Chamado" rx="2.5" ry="2.5" style="stroke:#181818;stroke-width:0.5;" width="195.2305" x="952.44" y="542.49"/><ellipse cx="1012.357" cy="558.49" fill="#ADD1B2" rx="11" ry="11" style="stroke:#181818;stroke-width:1.0;"/><path d="M1015.3257,564.1306 Q1014.7476,564.4275 1014.107,564.5681 Q1013.4664,564.7244 1012.7632,564.7244 Q1010.2632,564.7244 1008.9351,563.0838 Q1007.6226,561.4275 1007.6226,558.3025 Q1007.6226,555.1775 1008.9351,553.5213 Q1010.2632,551.865 1012.7632,551.865 Q1013.4664,551.865 1014.107,552.0213 Q1014.7632,552.1775 1015.3257,552.4744 L1015.3257,555.1931 Q1014.7007,554.615 1014.107,554.3494 Q1013.5132,554.0681 1012.8882,554.0681 Q1011.5445,554.0681 1010.857,555.1463 Q1010.1695,556.2088 1010.1695,558.3025 Q1010.1695,560.3963 1010.857,561.4744 Q1011.5445,562.5369 1012.8882,562.5369 Q1013.5132,562.5369 1014.107,562.2713 Q1014.7007,561.99 1015.3257,561.4119 L1015.3257,564.1306 Z " fill="#000000"/><text fill="#000000" font-family="sans-serif" font-size="14" lengthAdjust="spacing" textLength="66.8965" x="1032.857" y="563.3367">Chamado</text><line style="stroke:#181818;stroke-width:0.5;" x1="953.44" x2="1146.6705" y1="574.49" y2="574.49"/><text fill="#000000" font-family="sans-serif" font-size="14" lengthAdjust="spacing" textLength="45.2471" x="958.44" y="591.4851">-id: int</text><text fill="#000000" font-family="sans-serif" font-size="14" lengthAdjust="spacing" textLength="122.9785" x="958.44" y="607.782">-descricao: String</text><text fill="#000000" font-family="sans-serif" font-size="14" lengthAdjust="spacing" textLength="127.709" x="958.44" y="624.0789">-prioridade: String</text><text fill="#000000" font-family="sans-serif" font-size="14" lengthAdjust="spacing" textLength="156.2764" x="958.44" y="640.3757">-anexos: List&lt;Anexo&gt;</text><text fill="#000000" font-family="sans-serif" font-size="14" lengthAdjust="spacing" textLength="99.0186" x="958.44" y="656.6726">-status: String</text><line style="stroke:#181818;stroke-width:0.5;" x1="953.44" x2="1146.6705" y1="663.9744" y2="663.9744"/><text fill="#000000" font-family="sans-serif" font-size="14" lengthAdjust="spacing" textLength="94.3154" x="958.44" y="680.9695">+abrir(): void</text><text fill="#000000" font-family="sans-serif" font-size="14" lengthAdjust="spacing" textLength="183.2305" x="958.44" y="697.2664">+consultarStatus(): String</text></g><!--class Anexo--><g id="elem_Anexo"><rect codeLine="103" fill="#F1F1F1" height="113.1875" id="Anexo" rx="2.5" ry="2.5" style="stroke:#181818;stroke-width:0.5;" width="161.5225" x="969.3" y="822.31"/><ellipse cx="1023.8542" cy="838.31" fill="#ADD1B2" rx="11" ry="11" style="stroke:#181818;stroke-width:1.0;"/><path d="M1026.8229,843.9506 Q1026.2448,844.2475 1025.6042,844.3881 Q1024.9636,844.5444 1024.2604,844.5444 Q1021.7604,844.5444 1020.4323,842.9038 Q1019.1198,841.2475 1019.1198,838.1225 Q1019.1198,834.9975 1020.4323,833.3413 Q1021.7604,831.685 1024.2604,831.685 Q1024.9636,831.685 1025.6042,831.8413 Q1026.2604,831.9975 1026.8229,832.2944 L1026.8229,835.0131 Q1026.1979,834.435 1025.6042,834.1694 Q1025.0104,833.8881 1024.3854,833.8881 Q1023.0417,833.8881 1022.3542,834.9663 Q1021.6667,836.0288 1021.6667,838.1225 Q1021.6667,840.2163 1022.3542,841.2944 Q1023.0417,842.3569 1024.3854,842.3569 Q1025.0104,842.3569 1025.6042,842.0913 Q1026.1979,841.81 1026.8229,841.2319 L1026.8229,843.9506 Z " fill="#000000"/><text fill="#000000" font-family="sans-serif" font-size="14" lengthAdjust="spacing" textLength="43.9141" x="1044.3542" y="843.1567">Anexo</text><line style="stroke:#181818;stroke-width:0.5;" x1="970.3" x2="1129.8225" y1="854.31" y2="854.31"/><text fill="#000000" font-family="sans-serif" font-size="14" lengthAdjust="spacing" textLength="45.2471" x="975.3" y="871.3051">-id: int</text><text fill="#000000" font-family="sans-serif" font-size="14" lengthAdjust="spacing" textLength="149.5225" x="975.3" y="887.602">-nomeArquivo: String</text><text fill="#000000" font-family="sans-serif" font-size="14" lengthAdjust="spacing" textLength="136.6641" x="975.3" y="903.8989">-tipoArquivo: String</text><text fill="#000000" font-family="sans-serif" font-size="14" lengthAdjust="spacing" textLength="98.6289" x="975.3" y="920.1957">-dados: byte[]</text><line style="stroke:#181818;stroke-width:0.5;" x1="970.3" x2="1129.8225" y1="927.4975" y2="927.4975"/></g><!--reverse link Usuario to Advogado--><g id="link_Usuario_Advogado"><path codeLine="111" d="M519.0438,216.1706 C471.0638,248.3706 433.3,273.71 389.53,303.08 " fill="none" id="Usuario-backto-Advogado" style="stroke:#181818;stroke-width:1.0;"/><polygon fill="none" points="533.99,206.14,515.7003,211.1885,522.3874,221.1526,533.99,206.14" style="stroke:#181818;stroke-width:1.0;"/></g><!--reverse link Usuario to Funcionario--><g id="link_Usuario_Funcionario"><path codeLine="112" d="M672.06,236.13 C672.06,271.34 672.06,290.9 672.06,319.51 " fill="none" id="Usuario-backto-Funcionario" style="stroke:#181818;stroke-width:1.0;"/><polygon fill="none" points="672.06,218.13,666.06,236.13,678.06,236.13,672.06,218.13" style="stroke:#181818;stroke-width:1.0;"/></g><!--reverse link Usuario to Administrador--><g id="link_Usuario_Administrador"><path codeLine="113" d="M825.0755,216.1716 C860.2955,239.8116 883.12,255.12 918.03,278.55 " fill="none" id="Usuario-backto-Administrador" style="stroke:#181818;stroke-width:1.0;"/><polygon fill="none" points="810.13,206.14,821.7316,221.1534,828.4193,211.1897,810.13,206.14" style="stroke:#181818;stroke-width:1.0;"/></g><!--link Advogado to Cliente--><g id="link_Advogado_Cliente"><path codeLine="115" d="M395.02,433.27 C432.11,456.27 474.67,482.02 514.06,504.34 C533.19,515.18 553.42,526.25 573.59,537.05 " fill="none" id="Advogado-Cliente" style="stroke:#181818;stroke-width:1.0;"/><text fill="#000000" font-family="sans-serif" font-size="13" lengthAdjust="spacing" textLength="45.5508" x="515.06" y="500.4069">atende</text><text fill="#000000" font-family="sans-serif" font-size="13" lengthAdjust="spacing" textLength="8.271" x="397.033" y="452.8325">1</text><text fill="#000000" font-family="sans-serif" font-size="13" lengthAdjust="spacing" textLength="6.5" x="559.345" y="529.5681">*</text></g><!--link Funcionario to Cliente--><g id="link_Funcionario_Cliente"><path codeLine="116" d="M685.04,416.81 C694.02,449.78 706.23,494.65 716.97,534.06 " fill="none" id="Funcionario-Cliente" style="stroke:#181818;stroke-width:1.0;"/><text fill="#000000" font-family="sans-serif" font-size="13" lengthAdjust="spacing" textLength="44.9922" x="710.06" y="500.4069">assiste</text><text fill="#000000" font-family="sans-serif" font-size="13" lengthAdjust="spacing" textLength="8.271" x="678.3216" y="436.783">1</text><text fill="#000000" font-family="sans-serif" font-size="13" lengthAdjust="spacing" textLength="6.5" x="708.8313" y="523.4051">*</text></g><!--reverse link Cliente to Processo--><g id="link_Cliente_Processo"><path codeLine="118" d="M741.06,725.15 C741.06,749.84 741.06,764.65 741.06,789.34 " fill="none" id="Cliente-backto-Processo" style="stroke:#181818;stroke-width:1.0;"/><polygon fill="none" points="741.06,713.15,737.06,719.15,741.06,725.15,745.06,719.15,741.06,713.15" style="stroke:#181818;stroke-width:1.0;"/><text fill="#000000" font-family="sans-serif" font-size="13" lengthAdjust="spacing" textLength="8.271" x="732.7642" y="732.6579">1</text><text fill="#000000" font-family="sans-serif" font-size="13" lengthAdjust="spacing" textLength="6.5" x="734.8407" y="778.6771">*</text></g><!--reverse link Processo to HistoricoAtuacao--><g id="link_Processo_HistoricoAtuacao"><path codeLine="120" d="M741.06,980.53 C741.06,1000.96 741.06,1010.14 741.06,1028.72 " fill="none" id="Processo-backto-HistoricoAtuacao" style="stroke:#181818;stroke-width:1.0;"/><polygon fill="#181818" points="741.06,968.53,737.06,974.53,741.06,980.53,745.06,974.53,741.06,968.53" style="stroke:#181818;stroke-width:1.0;"/><text fill="#000000" font-family="sans-serif" font-size="13" lengthAdjust="spacing" textLength="8.271" x="732.7639" y="988.0379">1</text><text fill="#000000" font-family="sans-serif" font-size="13" lengthAdjust="spacing" textLength="6.5" x="734.7252" y="1017.9385">*</text></g><!--link Advogado to Notificacao--><g id="link_Advogado_Notificacao"><path codeLine="122" d="M297.2,433.31 C300.08,456.44 305.38,482.26 315.06,504.34 C322.06,520.31 331.76,535.96 342.3,550.37 " fill="none" id="Advogado-Notificacao" style="stroke:#181818;stroke-width:1.0;"/><text fill="#000000" font-family="sans-serif" font-size="13" lengthAdjust="spacing" textLength="44.7383" x="316.06" y="500.4069">recebe</text><text fill="#000000" font-family="sans-serif" font-size="13" lengthAdjust="spacing" textLength="6.5" x="291.2402" y="452.8766">*</text><text fill="#000000" font-family="sans-serif" font-size="13" lengthAdjust="spacing" textLength="6.5" x="329.4572" y="539.5034">*</text></g><!--link Funcionario to Notificacao--><g id="link_Funcionario_Notificacao"><path codeLine="123" d="M640.74,416.87 C621.71,444.04 595.96,477.84 569.06,504.34 C552.82,520.34 534.32,535.94 515.81,550.29 " fill="none" id="Funcionario-Notificacao" style="stroke:#181818;stroke-width:1.0;"/><text fill="#000000" font-family="sans-serif" font-size="13" lengthAdjust="spacing" textLength="44.7383" x="586.06" y="500.4069">recebe</text><text fill="#000000" font-family="sans-serif" font-size="13" lengthAdjust="spacing" textLength="6.5" x="630.1616" y="436.4997">*</text><text fill="#000000" font-family="sans-serif" font-size="13" lengthAdjust="spacing" textLength="6.5" x="519.7221" y="539.6676">*</text></g><!--link Advogado to Publicacao--><g id="link_Advogado_Publicacao"><path codeLine="125" d="M251.67,433.09 C226.2,471.5 193.9,520.21 168.44,558.61 " fill="none" id="Advogado-Publicacao" style="stroke:#181818;stroke-width:1.0;"/><text fill="#000000" font-family="sans-serif" font-size="13" lengthAdjust="spacing" textLength="58.8301" x="217.06" y="500.4069">monitora</text><text fill="#000000" font-family="sans-serif" font-size="13" lengthAdjust="spacing" textLength="6.5" x="240.7328" y="453.087">*</text><text fill="#000000" font-family="sans-serif" font-size="13" lengthAdjust="spacing" textLength="6.5" x="166.7746" y="547.763">*</text></g><!--link Funcionario to Publicacao--><g id="link_Funcionario_Publicacao"><path codeLine="126" d="M589.06,417.08 C563.24,431.02 534.37,445.63 507.06,457.34 C476.51,470.45 396.8,494.47 365.06,504.34 C319.53,518.5 305.41,514.49 262.06,534.34 C247.09,541.2 231.86,549.52 217.27,558.29 " fill="none" id="Funcionario-Publicacao" style="stroke:#181818;stroke-width:1.0;"/><text fill="#000000" font-family="sans-serif" font-size="13" lengthAdjust="spacing" textLength="58.8301" x="418.06" y="500.4069">monitora</text><text fill="#000000" font-family="sans-serif" font-size="13" lengthAdjust="spacing" textLength="6.5" x="571.5371" y="436.7379">*</text><text fill="#000000" font-family="sans-serif" font-size="13" lengthAdjust="spacing" textLength="6.5" x="220.3925" y="547.8622">*</text></g><!--link Publicacao to UF--><g id="link_Publicacao_UF"><path codeLine="128" d="M126.06,688.47 C126.06,735.53 126.06,798.04 126.06,838.13 " fill="none" id="Publicacao-UF" style="stroke:#181818;stroke-width:1.0;"/><text fill="#000000" font-family="sans-serif" font-size="13" lengthAdjust="spacing" textLength="6.5" x="119.7593" y="708.467">*</text><text fill="#000000" font-family="sans-serif" font-size="13" lengthAdjust="spacing" textLength="8.271" x="117.4449" y="827.5134">1</text></g><!--link Administrador to Chamado--><g id="link_Administrador_Chamado"><path codeLine="130" d="M1050.06,457.77 C1050.06,485.17 1050.06,515.19 1050.06,542.01 " fill="none" id="Administrador-Chamado" style="stroke:#181818;stroke-width:1.0;"/><text fill="#000000" font-family="sans-serif" font-size="13" lengthAdjust="spacing" textLength="29.561" x="1051.06" y="500.4069">abre</text><text fill="#000000" font-family="sans-serif" font-size="13" lengthAdjust="spacing" textLength="6.5" x="1043.8498" y="477.2772">*</text><text fill="#000000" font-family="sans-serif" font-size="13" lengthAdjust="spacing" textLength="6.5" x="1043.8241" y="531.4325">*</text></g><!--reverse link Chamado to Anexo--><g id="link_Chamado_Anexo"><path codeLine="132" d="M1050.06,717.05 C1050.06,755.16 1050.06,787.73 1050.06,822.06 " fill="none" id="Chamado-backto-Anexo" style="stroke:#181818;stroke-width:1.0;"/><polygon fill="none" points="1050.06,705.05,1046.06,711.05,1050.06,717.05,1054.06,711.05,1050.06,705.05" style="stroke:#181818;stroke-width:1.0;"/><text fill="#000000" font-family="sans-serif" font-size="13" lengthAdjust="spacing" textLength="49.0991" x="1051.06" y="755.7869">cont&#233;m</text><text fill="#000000" font-family="sans-serif" font-size="13" lengthAdjust="spacing" textLength="6.5" x="1043.8241" y="724.7728">*</text><text fill="#000000" font-family="sans-serif" font-size="13" lengthAdjust="spacing" textLength="6.5" x="1043.7247" y="811.2931">*</text></g><!--SRC=[nLRDQjmm4BxxASHUuYG4sgi9WMtAqa89eM5FfOUnFBiHiQMjVfOqRP-dz07w17cnZcnBQyjnKmgbUrbxVZGptynyihaJSWSQ6iPhC6PfhHQbi_YMAtaZ7f2zoB8ZTkbroA0qLeC5jZOEj51P9-2sSmvYzYLZz3jZeYgOaBP_awh1WjrG0BdjHNotIIGeAzJ8LIAkAEeL62uQb9QKhy5Yhx9OuqR9z6XiGDI9pA2yXP7ib04LAwtWeFFZWfLArGYorr4YReSQz8rtp4T7al5UYIhxbcLTySjghxPG7QfNK2Qn3ANAXPAWrokJkuqfs3jXxFbwTH6EwmmvLE2HrPUreEmmvzr_mNh1s7nBa4akG2zT9Tedauyjze9QKui7q6yeeDA2gtod5KTZLCZYkd-_c9IsSh9BE_Rs_zGomBeHKlXJAwLZIZ5IQ4KE_KCHkpEJsw32V7DuBeQb9wvASgHPlKRT248D2OHk_8km1sC7ZOtQe-vrpnfttNe5_CxjacP2gOM-l8N6byYxVqApUqXCVKT1NuEGM5E3AsV5NbHGONgcL9PWWDh2R6eH_hvn_s3F_tYPJzdi-8QAAj5rBYZYm1SiY2QL1KKiJRe6TPhbdWWphL0re7agfIDTorTZCaF3QGCXbNCYjItjPafHjs5bbzP1wzOM_2OHJmhlvNdqBrZgCm4WDOX0U0OUywxOgUMq209vG_lW4wZZ10L6B0tgFN1QbkWL8wzNCPOHspg5SZHLqUbAMR4XA8UPZgUHzjIYgz8qZGNhp1Etp2NXtrOLIoL4QzlU0grFFdOThn7Uyze9FMMiQrVMVvEdJ-dWEsg0evrQhmwq2Ng0XizWy3hOtOucPhAO6yqTDL6tl95EkCJxk89B_t8nZt1FNVc4IOqZtWdu7a_Rt1xy6xfPwazEx2TauYVqIGqLufCkFrlyyD67EMBliOR7xuy_qH0tMKqVEwRxga6JXU-QywzdP_4c6Ki7zqHgFhYgiYn-9InUBXYf5oUBIAS5Mr1tYHWNsV36dR6a7JEMJBCWz7QgDmmybcMHqRpwf5UdMpxCwoH66ouNHIIwnZBDxLdh9qyUR0EPDaeAIWTcZvuppmQAO4vLqb9auo-4mLbX_Zs4fMxnwoLU6_3h1evi_5e-_cWMlm00]--></g></svg>